<svg xmlns="http://www.w3.org/2000/svg" width="850" height="620" viewBox="0 0 850 620">
  <defs>
    <style>
      .eye { animation: blink 4s step-end infinite; }
      .pet { animation: float 3s ease-in-out infinite; }
      @keyframes blink { 0%,92% { opacity:1 } 93%,97% { opacity:0 } 98% { opacity:1 } }
      @keyframes float { 0%,100% { transform:translateY(0) } 50% { transform:translateY(-6px) } }
    </style>
    <linearGradient id="grd" x1="0%" y1="0%" x2="100%" y2="100%">
      <stop offset="0%"><animate attributeName="stop-color" values="#D97757;#E8A87C;#F5E6D3;#C4703E;#D97757" dur="10s" repeatCount="indefinite"/></stop>
      <stop offset="50%"><animate attributeName="stop-color" values="#E8A87C;#F5E6D3;#C4703E;#D97757;#E8A87C" dur="10s" repeatCount="indefinite"/></stop>
      <stop offset="100%"><animate attributeName="stop-color" values="#F5E6D3;#C4703E;#D97757;#E8A87C;#F5E6D3" dur="10s" repeatCount="indefinite"/></stop>
    </linearGradient>
    <filter id="glow"><feGaussianBlur stdDeviation="3" result="b"/><feMerge><feMergeNode in="b"/><feMergeNode in="SourceGraphic"/></feMerge></filter>
    <filter id="glow2"><feGaussianBlur stdDeviation="1.5" result="b"/><feMerge><feMergeNode in="b"/><feMergeNode in="SourceGraphic"/></feMerge></filter>
    <linearGradient id="hpg"><stop offset="0%" stop-color="#D97757"/><stop offset="100%" stop-color="#E8A87C"/></linearGradient>
    <linearGradient id="xpg"><stop offset="0%" stop-color="#C4703E"/><stop offset="100%" stop-color="#D97757"/></linearGradient>
  </defs>

  <!-- ═══ SHELL ═══ -->
  <rect width="850" height="620" fill="#1A1410" rx="14"/>
  <rect x="1" y="1" width="848" height="618" fill="none" stroke="url(#grd)" stroke-width="1.5" rx="13"/>

  <!-- screen -->
  <rect x="12" y="12" width="826" height="596" fill="#100D09" rx="6"/>
  <rect x="12" y="12" width="826" height="596" fill="none" stroke="url(#grd)" stroke-width="0.4" rx="6" opacity="0.12"/>

  <!-- ═══ TITLE BAR ═══ -->
  <rect x="12" y="12" width="826" height="28" fill="#211A14" rx="6"/>
  <rect x="12" y="32" width="826" height="8" fill="#211A14"/>
  <circle cx="30" cy="26" r="5" fill="#D97757"/>
  <circle cx="50" cy="26" r="5" fill="#E8A87C"/>
  <circle cx="70" cy="26" r="5" fill="#F5E6D3"/>
  <text x="425" y="30" font-family="'Courier New', monospace" font-size="12" fill="#9B8672" text-anchor="middle">bigmacfive@github ~ dashboard.sh</text>

  <!-- ═══════════════ UPPER: PET + RINGS + HEATMAP ═══════════════ -->

  <!-- pixel pet -->
  <g class="pet"><rect x="75" y="54" width="9" height="9" fill="#D97757"/>
      <rect x="84" y="54" width="9" height="9" fill="#D97757"/>
      <rect x="93" y="54" width="9" height="9" fill="#D97757"/>
      <rect x="102" y="54" width="9" height="9" fill="#D97757"/>
      <rect x="111" y="54" width="9" height="9" fill="#D97757"/>
      <rect x="120" y="54" width="9" height="9" fill="#D97757"/>
      <rect x="57" y="63" width="9" height="9" fill="#D97757"/>
      <rect x="66" y="63" width="9" height="9" fill="#D97757"/>
      <rect x="75" y="63" width="9" height="9" fill="#D97757"/>
      <rect x="84" y="63" width="9" height="9" fill="#D97757"/>
      <rect x="93" y="63" width="9" height="9" fill="#D97757"/>
      <rect x="102" y="63" width="9" height="9" fill="#D97757"/>
      <rect x="111" y="63" width="9" height="9" fill="#D97757"/>
      <rect x="120" y="63" width="9" height="9" fill="#D97757"/>
      <rect x="129" y="63" width="9" height="9" fill="#D97757"/>
      <rect x="138" y="63" width="9" height="9" fill="#D97757"/>
      <rect x="48" y="72" width="9" height="9" fill="#D97757"/>
      <rect x="57" y="72" width="9" height="9" fill="#D97757"/>
      <rect x="66" y="72" width="9" height="9" fill="#D97757"/>
      <rect x="75" y="72" width="9" height="9" fill="#D97757"/>
      <rect x="84" y="72" width="9" height="9" fill="#D97757"/>
      <rect x="93" y="72" width="9" height="9" fill="#D97757"/>
      <rect x="102" y="72" width="9" height="9" fill="#D97757"/>
      <rect x="111" y="72" width="9" height="9" fill="#D97757"/>
      <rect x="120" y="72" width="9" height="9" fill="#D97757"/>
      <rect x="129" y="72" width="9" height="9" fill="#D97757"/>
      <rect x="138" y="72" width="9" height="9" fill="#D97757"/>
      <rect x="147" y="72" width="9" height="9" fill="#D97757"/>
      <rect x="39" y="81" width="9" height="9" fill="#D97757"/>
      <rect x="48" y="81" width="9" height="9" fill="#D97757"/>
      <rect x="57" y="81" width="9" height="9" fill="#D97757"/>
      <rect x="66" y="81" width="9" height="9" fill="#1A1410" class="eye"/>
      <rect x="75" y="81" width="9" height="9" fill="#1A1410" class="eye"/>
      <rect x="84" y="81" width="9" height="9" fill="#D97757"/>
      <rect x="93" y="81" width="9" height="9" fill="#D97757"/>
      <rect x="102" y="81" width="9" height="9" fill="#D97757"/>
      <rect x="111" y="81" width="9" height="9" fill="#D97757"/>
      <rect x="120" y="81" width="9" height="9" fill="#1A1410" class="eye"/>
      <rect x="129" y="81" width="9" height="9" fill="#1A1410" class="eye"/>
      <rect x="138" y="81" width="9" height="9" fill="#D97757"/>
      <rect x="147" y="81" width="9" height="9" fill="#D97757"/>
      <rect x="156" y="81" width="9" height="9" fill="#D97757"/>
      <rect x="39" y="90" width="9" height="9" fill="#D97757"/>
      <rect x="48" y="90" width="9" height="9" fill="#D97757"/>
      <rect x="57" y="90" width="9" height="9" fill="#D97757"/>
      <rect x="66" y="90" width="9" height="9" fill="#E8A87C" class="eye"/>
      <rect x="75" y="90" width="9" height="9" fill="#1A1410" class="eye"/>
      <rect x="84" y="90" width="9" height="9" fill="#D97757"/>
      <rect x="93" y="90" width="9" height="9" fill="#D97757"/>
      <rect x="102" y="90" width="9" height="9" fill="#D97757"/>
      <rect x="111" y="90" width="9" height="9" fill="#D97757"/>
      <rect x="120" y="90" width="9" height="9" fill="#E8A87C" class="eye"/>
      <rect x="129" y="90" width="9" height="9" fill="#1A1410" class="eye"/>
      <rect x="138" y="90" width="9" height="9" fill="#D97757"/>
      <rect x="147" y="90" width="9" height="9" fill="#D97757"/>
      <rect x="156" y="90" width="9" height="9" fill="#D97757"/>
      <rect x="39" y="99" width="9" height="9" fill="#D97757"/>
      <rect x="48" y="99" width="9" height="9" fill="#D97757"/>
      <rect x="57" y="99" width="9" height="9" fill="#F0A88C"/>
      <rect x="66" y="99" width="9" height="9" fill="#D97757"/>
      <rect x="75" y="99" width="9" height="9" fill="#D97757"/>
      <rect x="84" y="99" width="9" height="9" fill="#D97757"/>
      <rect x="93" y="99" width="9" height="9" fill="#D97757"/>
      <rect x="102" y="99" width="9" height="9" fill="#D97757"/>
      <rect x="111" y="99" width="9" height="9" fill="#D97757"/>
      <rect x="120" y="99" width="9" height="9" fill="#D97757"/>
      <rect x="129" y="99" width="9" height="9" fill="#D97757"/>
      <rect x="138" y="99" width="9" height="9" fill="#F0A88C"/>
      <rect x="147" y="99" width="9" height="9" fill="#D97757"/>
      <rect x="156" y="99" width="9" height="9" fill="#D97757"/>
      <rect x="39" y="108" width="9" height="9" fill="#D97757"/>
      <rect x="48" y="108" width="9" height="9" fill="#D97757"/>
      <rect x="57" y="108" width="9" height="9" fill="#D97757"/>
      <rect x="66" y="108" width="9" height="9" fill="#D97757"/>
      <rect x="75" y="108" width="9" height="9" fill="#1A1410"/>
      <rect x="84" y="108" width="9" height="9" fill="#D97757"/>
      <rect x="93" y="108" width="9" height="9" fill="#D97757"/>
      <rect x="102" y="108" width="9" height="9" fill="#D97757"/>
      <rect x="111" y="108" width="9" height="9" fill="#D97757"/>
      <rect x="120" y="108" width="9" height="9" fill="#1A1410"/>
      <rect x="129" y="108" width="9" height="9" fill="#D97757"/>
      <rect x="138" y="108" width="9" height="9" fill="#D97757"/>
      <rect x="147" y="108" width="9" height="9" fill="#D97757"/>
      <rect x="156" y="108" width="9" height="9" fill="#D97757"/>
      <rect x="39" y="117" width="9" height="9" fill="#D97757"/>
      <rect x="48" y="117" width="9" height="9" fill="#D97757"/>
      <rect x="57" y="117" width="9" height="9" fill="#D97757"/>
      <rect x="66" y="117" width="9" height="9" fill="#D97757"/>
      <rect x="75" y="117" width="9" height="9" fill="#D97757"/>
      <rect x="84" y="117" width="9" height="9" fill="#1A1410"/>
      <rect x="93" y="117" width="9" height="9" fill="#1A1410"/>
      <rect x="102" y="117" width="9" height="9" fill="#1A1410"/>
      <rect x="111" y="117" width="9" height="9" fill="#1A1410"/>
      <rect x="120" y="117" width="9" height="9" fill="#D97757"/>
      <rect x="129" y="117" width="9" height="9" fill="#D97757"/>
      <rect x="138" y="117" width="9" height="9" fill="#D97757"/>
      <rect x="147" y="117" width="9" height="9" fill="#D97757"/>
      <rect x="156" y="117" width="9" height="9" fill="#D97757"/>
      <rect x="30" y="126" width="9" height="9" fill="#D97757"/>
      <rect x="39" y="126" width="9" height="9" fill="#D97757"/>
      <rect x="48" y="126" width="9" height="9" fill="#D97757"/>
      <rect x="57" y="126" width="9" height="9" fill="#D97757"/>
      <rect x="66" y="126" width="9" height="9" fill="#D97757"/>
      <rect x="75" y="126" width="9" height="9" fill="#D97757"/>
      <rect x="84" y="126" width="9" height="9" fill="#D97757"/>
      <rect x="93" y="126" width="9" height="9" fill="#D97757"/>
      <rect x="102" y="126" width="9" height="9" fill="#D97757"/>
      <rect x="111" y="126" width="9" height="9" fill="#D97757"/>
      <rect x="120" y="126" width="9" height="9" fill="#D97757"/>
      <rect x="129" y="126" width="9" height="9" fill="#D97757"/>
      <rect x="138" y="126" width="9" height="9" fill="#D97757"/>
      <rect x="147" y="126" width="9" height="9" fill="#D97757"/>
      <rect x="156" y="126" width="9" height="9" fill="#D97757"/>
      <rect x="165" y="126" width="9" height="9" fill="#D97757"/>
      <rect x="39" y="135" width="9" height="9" fill="#D97757"/>
      <rect x="48" y="135" width="9" height="9" fill="#D97757"/>
      <rect x="57" y="135" width="9" height="9" fill="#D97757"/>
      <rect x="66" y="135" width="9" height="9" fill="#D97757"/>
      <rect x="75" y="135" width="9" height="9" fill="#D97757"/>
      <rect x="84" y="135" width="9" height="9" fill="#D97757"/>
      <rect x="93" y="135" width="9" height="9" fill="#D97757"/>
      <rect x="102" y="135" width="9" height="9" fill="#D97757"/>
      <rect x="111" y="135" width="9" height="9" fill="#D97757"/>
      <rect x="120" y="135" width="9" height="9" fill="#D97757"/>
      <rect x="129" y="135" width="9" height="9" fill="#D97757"/>
      <rect x="138" y="135" width="9" height="9" fill="#D97757"/>
      <rect x="147" y="135" width="9" height="9" fill="#D97757"/>
      <rect x="156" y="135" width="9" height="9" fill="#D97757"/>
      <rect x="48" y="144" width="9" height="9" fill="#D97757"/>
      <rect x="57" y="144" width="9" height="9" fill="#D97757"/>
      <rect x="66" y="144" width="9" height="9" fill="#D97757"/>
      <rect x="75" y="144" width="9" height="9" fill="#D97757"/>
      <rect x="84" y="144" width="9" height="9" fill="#D97757"/>
      <rect x="93" y="144" width="9" height="9" fill="#D97757"/>
      <rect x="102" y="144" width="9" height="9" fill="#D97757"/>
      <rect x="111" y="144" width="9" height="9" fill="#D97757"/>
      <rect x="120" y="144" width="9" height="9" fill="#D97757"/>
      <rect x="129" y="144" width="9" height="9" fill="#D97757"/>
      <rect x="138" y="144" width="9" height="9" fill="#D97757"/>
      <rect x="147" y="144" width="9" height="9" fill="#D97757"/>
      <rect x="57" y="153" width="9" height="9" fill="#D97757"/>
      <rect x="66" y="153" width="9" height="9" fill="#D97757"/>
      <rect x="75" y="153" width="9" height="9" fill="#D97757"/>
      <rect x="120" y="153" width="9" height="9" fill="#D97757"/>
      <rect x="129" y="153" width="9" height="9" fill="#D97757"/>
      <rect x="138" y="153" width="9" height="9" fill="#D97757"/>
      <rect x="57" y="162" width="9" height="9" fill="#D97757"/>
      <rect x="66" y="162" width="9" height="9" fill="#D97757"/>
      <rect x="129" y="162" width="9" height="9" fill="#D97757"/>
      <rect x="138" y="162" width="9" height="9" fill="#D97757"/></g>
  <circle cx="175" cy="62" r="1.0" fill="#D97757" opacity="0"><animate attributeName="opacity" values="0;0.9;0" dur="2.6s" begin="1.1s" repeatCount="indefinite"/></circle>
    <circle cx="185" cy="173" r="1.1" fill="#E8A87C" opacity="0"><animate attributeName="opacity" values="0;0.9;0" dur="2.8s" begin="0.1s" repeatCount="indefinite"/></circle>
    <circle cx="71" cy="163" r="1.9" fill="#C4703E" opacity="0"><animate attributeName="opacity" values="0;0.9;0" dur="3.1s" begin="3.6s" repeatCount="indefinite"/></circle>
    <circle cx="68" cy="148" r="1.9" fill="#E8A87C" opacity="0"><animate attributeName="opacity" values="0;0.9;0" dur="3.6s" begin="0.0s" repeatCount="indefinite"/></circle>
    <circle cx="190" cy="142" r="1.5" fill="#F5E6D3" opacity="0"><animate attributeName="opacity" values="0;0.9;0" dur="2.3s" begin="4.8s" repeatCount="indefinite"/></circle>
    <circle cx="38" cy="57" r="1.6" fill="#F5E6D3" opacity="0"><animate attributeName="opacity" values="0;0.9;0" dur="2.7s" begin="1.7s" repeatCount="indefinite"/></circle>
    <circle cx="23" cy="151" r="1.8" fill="#F5E6D3" opacity="0"><animate attributeName="opacity" values="0;0.9;0" dur="3.9s" begin="1.9s" repeatCount="indefinite"/></circle>
    <circle cx="172" cy="126" r="1.9" fill="#E8A87C" opacity="0"><animate attributeName="opacity" values="0;0.9;0" dur="3.4s" begin="0.2s" repeatCount="indefinite"/></circle>
    <circle cx="86" cy="54" r="2.3" fill="#C4703E" opacity="0"><animate attributeName="opacity" values="0;0.9;0" dur="3.7s" begin="1.9s" repeatCount="indefinite"/></circle>
    <circle cx="174" cy="127" r="1.2" fill="#D97757" opacity="0"><animate attributeName="opacity" values="0;0.9;0" dur="2.7s" begin="3.4s" repeatCount="indefinite"/></circle>
    <circle cx="167" cy="77" r="1.8" fill="#F5E6D3" opacity="0"><animate attributeName="opacity" values="0;0.9;0" dur="2.5s" begin="2.3s" repeatCount="indefinite"/></circle>
    <circle cx="175" cy="176" r="1.3" fill="#D97757" opacity="0"><animate attributeName="opacity" values="0;0.9;0" dur="2.6s" begin="3.8s" repeatCount="indefinite"/></circle>
  <text x="102" y="187" font-family="'Courier New', monospace" font-size="11" fill="#D97757" text-anchor="middle" filter="url(#glow)">&#9670; LV.8 &#9670;</text>

  <!-- HP -->
  <text x="30" y="203" font-family="'Courier New', monospace" font-size="9" fill="#D97757">HP</text>
  <rect x="52" y="194" width="120" height="9" fill="#3D3028" rx="4"/>
  <rect x="52" y="194" width="1" height="9" fill="url(#hpg)" rx="4">
    <animate attributeName="opacity" values="0.85;1;0.85" dur="3s" repeatCount="indefinite"/>
  </rect>
  <!-- XP -->
  <text x="30" y="217" font-family="'Courier New', monospace" font-size="9" fill="#E8A87C">XP</text>
  <rect x="52" y="208" width="120" height="9" fill="#3D3028" rx="4"/>
  <rect x="52" y="208" width="15" height="9" fill="url(#xpg)" rx="4"/>

  <!-- stat rings -->
  <circle cx="250" cy="100" r="36" stroke="#3D3028" stroke-width="5" fill="none"/><circle cx="250" cy="100" r="36" stroke="#D97757" stroke-width="5" fill="none" stroke-dasharray="226.2" stroke-dashoffset="226.2" stroke-linecap="round" transform="rotate(-90 250 100)" filter="url(#glow2)"><animate attributeName="stroke-dashoffset" from="226.2" to="224.6" dur="1.5s" begin="0.2s" fill="freeze" calcMode="spline" keySplines="0.4 0 0.2 1"/></circle><text x="250" y="106" text-anchor="middle" font-family="'Courier New', monospace" font-size="16" fill="#F5E6D3" font-weight="bold" opacity="0"><animate attributeName="opacity" from="0" to="1" dur="0.4s" begin="1.0s" fill="freeze"/>14</text><text x="250" y="154" text-anchor="middle" font-family="'Courier New', monospace" font-size="10" fill="#9B8672">commits</text>
  <circle cx="350" cy="100" r="36" stroke="#3D3028" stroke-width="5" fill="none"/><circle cx="350" cy="100" r="36" stroke="#E8A87C" stroke-width="5" fill="none" stroke-dasharray="226.2" stroke-dashoffset="226.2" stroke-linecap="round" transform="rotate(-90 350 100)" filter="url(#glow2)"><animate attributeName="stroke-dashoffset" from="226.2" to="196.0" dur="1.5s" begin="0.5s" fill="freeze" calcMode="spline" keySplines="0.4 0 0.2 1"/></circle><text x="350" y="106" text-anchor="middle" font-family="'Courier New', monospace" font-size="16" fill="#F5E6D3" font-weight="bold" opacity="0"><animate attributeName="opacity" from="0" to="1" dur="0.4s" begin="1.3s" fill="freeze"/>4d</text><text x="350" y="154" text-anchor="middle" font-family="'Courier New', monospace" font-size="10" fill="#9B8672">streak</text>
  <circle cx="450" cy="100" r="36" stroke="#3D3028" stroke-width="5" fill="none"/><circle cx="450" cy="100" r="36" stroke="#F5E6D3" stroke-width="5" fill="none" stroke-dasharray="226.2" stroke-dashoffset="226.2" stroke-linecap="round" transform="rotate(-90 450 100)" filter="url(#glow2)"><animate attributeName="stroke-dashoffset" from="226.2" to="192.3" dur="1.5s" begin="0.8s" fill="freeze" calcMode="spline" keySplines="0.4 0 0.2 1"/></circle><text x="450" y="106" text-anchor="middle" font-family="'Courier New', monospace" font-size="16" fill="#F5E6D3" font-weight="bold" opacity="0"><animate attributeName="opacity" from="0" to="1" dur="0.4s" begin="1.6s" fill="freeze"/>15</text><text x="450" y="154" text-anchor="middle" font-family="'Courier New', monospace" font-size="10" fill="#9B8672">followers</text>
  <text x="250" y="160" text-anchor="middle" font-family="'Courier New', monospace" font-size="9" fill="#9B8672">stars 1</text>
  <text x="350" y="160" text-anchor="middle" font-family="'Courier New', monospace" font-size="9" fill="#9B8672">repos 10</text>
  <text x="450" y="160" text-anchor="middle" font-family="'Courier New', monospace" font-size="9" fill="#9B8672">joined 8y</text>

  <!-- divider -->
  <line x1="490" y1="46" x2="490" y2="200" stroke="#3D3028" stroke-width="0.5" opacity="0.4"/>

  <!-- heatmap -->
  <text x="510" y="56" font-family="'Courier New', monospace" font-size="11" fill="#D97757" filter="url(#glow2)">contributions</text>
  <rect x="510" y="64" width="8" height="8" fill="#211A14" rx="2"/>
      <rect x="510" y="74" width="8" height="8" fill="#211A14" rx="2"/>
      <rect x="510" y="84" width="8" height="8" fill="#211A14" rx="2"/>
      <rect x="510" y="94" width="8" height="8" fill="#211A14" rx="2"/>
      <rect x="510" y="104" width="8" height="8" fill="#211A14" rx="2"/>
      <rect x="510" y="114" width="8" height="8" fill="#211A14" rx="2"/>
      <rect x="510" y="124" width="8" height="8" fill="#211A14" rx="2"/>
      <rect x="520" y="64" width="8" height="8" fill="#211A14" rx="2"/>
      <rect x="520" y="74" width="8" height="8" fill="#4A2C1A" rx="2"/>
      <rect x="520" y="84" width="8" height="8" fill="#4A2C1A" rx="2"/>
      <rect x="520" y="94" width="8" height="8" fill="#211A14" rx="2"/>
      <rect x="520" y="104" width="8" height="8" fill="#7A4528" rx="2"/>
      <rect x="520" y="114" width="8" height="8" fill="#7A4528" rx="2"/>
      <rect x="520" y="124" width="8" height="8" fill="#B85F35" rx="2"/>
      <rect x="530" y="64" width="8" height="8" fill="#211A14" rx="2"/>
      <rect x="530" y="74" width="8" height="8" fill="#B85F35" rx="2"/>
      <rect x="530" y="84" width="8" height="8" fill="#211A14" rx="2"/>
      <rect x="530" y="94" width="8" height="8" fill="#211A14" rx="2"/>
      <rect x="530" y="104" width="8" height="8" fill="#211A14" rx="2"/>
      <rect x="530" y="114" width="8" height="8" fill="#4A2C1A" rx="2"/>
      <rect x="530" y="124" width="8" height="8" fill="#B85F35" rx="2"/>
      <rect x="540" y="64" width="8" height="8" fill="#B85F35" rx="2"/>
      <rect x="540" y="74" width="8" height="8" fill="#211A14" rx="2"/>
      <rect x="540" y="84" width="8" height="8" fill="#D97757" rx="2"/>
      <rect x="540" y="94" width="8" height="8" fill="#D97757" rx="2"/>
      <rect x="540" y="104" width="8" height="8" fill="#4A2C1A" rx="2"/>
      <rect x="540" y="114" width="8" height="8" fill="#211A14" rx="2"/>
      <rect x="540" y="124" width="8" height="8" fill="#B85F35" rx="2"/>
      <rect x="550" y="64" width="8" height="8" fill="#211A14" rx="2"/>
      <rect x="550" y="74" width="8" height="8" fill="#D97757" rx="2"/>
      <rect x="550" y="84" width="8" height="8" fill="#211A14" rx="2"/>
      <rect x="550" y="94" width="8" height="8" fill="#211A14" rx="2"/>
      <rect x="550" y="104" width="8" height="8" fill="#211A14" rx="2"/>
      <rect x="550" y="114" width="8" height="8" fill="#211A14" rx="2"/>
      <rect x="550" y="124" width="8" height="8" fill="#211A14" rx="2"/>
      <rect x="560" y="64" width="8" height="8" fill="#211A14" rx="2"/>
      <rect x="560" y="74" width="8" height="8" fill="#7A4528" rx="2"/>
      <rect x="560" y="84" width="8" height="8" fill="#D97757" rx="2"/>
      <rect x="560" y="94" width="8" height="8" fill="#D97757" rx="2"/>
      <rect x="560" y="104" width="8" height="8" fill="#D97757" rx="2"/>
      <rect x="560" y="114" width="8" height="8" fill="#211A14" rx="2"/>
      <rect x="560" y="124" width="8" height="8" fill="#211A14" rx="2"/>
      <rect x="570" y="64" width="8" height="8" fill="#D97757" rx="2"/>
      <rect x="570" y="74" width="8" height="8" fill="#B85F35" rx="2"/>
      <rect x="570" y="84" width="8" height="8" fill="#4A2C1A" rx="2"/>
      <rect x="570" y="94" width="8" height="8" fill="#D97757" rx="2"/>
      <rect x="570" y="104" width="8" height="8" fill="#7A4528" rx="2"/>
      <rect x="570" y="114" width="8" height="8" fill="#4A2C1A" rx="2"/>
      <rect x="570" y="124" width="8" height="8" fill="#211A14" rx="2"/>
      <rect x="580" y="64" width="8" height="8" fill="#211A14" rx="2"/>
      <rect x="580" y="74" width="8" height="8" fill="#211A14" rx="2"/>
      <rect x="580" y="84" width="8" height="8" fill="#B85F35" rx="2"/>
      <rect x="580" y="94" width="8" height="8" fill="#4A2C1A" rx="2"/>
      <rect x="580" y="104" width="8" height="8" fill="#211A14" rx="2"/>
      <rect x="580" y="114" width="8" height="8" fill="#211A14" rx="2"/>
      <rect x="580" y="124" width="8" height="8" fill="#211A14" rx="2"/>
      <rect x="590" y="64" width="8" height="8" fill="#211A14" rx="2"/>
      <rect x="590" y="74" width="8" height="8" fill="#211A14" rx="2"/>
      <rect x="590" y="84" width="8" height="8" fill="#211A14" rx="2"/>
      <rect x="590" y="94" width="8" height="8" fill="#211A14" rx="2"/>
      <rect x="590" y="104" width="8" height="8" fill="#211A14" rx="2"/>
      <rect x="590" y="114" width="8" height="8" fill="#211A14" rx="2"/>
      <rect x="590" y="124" width="8" height="8" fill="#211A14" rx="2"/>
      <rect x="600" y="64" width="8" height="8" fill="#211A14" rx="2"/>
      <rect x="600" y="74" width="8" height="8" fill="#211A14" rx="2"/>
      <rect x="600" y="84" width="8" height="8" fill="#211A14" rx="2"/>
      <rect x="600" y="94" width="8" height="8" fill="#211A14" rx="2"/>
      <rect x="600" y="104" width="8" height="8" fill="#211A14" rx="2"/>
      <rect x="600" y="114" width="8" height="8" fill="#211A14" rx="2"/>
      <rect x="600" y="124" width="8" height="8" fill="#B85F35" rx="2"/>
      <rect x="610" y="64" width="8" height="8" fill="#211A14" rx="2"/>
      <rect x="610" y="74" width="8" height="8" fill="#211A14" rx="2"/>
      <rect x="610" y="84" width="8" height="8" fill="#211A14" rx="2"/>
      <rect x="610" y="94" width="8" height="8" fill="#4A2C1A" rx="2"/>
      <rect x="610" y="104" width="8" height="8" fill="#211A14" rx="2"/>
      <rect x="610" y="114" width="8" height="8" fill="#211A14" rx="2"/>
      <rect x="610" y="124" width="8" height="8" fill="#4A2C1A" rx="2"/>
      <rect x="620" y="64" width="8" height="8" fill="#7A4528" rx="2"/>
      <rect x="620" y="74" width="8" height="8" fill="#4A2C1A" rx="2"/>
      <rect x="620" y="84" width="8" height="8" fill="#7A4528" rx="2"/>
      <rect x="620" y="94" width="8" height="8" fill="#7A4528" rx="2"/>
      <rect x="620" y="104" width="8" height="8" fill="#7A4528" rx="2"/>
      <rect x="620" y="114" width="8" height="8" fill="#D97757" rx="2"/>
      <rect x="620" y="124" width="8" height="8" fill="#D97757" rx="2"/>
      <rect x="630" y="64" width="8" height="8" fill="#D97757" rx="2"/>
      <rect x="630" y="74" width="8" height="8" fill="#211A14" rx="2"/>
      <rect x="630" y="84" width="8" height="8" fill="#211A14" rx="2"/>
      <rect x="630" y="94" width="8" height="8" fill="#4A2C1A" rx="2"/>
      <rect x="630" y="104" width="8" height="8" fill="#211A14" rx="2"/>
      <rect x="630" y="114" width="8" height="8" fill="#211A14" rx="2"/>
      <rect x="630" y="124" width="8" height="8" fill="#211A14" rx="2"/>
      <rect x="640" y="64" width="8" height="8" fill="#211A14" rx="2"/>
      <rect x="640" y="74" width="8" height="8" fill="#211A14" rx="2"/>
      <rect x="640" y="84" width="8" height="8" fill="#B85F35" rx="2"/>
      <rect x="640" y="94" width="8" height="8" fill="#211A14" rx="2"/>
      <rect x="640" y="104" width="8" height="8" fill="#211A14" rx="2"/>
      <rect x="640" y="114" width="8" height="8" fill="#211A14" rx="2"/>
      <rect x="640" y="124" width="8" height="8" fill="#211A14" rx="2"/>
      <rect x="650" y="64" width="8" height="8" fill="#211A14" rx="2"/>
      <rect x="650" y="74" width="8" height="8" fill="#211A14" rx="2"/>
      <rect x="650" y="84" width="8" height="8" fill="#211A14" rx="2"/>
      <rect x="650" y="94" width="8" height="8" fill="#B85F35" rx="2"/>
      <rect x="650" y="104" width="8" height="8" fill="#7A4528" rx="2"/>
      <rect x="650" y="114" width="8" height="8" fill="#4A2C1A" rx="2"/>
      <rect x="650" y="124" width="8" height="8" fill="#211A14" rx="2"/>
      <rect x="660" y="64" width="8" height="8" fill="#4A2C1A" rx="2"/>
      <rect x="660" y="74" width="8" height="8" fill="#4A2C1A" rx="2"/>
      <rect x="660" y="84" width="8" height="8" fill="#211A14" rx="2"/>
      <rect x="660" y="94" width="8" height="8" fill="#211A14" rx="2"/>
      <rect x="660" y="104" width="8" height="8" fill="#211A14" rx="2"/>
      <rect x="660" y="114" width="8" height="8" fill="#4A2C1A" rx="2"/>
      <rect x="660" y="124" width="8" height="8" fill="#4A2C1A" rx="2"/>
      <rect x="670" y="64" width="8" height="8" fill="#211A14" rx="2"/>
      <rect x="670" y="74" width="8" height="8" fill="#D97757" rx="2"/>
      <rect x="670" y="84" width="8" height="8" fill="#211A14" rx="2"/>
      <rect x="670" y="94" width="8" height="8" fill="#211A14" rx="2"/>
      <rect x="670" y="104" width="8" height="8" fill="#4A2C1A" rx="2"/>
      <rect x="670" y="114" width="8" height="8" fill="#B85F35" rx="2"/>
      <rect x="670" y="124" width="8" height="8" fill="#211A14" rx="2"/>
      <rect x="680" y="64" width="8" height="8" fill="#7A4528" rx="2"/>
      <rect x="680" y="74" width="8" height="8" fill="#4A2C1A" rx="2"/>
      <rect x="680" y="84" width="8" height="8" fill="#B85F35" rx="2"/>
      <rect x="680" y="94" width="8" height="8" fill="#B85F35" rx="2"/>
  <text x="510" y="144" font-family="'Courier New', monospace" font-size="8" fill="#9B8672">less</text>
  <rect x="534" y="136" width="8" height="8" fill="#211A14" rx="1.5"/>
  <rect x="544" y="136" width="8" height="8" fill="#4A2C1A" rx="1.5"/>
  <rect x="554" y="136" width="8" height="8" fill="#7A4528" rx="1.5"/>
  <rect x="564" y="136" width="8" height="8" fill="#B85F35" rx="1.5"/>
  <rect x="574" y="136" width="8" height="8" fill="#D97757" rx="1.5"/>
  <text x="586" y="144" font-family="'Courier New', monospace" font-size="8" fill="#9B8672">more</text>

  <!-- ═══ DIVIDER ═══ -->
  <line x1="28" y1="218" x2="822" y2="218" stroke="#3D3028" stroke-width="0.5" stroke-dasharray="3,3"/>

  <!-- ═══════════════ AI COLLAB RATIO ═══════════════ -->
  <text x="32" y="234" font-family="'Courier New', monospace" font-size="12" fill="#D97757" filter="url(#glow2)">$ collab --ratio</text>
    <rect x="32" y="252" width="786" height="18" fill="#3D3028" rx="8"/>
    <rect x="32" y="252" width="686" height="18" fill="#E8A87C" opacity="0.85" rx="0"><animate attributeName="width" from="0" to="686" dur="1s" begin="0.3s" fill="freeze" calcMode="spline" keySplines="0.4 0 0.2 1"/></rect>
    <rect x="718" y="252" width="100" height="18" fill="#D97757" opacity="0.85" rx="0"><animate attributeName="width" from="0" to="100" dur="1s" begin="0.3s" fill="freeze" calcMode="spline" keySplines="0.4 0 0.2 1"/></rect>
    <rect x="32" y="252" width="786" height="18" fill="none" stroke="#3D3028" stroke-width="1" rx="8"/>
    <text x="375" y="265" text-anchor="middle" font-family="'Courier New', monospace" font-size="10" fill="#1A1410" font-weight="bold">87%</text>
    <text x="767" y="265" text-anchor="middle" font-family="'Courier New', monospace" font-size="10" fill="#1A1410" font-weight="bold">13%</text>
    <circle cx="37" cy="285" r="4.5" fill="#E8A87C"/><text x="47" y="289" font-family="'Courier New', monospace" font-size="10" fill="#F5E6D3">Human <tspan fill="#9B8672">87%</tspan></text>
    <circle cx="167" cy="285" r="4.5" fill="#D97757"/><text x="177" y="289" font-family="'Courier New', monospace" font-size="10" fill="#F5E6D3">Claude <tspan fill="#9B8672">13%</tspan></text>

  <!-- ═══ DIVIDER ═══ -->
  <line x1="28" y1="302" x2="822" y2="302" stroke="#3D3028" stroke-width="0.5" stroke-dasharray="3,3"/>

  <!-- ═══════════════ COMMIT LOG ═══════════════ -->
  <text x="32" y="320" font-family="'Courier New', monospace" font-size="12" fill="#C4703E" filter="url(#glow)">$ git log --oneline</text>
  <rect x="235" y="309" width="8" height="14" fill="#D97757">
    <animate attributeName="opacity" values="1;0;1" dur="1s" repeatCount="indefinite"/>
  </rect>
  <text x="40" y="340" font-family="'Courier New', monospace" font-size="11" fill="#9B8672" opacity="0.4">[ no recent public commits ]</text>

  <!-- ═══ DIVIDER ═══ -->
  <line x1="28" y1="520" x2="822" y2="520" stroke="#3D3028" stroke-width="0.5" stroke-dasharray="3,3"/>

  <!-- ═══════════════ LANGUAGES ═══════════════ -->
  <text x="32" y="536" font-family="'Courier New', monospace" font-size="12" fill="#D97757" filter="url(#glow)">$ tokei --sort code</text>
  <circle cx="45" cy="545" r="4.5" fill="#427819"/><text x="56" y="550" font-family="'Courier New', monospace" font-size="10" fill="#F5E6D3">Makefile</text><rect x="160" y="538" width="150" height="12" fill="#3D3028" rx="5"/><rect x="160" y="538" width="74" height="12" fill="#427819" rx="5" filter="url(#glow2)"/><text x="318" y="550" font-family="'Courier New', monospace" font-size="10" fill="#9B8672">46.7%</text>
      <circle cx="45" cy="569" r="4.5" fill="#dea584"/><text x="56" y="574" font-family="'Courier New', monospace" font-size="10" fill="#F5E6D3">Rust</text><rect x="160" y="562" width="150" height="12" fill="#3D3028" rx="5"/><rect x="160" y="562" width="54" height="12" fill="#dea584" rx="5" filter="url(#glow2)"/><text x="318" y="574" font-family="'Courier New', monospace" font-size="10" fill="#9B8672">34.4%</text>
      <circle cx="45" cy="593" r="4.5" fill="#3178c6"/><text x="56" y="598" font-family="'Courier New', monospace" font-size="10" fill="#F5E6D3">TypeScript</text><rect x="160" y="586" width="150" height="12" fill="#3D3028" rx="5"/><rect x="160" y="586" width="12" height="12" fill="#3178c6" rx="5" filter="url(#glow2)"/><text x="318" y="598" font-family="'Courier New', monospace" font-size="10" fill="#9B8672">7.7%</text>
      <circle cx="435" cy="545" r="4.5" fill="#f34b7d"/><text x="446" y="550" font-family="'Courier New', monospace" font-size="10" fill="#F5E6D3">C++</text><rect x="550" y="538" width="150" height="12" fill="#3D3028" rx="5"/><rect x="550" y="538" width="6" height="12" fill="#f34b7d" rx="5" filter="url(#glow2)"/><text x="708" y="550" font-family="'Courier New', monospace" font-size="10" fill="#9B8672">3.9%</text>
      <circle cx="435" cy="569" r="4.5" fill="#663399"/><text x="446" y="574" font-family="'Courier New', monospace" font-size="10" fill="#F5E6D3">CSS</text><rect x="550" y="562" width="150" height="12" fill="#3D3028" rx="5"/><rect x="550" y="562" width="3" height="12" fill="#663399" rx="5" filter="url(#glow2)"/><text x="708" y="574" font-family="'Courier New', monospace" font-size="10" fill="#9B8672">2.3%</text>
      <circle cx="435" cy="593" r="4.5" fill="#F05138"/><text x="446" y="598" font-family="'Courier New', monospace" font-size="10" fill="#F5E6D3">Swift</text><rect x="550" y="586" width="150" height="12" fill="#3D3028" rx="5"/><rect x="550" y="586" width="3" height="12" fill="#F05138" rx="5" filter="url(#glow2)"/><text x="708" y="598" font-family="'Courier New', monospace" font-size="10" fill="#9B8672">1.7%</text>

  <!-- ═══ FOOTER ═══ -->
  <line x1="12" y1="592" x2="838" y2="592" stroke="#3D3028" stroke-width="0.3"/>
  <circle cx="370" cy="606" r="6" fill="#211A14" stroke="#3D3028" stroke-width="1"/>
  <text x="370" y="609" font-family="'Courier New', monospace" font-size="7" fill="#9B8672" text-anchor="middle">A</text>
  <circle cx="425" cy="606" r="6" fill="#211A14" stroke="#3D3028" stroke-width="1"/>
  <text x="425" y="609" font-family="'Courier New', monospace" font-size="7" fill="#9B8672" text-anchor="middle">B</text>
  <circle cx="480" cy="606" r="6" fill="#211A14" stroke="#3D3028" stroke-width="1"/>
  <text x="480" y="609" font-family="'Courier New', monospace" font-size="7" fill="#9B8672" text-anchor="middle">C</text>

  <g opacity="0.3"><path fill="#3D2415"><animate attributeName="d" dur="8s" repeatCount="indefinite" values="M0,590 C100,582 200,598 300,590 C400,582 500,600 600,590 C700,582 750,595 850,590 L850,620 L0,620 Z;M0,595 C100,602 200,585 300,595 C400,602 500,585 600,595 C700,602 750,590 850,595 L850,620 L0,620 Z;M0,590 C100,582 200,598 300,590 C400,582 500,600 600,590 C700,582 750,595 850,590 L850,620 L0,620 Z"/></path><path fill="#5A3520"><animate attributeName="d" dur="5s" repeatCount="indefinite" values="M0,600 C140,606 280,594 420,600 C560,606 700,594 850,602 L850,620 L0,620 Z;M0,602 C140,594 280,608 420,600 C560,594 700,606 850,598 L850,620 L0,620 Z;M0,600 C140,606 280,594 420,600 C560,606 700,594 850,602 L850,620 L0,620 Z"/></path></g>

  <!-- CRT scan line -->
  <rect width="850" height="2" fill="#F5E6D3" opacity="0.008">
    <animateTransform attributeName="transform" type="translate" from="0 -2" to="0 620" dur="8s" repeatCount="indefinite"/>
  </rect>

  <text x="822" y="612" font-family="'Courier New', monospace" font-size="8" fill="#3D3028" text-anchor="end">2026-02-25 08:37 UTC</text>
</svg>