<svg xmlns="http://www.w3.org/2000/svg" width="800" height="440" viewBox="0 0 800 440">
  <defs>
    <style>
      .eye  { animation: blink 4s step-end infinite; }
      .pet  { animation: float 3s ease-in-out infinite; }
      @keyframes blink  { 0%,92% { opacity:1 } 93%,97% { opacity:0 } 98% { opacity:1 } }
      @keyframes float  { 0%,100% { transform:translateY(0) } 50% { transform:translateY(-5px) } }
    </style>
    <!-- animated gradient border -->
    <linearGradient id="grd" x1="0%" y1="0%" x2="100%" y2="100%">
      <stop offset="0%"><animate attributeName="stop-color" values="#39d353;#1f6feb;#bc8cff;#f78166;#39d353" dur="10s" repeatCount="indefinite"/></stop>
      <stop offset="50%"><animate attributeName="stop-color" values="#1f6feb;#bc8cff;#f78166;#39d353;#1f6feb" dur="10s" repeatCount="indefinite"/></stop>
      <stop offset="100%"><animate attributeName="stop-color" values="#bc8cff;#f78166;#39d353;#1f6feb;#bc8cff" dur="10s" repeatCount="indefinite"/></stop>
    </linearGradient>
    <!-- glow filters -->
    <filter id="glow"><feGaussianBlur stdDeviation="3" result="b"/><feMerge><feMergeNode in="b"/><feMergeNode in="SourceGraphic"/></feMerge></filter>
    <filter id="glow2"><feGaussianBlur stdDeviation="1.5" result="b"/><feMerge><feMergeNode in="b"/><feMergeNode in="SourceGraphic"/></feMerge></filter>
    <!-- bar gradients -->
    <linearGradient id="hpg"><stop offset="0%" stop-color="#39d353"/><stop offset="100%" stop-color="#7ee787"/></linearGradient>
    <linearGradient id="xpg"><stop offset="0%" stop-color="#1f6feb"/><stop offset="100%" stop-color="#79c0ff"/></linearGradient>
  </defs>

  <!-- ═══ SHELL ═══ -->
  <rect width="800" height="440" fill="#0d1117" rx="12"/>
  <!-- animated gradient border -->
  <rect x="1" y="1" width="798" height="438" fill="none" stroke="url(#grd)" stroke-width="1.5" rx="11"/>

  <!-- screen -->
  <rect x="12" y="12" width="776" height="416" fill="#010409" rx="6"/>
  <rect x="12" y="12" width="776" height="416" fill="none" stroke="url(#grd)" stroke-width="0.5" rx="6" opacity="0.15"/>

  <!-- ═══ TITLE BAR ═══ -->
  <rect x="12" y="12" width="776" height="26" fill="#161b22" rx="6"/>
  <rect x="12" y="30" width="776" height="8" fill="#161b22"/>
  <circle cx="30" cy="25" r="4.5" fill="#ff5f57"/>
  <circle cx="48" cy="25" r="4.5" fill="#febc2e"/>
  <circle cx="66" cy="25" r="4.5" fill="#28c840"/>
  <text x="400" y="29" font-family="'Courier New', monospace" font-size="11" fill="#6e7681" text-anchor="middle">bigmacfive@github ~ dashboard.sh</text>

  <!-- ═══════════════ UPPER: PET + RINGS + HEATMAP ═══════════════ -->

  <!-- pixel pet (animated) -->
  <g class="pet"><rect x="64" y="58" width="8" height="8" fill="#39d353"/>
      <rect x="72" y="58" width="8" height="8" fill="#39d353"/>
      <rect x="80" y="58" width="8" height="8" fill="#39d353"/>
      <rect x="88" y="58" width="8" height="8" fill="#39d353"/>
      <rect x="96" y="58" width="8" height="8" fill="#39d353"/>
      <rect x="104" y="58" width="8" height="8" fill="#39d353"/>
      <rect x="56" y="66" width="8" height="8" fill="#39d353"/>
      <rect x="64" y="66" width="8" height="8" fill="#39d353"/>
      <rect x="72" y="66" width="8" height="8" fill="#39d353"/>
      <rect x="80" y="66" width="8" height="8" fill="#39d353"/>
      <rect x="88" y="66" width="8" height="8" fill="#39d353"/>
      <rect x="96" y="66" width="8" height="8" fill="#39d353"/>
      <rect x="104" y="66" width="8" height="8" fill="#39d353"/>
      <rect x="112" y="66" width="8" height="8" fill="#39d353"/>
      <rect x="48" y="74" width="8" height="8" fill="#39d353"/>
      <rect x="56" y="74" width="8" height="8" fill="#39d353"/>
      <rect x="64" y="74" width="8" height="8" fill="#0d1117" class="eye"/>
      <rect x="72" y="74" width="8" height="8" fill="#0d1117" class="eye"/>
      <rect x="80" y="74" width="8" height="8" fill="#39d353"/>
      <rect x="88" y="74" width="8" height="8" fill="#39d353"/>
      <rect x="96" y="74" width="8" height="8" fill="#0d1117" class="eye"/>
      <rect x="104" y="74" width="8" height="8" fill="#0d1117" class="eye"/>
      <rect x="112" y="74" width="8" height="8" fill="#39d353"/>
      <rect x="120" y="74" width="8" height="8" fill="#39d353"/>
      <rect x="48" y="82" width="8" height="8" fill="#39d353"/>
      <rect x="56" y="82" width="8" height="8" fill="#39d353"/>
      <rect x="64" y="82" width="8" height="8" fill="#7ee787" class="eye"/>
      <rect x="72" y="82" width="8" height="8" fill="#0d1117" class="eye"/>
      <rect x="80" y="82" width="8" height="8" fill="#39d353"/>
      <rect x="88" y="82" width="8" height="8" fill="#39d353"/>
      <rect x="96" y="82" width="8" height="8" fill="#7ee787" class="eye"/>
      <rect x="104" y="82" width="8" height="8" fill="#0d1117" class="eye"/>
      <rect x="112" y="82" width="8" height="8" fill="#39d353"/>
      <rect x="120" y="82" width="8" height="8" fill="#39d353"/>
      <rect x="48" y="90" width="8" height="8" fill="#39d353"/>
      <rect x="56" y="90" width="8" height="8" fill="#39d353"/>
      <rect x="64" y="90" width="8" height="8" fill="#39d353"/>
      <rect x="72" y="90" width="8" height="8" fill="#39d353"/>
      <rect x="80" y="90" width="8" height="8" fill="#39d353"/>
      <rect x="88" y="90" width="8" height="8" fill="#39d353"/>
      <rect x="96" y="90" width="8" height="8" fill="#39d353"/>
      <rect x="104" y="90" width="8" height="8" fill="#39d353"/>
      <rect x="112" y="90" width="8" height="8" fill="#39d353"/>
      <rect x="120" y="90" width="8" height="8" fill="#39d353"/>
      <rect x="48" y="98" width="8" height="8" fill="#39d353"/>
      <rect x="56" y="98" width="8" height="8" fill="#0d1117" class="eye"/>
      <rect x="64" y="98" width="8" height="8" fill="#39d353"/>
      <rect x="72" y="98" width="8" height="8" fill="#0d1117" class="eye"/>
      <rect x="80" y="98" width="8" height="8" fill="#0d1117" class="eye"/>
      <rect x="88" y="98" width="8" height="8" fill="#0d1117" class="eye"/>
      <rect x="96" y="98" width="8" height="8" fill="#0d1117" class="eye"/>
      <rect x="104" y="98" width="8" height="8" fill="#39d353"/>
      <rect x="112" y="98" width="8" height="8" fill="#0d1117" class="eye"/>
      <rect x="120" y="98" width="8" height="8" fill="#39d353"/>
      <rect x="56" y="106" width="8" height="8" fill="#39d353"/>
      <rect x="64" y="106" width="8" height="8" fill="#39d353"/>
      <rect x="72" y="106" width="8" height="8" fill="#39d353"/>
      <rect x="80" y="106" width="8" height="8" fill="#39d353"/>
      <rect x="88" y="106" width="8" height="8" fill="#39d353"/>
      <rect x="96" y="106" width="8" height="8" fill="#39d353"/>
      <rect x="104" y="106" width="8" height="8" fill="#39d353"/>
      <rect x="112" y="106" width="8" height="8" fill="#39d353"/>
      <rect x="56" y="114" width="8" height="8" fill="#39d353"/>
      <rect x="64" y="114" width="8" height="8" fill="#39d353"/>
      <rect x="72" y="114" width="8" height="8" fill="#39d353"/>
      <rect x="80" y="114" width="8" height="8" fill="#39d353"/>
      <rect x="88" y="114" width="8" height="8" fill="#39d353"/>
      <rect x="96" y="114" width="8" height="8" fill="#39d353"/>
      <rect x="104" y="114" width="8" height="8" fill="#39d353"/>
      <rect x="112" y="114" width="8" height="8" fill="#39d353"/>
      <rect x="56" y="122" width="8" height="8" fill="#39d353"/>
      <rect x="80" y="122" width="8" height="8" fill="#39d353"/>
      <rect x="88" y="122" width="8" height="8" fill="#39d353"/>
      <rect x="112" y="122" width="8" height="8" fill="#39d353"/></g>
  <!-- sparkle particles -->
  <circle cx="48" cy="41" r="2" fill="#1f6feb" opacity="0"><animate attributeName="opacity" values="0;0.9;0" dur="2.6s" begin="0.9s" repeatCount="indefinite"/></circle>
    <circle cx="46" cy="124" r="2" fill="#7ee787" opacity="0"><animate attributeName="opacity" values="0;0.9;0" dur="3.8s" begin="0.3s" repeatCount="indefinite"/></circle>
    <circle cx="28" cy="41" r="1" fill="#39d353" opacity="0"><animate attributeName="opacity" values="0;0.9;0" dur="2.4s" begin="2.0s" repeatCount="indefinite"/></circle>
    <circle cx="70" cy="129" r="2" fill="#7ee787" opacity="0"><animate attributeName="opacity" values="0;0.9;0" dur="3.4s" begin="1.7s" repeatCount="indefinite"/></circle>
    <circle cx="91" cy="141" r="1" fill="#7ee787" opacity="0"><animate attributeName="opacity" values="0;0.9;0" dur="3.5s" begin="0.6s" repeatCount="indefinite"/></circle>
    <circle cx="107" cy="73" r="1" fill="#39d353" opacity="0"><animate attributeName="opacity" values="0;0.9;0" dur="2.4s" begin="3.1s" repeatCount="indefinite"/></circle>
    <circle cx="43" cy="86" r="1" fill="#7ee787" opacity="0"><animate attributeName="opacity" values="0;0.9;0" dur="2.7s" begin="1.4s" repeatCount="indefinite"/></circle>
    <circle cx="31" cy="131" r="1.5" fill="#7ee787" opacity="0"><animate attributeName="opacity" values="0;0.9;0" dur="3.1s" begin="3.9s" repeatCount="indefinite"/></circle>
    <circle cx="40" cy="108" r="1.5" fill="#7ee787" opacity="0"><animate attributeName="opacity" values="0;0.9;0" dur="3.7s" begin="2.5s" repeatCount="indefinite"/></circle>
    <circle cx="69" cy="128" r="1" fill="#7ee787" opacity="0"><animate attributeName="opacity" values="0;0.9;0" dur="2.1s" begin="0.9s" repeatCount="indefinite"/></circle>
  <!-- pet label -->
  <text x="88" y="140" font-family="'Courier New', monospace" font-size="8" fill="#39d353" text-anchor="middle" filter="url(#glow)">&#9670; LV.8 &#9670;</text>
  <!-- HP -->
  <text x="30" y="158" font-family="'Courier New', monospace" font-size="7" fill="#39d353">HP</text>
  <rect x="48" y="150" width="110" height="7" fill="#21262d" rx="3"/>
  <rect x="48" y="150" width="1" height="7" fill="url(#hpg)" rx="3">
    <animate attributeName="opacity" values="0.85;1;0.85" dur="3s" repeatCount="indefinite"/>
  </rect>
  <!-- XP -->
  <text x="30" y="170" font-family="'Courier New', monospace" font-size="7" fill="#1f6feb">XP</text>
  <rect x="48" y="162" width="110" height="7" fill="#21262d" rx="3"/>
  <rect x="48" y="162" width="14" height="7" fill="url(#xpg)" rx="3"/>

  <!-- rings: commits / streak / followers -->
  <circle cx="220" cy="100" r="32" stroke="#21262d" stroke-width="5" fill="none"/><circle cx="220" cy="100" r="32" stroke="#39d353" stroke-width="5" fill="none" stroke-dasharray="201.1" stroke-dashoffset="201.1" stroke-linecap="round" transform="rotate(-90 220 100)" filter="url(#glow2)"><animate attributeName="stroke-dashoffset" from="201.1" to="200.0" dur="1.5s" begin="0.2s" fill="freeze" calcMode="spline" keySplines="0.4 0 0.2 1"/></circle><text x="220" y="105" text-anchor="middle" font-family="'Courier New', monospace" font-size="13" fill="#e6edf3" font-weight="bold" opacity="0"><animate attributeName="opacity" from="0" to="1" dur="0.5s" begin="1.0s" fill="freeze"/>11</text><text x="220" y="148" text-anchor="middle" font-family="'Courier New', monospace" font-size="8" fill="#6e7681">commits</text>
  <circle cx="310" cy="100" r="32" stroke="#21262d" stroke-width="5" fill="none"/><circle cx="310" cy="100" r="32" stroke="#1f6feb" stroke-width="5" fill="none" stroke-dasharray="201.1" stroke-dashoffset="201.1" stroke-linecap="round" transform="rotate(-90 310 100)" filter="url(#glow2)"><animate attributeName="stroke-dashoffset" from="201.1" to="174.3" dur="1.5s" begin="0.5s" fill="freeze" calcMode="spline" keySplines="0.4 0 0.2 1"/></circle><text x="310" y="105" text-anchor="middle" font-family="'Courier New', monospace" font-size="13" fill="#e6edf3" font-weight="bold" opacity="0"><animate attributeName="opacity" from="0" to="1" dur="0.5s" begin="1.3s" fill="freeze"/>4d</text><text x="310" y="148" text-anchor="middle" font-family="'Courier New', monospace" font-size="8" fill="#6e7681">streak</text>
  <circle cx="400" cy="100" r="32" stroke="#21262d" stroke-width="5" fill="none"/><circle cx="400" cy="100" r="32" stroke="#bc8cff" stroke-width="5" fill="none" stroke-dasharray="201.1" stroke-dashoffset="201.1" stroke-linecap="round" transform="rotate(-90 400 100)" filter="url(#glow2)"><animate attributeName="stroke-dashoffset" from="201.1" to="170.9" dur="1.5s" begin="0.8s" fill="freeze" calcMode="spline" keySplines="0.4 0 0.2 1"/></circle><text x="400" y="105" text-anchor="middle" font-family="'Courier New', monospace" font-size="13" fill="#e6edf3" font-weight="bold" opacity="0"><animate attributeName="opacity" from="0" to="1" dur="0.5s" begin="1.6s" fill="freeze"/>15</text><text x="400" y="148" text-anchor="middle" font-family="'Courier New', monospace" font-size="8" fill="#6e7681">followers</text>

  <!-- stats labels under rings -->
  <text x="220" y="150" text-anchor="middle" font-family="'Courier New', monospace" font-size="7" fill="#6e7681">stars 1</text>
  <text x="310" y="150" text-anchor="middle" font-family="'Courier New', monospace" font-size="7" fill="#6e7681">repos 10</text>
  <text x="400" y="150" text-anchor="middle" font-family="'Courier New', monospace" font-size="7" fill="#6e7681">joined 8y</text>

  <!-- divider -->
  <line x1="450" y1="44" x2="450" y2="180" stroke="#21262d" stroke-width="0.5" opacity="0.5"/>

  <!-- CONTRIBUTION HEATMAP -->
  <text x="470" y="54" font-family="'Courier New', monospace" font-size="9" fill="#39d353" filter="url(#glow2)">contributions</text>
  <rect x="470" y="62" width="7" height="7" fill="#161b22" rx="1.5"/>
      <rect x="470" y="71" width="7" height="7" fill="#006d32" rx="1.5"/>
      <rect x="470" y="80" width="7" height="7" fill="#161b22" rx="1.5"/>
      <rect x="470" y="89" width="7" height="7" fill="#161b22" rx="1.5"/>
      <rect x="470" y="98" width="7" height="7" fill="#161b22" rx="1.5"/>
      <rect x="470" y="107" width="7" height="7" fill="#161b22" rx="1.5"/>
      <rect x="470" y="116" width="7" height="7" fill="#161b22" rx="1.5"/>
      <rect x="479" y="62" width="7" height="7" fill="#161b22" rx="1.5"/>
      <rect x="479" y="71" width="7" height="7" fill="#0e4429" rx="1.5"/>
      <rect x="479" y="80" width="7" height="7" fill="#26a641" rx="1.5"/>
      <rect x="479" y="89" width="7" height="7" fill="#161b22" rx="1.5"/>
      <rect x="479" y="98" width="7" height="7" fill="#161b22" rx="1.5"/>
      <rect x="479" y="107" width="7" height="7" fill="#161b22" rx="1.5"/>
      <rect x="479" y="116" width="7" height="7" fill="#161b22" rx="1.5"/>
      <rect x="488" y="62" width="7" height="7" fill="#161b22" rx="1.5"/>
      <rect x="488" y="71" width="7" height="7" fill="#161b22" rx="1.5"/>
      <rect x="488" y="80" width="7" height="7" fill="#161b22" rx="1.5"/>
      <rect x="488" y="89" width="7" height="7" fill="#161b22" rx="1.5"/>
      <rect x="488" y="98" width="7" height="7" fill="#161b22" rx="1.5"/>
      <rect x="488" y="107" width="7" height="7" fill="#161b22" rx="1.5"/>
      <rect x="488" y="116" width="7" height="7" fill="#161b22" rx="1.5"/>
      <rect x="497" y="62" width="7" height="7" fill="#161b22" rx="1.5"/>
      <rect x="497" y="71" width="7" height="7" fill="#0e4429" rx="1.5"/>
      <rect x="497" y="80" width="7" height="7" fill="#0e4429" rx="1.5"/>
      <rect x="497" y="89" width="7" height="7" fill="#161b22" rx="1.5"/>
      <rect x="497" y="98" width="7" height="7" fill="#006d32" rx="1.5"/>
      <rect x="497" y="107" width="7" height="7" fill="#006d32" rx="1.5"/>
      <rect x="497" y="116" width="7" height="7" fill="#26a641" rx="1.5"/>
      <rect x="506" y="62" width="7" height="7" fill="#161b22" rx="1.5"/>
      <rect x="506" y="71" width="7" height="7" fill="#26a641" rx="1.5"/>
      <rect x="506" y="80" width="7" height="7" fill="#161b22" rx="1.5"/>
      <rect x="506" y="89" width="7" height="7" fill="#161b22" rx="1.5"/>
      <rect x="506" y="98" width="7" height="7" fill="#161b22" rx="1.5"/>
      <rect x="506" y="107" width="7" height="7" fill="#0e4429" rx="1.5"/>
      <rect x="506" y="116" width="7" height="7" fill="#26a641" rx="1.5"/>
      <rect x="515" y="62" width="7" height="7" fill="#26a641" rx="1.5"/>
      <rect x="515" y="71" width="7" height="7" fill="#161b22" rx="1.5"/>
      <rect x="515" y="80" width="7" height="7" fill="#39d353" rx="1.5"/>
      <rect x="515" y="89" width="7" height="7" fill="#39d353" rx="1.5"/>
      <rect x="515" y="98" width="7" height="7" fill="#0e4429" rx="1.5"/>
      <rect x="515" y="107" width="7" height="7" fill="#161b22" rx="1.5"/>
      <rect x="515" y="116" width="7" height="7" fill="#26a641" rx="1.5"/>
      <rect x="524" y="62" width="7" height="7" fill="#161b22" rx="1.5"/>
      <rect x="524" y="71" width="7" height="7" fill="#39d353" rx="1.5"/>
      <rect x="524" y="80" width="7" height="7" fill="#161b22" rx="1.5"/>
      <rect x="524" y="89" width="7" height="7" fill="#161b22" rx="1.5"/>
      <rect x="524" y="98" width="7" height="7" fill="#161b22" rx="1.5"/>
      <rect x="524" y="107" width="7" height="7" fill="#161b22" rx="1.5"/>
      <rect x="524" y="116" width="7" height="7" fill="#161b22" rx="1.5"/>
      <rect x="533" y="62" width="7" height="7" fill="#161b22" rx="1.5"/>
      <rect x="533" y="71" width="7" height="7" fill="#006d32" rx="1.5"/>
      <rect x="533" y="80" width="7" height="7" fill="#39d353" rx="1.5"/>
      <rect x="533" y="89" width="7" height="7" fill="#39d353" rx="1.5"/>
      <rect x="533" y="98" width="7" height="7" fill="#39d353" rx="1.5"/>
      <rect x="533" y="107" width="7" height="7" fill="#161b22" rx="1.5"/>
      <rect x="533" y="116" width="7" height="7" fill="#161b22" rx="1.5"/>
      <rect x="542" y="62" width="7" height="7" fill="#39d353" rx="1.5"/>
      <rect x="542" y="71" width="7" height="7" fill="#26a641" rx="1.5"/>
      <rect x="542" y="80" width="7" height="7" fill="#0e4429" rx="1.5"/>
      <rect x="542" y="89" width="7" height="7" fill="#39d353" rx="1.5"/>
      <rect x="542" y="98" width="7" height="7" fill="#006d32" rx="1.5"/>
      <rect x="542" y="107" width="7" height="7" fill="#0e4429" rx="1.5"/>
      <rect x="542" y="116" width="7" height="7" fill="#161b22" rx="1.5"/>
      <rect x="551" y="62" width="7" height="7" fill="#161b22" rx="1.5"/>
      <rect x="551" y="71" width="7" height="7" fill="#161b22" rx="1.5"/>
      <rect x="551" y="80" width="7" height="7" fill="#26a641" rx="1.5"/>
      <rect x="551" y="89" width="7" height="7" fill="#0e4429" rx="1.5"/>
      <rect x="551" y="98" width="7" height="7" fill="#161b22" rx="1.5"/>
      <rect x="551" y="107" width="7" height="7" fill="#161b22" rx="1.5"/>
      <rect x="551" y="116" width="7" height="7" fill="#161b22" rx="1.5"/>
      <rect x="560" y="62" width="7" height="7" fill="#161b22" rx="1.5"/>
      <rect x="560" y="71" width="7" height="7" fill="#161b22" rx="1.5"/>
      <rect x="560" y="80" width="7" height="7" fill="#161b22" rx="1.5"/>
      <rect x="560" y="89" width="7" height="7" fill="#161b22" rx="1.5"/>
      <rect x="560" y="98" width="7" height="7" fill="#161b22" rx="1.5"/>
      <rect x="560" y="107" width="7" height="7" fill="#161b22" rx="1.5"/>
      <rect x="560" y="116" width="7" height="7" fill="#161b22" rx="1.5"/>
      <rect x="569" y="62" width="7" height="7" fill="#161b22" rx="1.5"/>
      <rect x="569" y="71" width="7" height="7" fill="#161b22" rx="1.5"/>
      <rect x="569" y="80" width="7" height="7" fill="#161b22" rx="1.5"/>
      <rect x="569" y="89" width="7" height="7" fill="#161b22" rx="1.5"/>
      <rect x="569" y="98" width="7" height="7" fill="#161b22" rx="1.5"/>
      <rect x="569" y="107" width="7" height="7" fill="#161b22" rx="1.5"/>
      <rect x="569" y="116" width="7" height="7" fill="#26a641" rx="1.5"/>
      <rect x="578" y="62" width="7" height="7" fill="#161b22" rx="1.5"/>
      <rect x="578" y="71" width="7" height="7" fill="#161b22" rx="1.5"/>
      <rect x="578" y="80" width="7" height="7" fill="#161b22" rx="1.5"/>
      <rect x="578" y="89" width="7" height="7" fill="#0e4429" rx="1.5"/>
      <rect x="578" y="98" width="7" height="7" fill="#161b22" rx="1.5"/>
      <rect x="578" y="107" width="7" height="7" fill="#161b22" rx="1.5"/>
      <rect x="578" y="116" width="7" height="7" fill="#0e4429" rx="1.5"/>
      <rect x="587" y="62" width="7" height="7" fill="#006d32" rx="1.5"/>
      <rect x="587" y="71" width="7" height="7" fill="#0e4429" rx="1.5"/>
      <rect x="587" y="80" width="7" height="7" fill="#006d32" rx="1.5"/>
      <rect x="587" y="89" width="7" height="7" fill="#006d32" rx="1.5"/>
      <rect x="587" y="98" width="7" height="7" fill="#006d32" rx="1.5"/>
      <rect x="587" y="107" width="7" height="7" fill="#39d353" rx="1.5"/>
      <rect x="587" y="116" width="7" height="7" fill="#39d353" rx="1.5"/>
      <rect x="596" y="62" width="7" height="7" fill="#39d353" rx="1.5"/>
      <rect x="596" y="71" width="7" height="7" fill="#161b22" rx="1.5"/>
      <rect x="596" y="80" width="7" height="7" fill="#161b22" rx="1.5"/>
      <rect x="596" y="89" width="7" height="7" fill="#0e4429" rx="1.5"/>
      <rect x="596" y="98" width="7" height="7" fill="#161b22" rx="1.5"/>
      <rect x="596" y="107" width="7" height="7" fill="#161b22" rx="1.5"/>
      <rect x="596" y="116" width="7" height="7" fill="#161b22" rx="1.5"/>
      <rect x="605" y="62" width="7" height="7" fill="#161b22" rx="1.5"/>
      <rect x="605" y="71" width="7" height="7" fill="#161b22" rx="1.5"/>
      <rect x="605" y="80" width="7" height="7" fill="#26a641" rx="1.5"/>
      <rect x="605" y="89" width="7" height="7" fill="#161b22" rx="1.5"/>
      <rect x="605" y="98" width="7" height="7" fill="#161b22" rx="1.5"/>
      <rect x="605" y="107" width="7" height="7" fill="#161b22" rx="1.5"/>
      <rect x="605" y="116" width="7" height="7" fill="#161b22" rx="1.5"/>
      <rect x="614" y="62" width="7" height="7" fill="#161b22" rx="1.5"/>
      <rect x="614" y="71" width="7" height="7" fill="#161b22" rx="1.5"/>
      <rect x="614" y="80" width="7" height="7" fill="#161b22" rx="1.5"/>
      <rect x="614" y="89" width="7" height="7" fill="#26a641" rx="1.5"/>
      <rect x="614" y="98" width="7" height="7" fill="#006d32" rx="1.5"/>
      <rect x="614" y="107" width="7" height="7" fill="#0e4429" rx="1.5"/>
      <rect x="614" y="116" width="7" height="7" fill="#161b22" rx="1.5"/>
      <rect x="623" y="62" width="7" height="7" fill="#0e4429" rx="1.5"/>
      <rect x="623" y="71" width="7" height="7" fill="#0e4429" rx="1.5"/>
      <rect x="623" y="80" width="7" height="7" fill="#161b22" rx="1.5"/>
      <rect x="623" y="89" width="7" height="7" fill="#161b22" rx="1.5"/>
      <rect x="623" y="98" width="7" height="7" fill="#161b22" rx="1.5"/>
      <rect x="623" y="107" width="7" height="7" fill="#0e4429" rx="1.5"/>
      <rect x="623" y="116" width="7" height="7" fill="#0e4429" rx="1.5"/>
      <rect x="632" y="62" width="7" height="7" fill="#161b22" rx="1.5"/>
      <rect x="632" y="71" width="7" height="7" fill="#39d353" rx="1.5"/>
      <rect x="632" y="80" width="7" height="7" fill="#161b22" rx="1.5"/>
      <rect x="632" y="89" width="7" height="7" fill="#161b22" rx="1.5"/>
      <rect x="632" y="98" width="7" height="7" fill="#0e4429" rx="1.5"/>
      <rect x="632" y="107" width="7" height="7" fill="#26a641" rx="1.5"/>
      <rect x="632" y="116" width="7" height="7" fill="#161b22" rx="1.5"/>
      <rect x="641" y="62" width="7" height="7" fill="#006d32" rx="1.5"/>
      <rect x="641" y="71" width="7" height="7" fill="#0e4429" rx="1.5"/>
      <rect x="641" y="80" width="7" height="7" fill="#26a641" rx="1.5"/>
      <rect x="641" y="89" width="7" height="7" fill="#006d32" rx="1.5"/>
  <!-- legend -->
  <text x="470" y="145" font-family="'Courier New', monospace" font-size="6" fill="#6e7681">less</text>
  <rect x="492" y="138" width="7" height="7" fill="#161b22" rx="1"/>
  <rect x="501" y="138" width="7" height="7" fill="#0e4429" rx="1"/>
  <rect x="510" y="138" width="7" height="7" fill="#006d32" rx="1"/>
  <rect x="519" y="138" width="7" height="7" fill="#26a641" rx="1"/>
  <rect x="528" y="138" width="7" height="7" fill="#39d353" rx="1"/>
  <text x="539" y="145" font-family="'Courier New', monospace" font-size="6" fill="#6e7681">more</text>

  <!-- ═══ HORIZONTAL DIVIDER ═══ -->
  <line x1="28" y1="185" x2="772" y2="185" stroke="#21262d" stroke-width="0.5" stroke-dasharray="3,3"/>

  <!-- ═══════════════ COMMIT LOG ═══════════════ -->
  <text x="28" y="203" font-family="'Courier New', monospace" font-size="10" fill="#f78166" filter="url(#glow)">$ git log --oneline</text>
  <!-- cursor -->
  <rect x="200" y="193" width="7" height="12" fill="#39d353">
    <animate attributeName="opacity" values="1;0;1" dur="1s" repeatCount="indefinite"/>
  </rect>
  <text x="34" y="232" font-family="'Courier New', monospace" font-size="9" fill="#6e7681" opacity="0.4">[ no recent public commits ]</text>

  <!-- ═══ HORIZONTAL DIVIDER ═══ -->
  <line x1="28" y1="345" x2="772" y2="345" stroke="#21262d" stroke-width="0.5" stroke-dasharray="3,3"/>

  <!-- ═══════════════ LANGUAGES ═══════════════ -->
  <text x="28" y="360" font-family="'Courier New', monospace" font-size="10" fill="#39d353" filter="url(#glow)">$ tokei --sort code</text>
  <circle cx="38" cy="370" r="3" fill="#427819"/><text x="46" y="374" font-family="'Courier New', monospace" font-size="8" fill="#e6edf3">Makefile</text><rect x="139" y="365" width="130" height="9" fill="#21262d" rx="4"/><rect x="139" y="365" width="60" height="9" fill="#427819" rx="4" filter="url(#glow2)"/><text x="276" y="374" font-family="'Courier New', monospace" font-size="8" fill="#6e7681">46.7%</text>
      <circle cx="38" cy="388" r="3" fill="#dea584"/><text x="46" y="392" font-family="'Courier New', monospace" font-size="8" fill="#e6edf3">Rust</text><rect x="139" y="383" width="130" height="9" fill="#21262d" rx="4"/><rect x="139" y="383" width="44" height="9" fill="#dea584" rx="4" filter="url(#glow2)"/><text x="276" y="392" font-family="'Courier New', monospace" font-size="8" fill="#6e7681">34.4%</text>
      <circle cx="38" cy="406" r="3" fill="#3178c6"/><text x="46" y="410" font-family="'Courier New', monospace" font-size="8" fill="#e6edf3">TypeScript</text><rect x="139" y="401" width="130" height="9" fill="#21262d" rx="4"/><rect x="139" y="401" width="9" height="9" fill="#3178c6" rx="4" filter="url(#glow2)"/><text x="276" y="410" font-family="'Courier New', monospace" font-size="8" fill="#6e7681">7.7%</text>
      <circle cx="408" cy="370" r="3" fill="#f34b7d"/><text x="416" y="374" font-family="'Courier New', monospace" font-size="8" fill="#e6edf3">C++</text><rect x="509" y="365" width="130" height="9" fill="#21262d" rx="4"/><rect x="509" y="365" width="5" height="9" fill="#f34b7d" rx="4" filter="url(#glow2)"/><text x="646" y="374" font-family="'Courier New', monospace" font-size="8" fill="#6e7681">3.9%</text>
      <circle cx="408" cy="388" r="3" fill="#663399"/><text x="416" y="392" font-family="'Courier New', monospace" font-size="8" fill="#e6edf3">CSS</text><rect x="509" y="383" width="130" height="9" fill="#21262d" rx="4"/><rect x="509" y="383" width="2" height="9" fill="#663399" rx="4" filter="url(#glow2)"/><text x="646" y="392" font-family="'Courier New', monospace" font-size="8" fill="#6e7681">2.3%</text>
      <circle cx="408" cy="406" r="3" fill="#F05138"/><text x="416" y="410" font-family="'Courier New', monospace" font-size="8" fill="#e6edf3">Swift</text><rect x="509" y="401" width="130" height="9" fill="#21262d" rx="4"/><rect x="509" y="401" width="2" height="9" fill="#F05138" rx="4" filter="url(#glow2)"/><text x="646" y="410" font-family="'Courier New', monospace" font-size="8" fill="#6e7681">1.7%</text>

  <!-- ═══ FOOTER ═══ -->
  <line x1="12" y1="410" x2="788" y2="410" stroke="#21262d" stroke-width="0.4"/>

  <!-- tamagotchi buttons -->
  <circle cx="345" cy="425" r="6" fill="#161b22" stroke="#21262d" stroke-width="1"/>
  <text x="345" y="428" font-family="'Courier New', monospace" font-size="6" fill="#6e7681" text-anchor="middle">A</text>
  <circle cx="400" cy="425" r="6" fill="#161b22" stroke="#21262d" stroke-width="1"/>
  <text x="400" y="428" font-family="'Courier New', monospace" font-size="6" fill="#6e7681" text-anchor="middle">B</text>
  <circle cx="455" cy="425" r="6" fill="#161b22" stroke="#21262d" stroke-width="1"/>
  <text x="455" y="428" font-family="'Courier New', monospace" font-size="6" fill="#6e7681" text-anchor="middle">C</text>

  <!-- animated wave -->
  <g opacity="0.3"><path fill="#0e4429"><animate attributeName="d" dur="8s" repeatCount="indefinite" values="M0,420 C80,412 160,428 240,418 C320,408 400,425 480,418 C560,411 640,426 720,418 C760,414 780,420 800,416 L800,440 L0,440 Z;M0,418 C80,425 160,410 240,420 C320,428 400,412 480,422 C560,428 640,414 720,422 C760,425 780,416 800,420 L800,440 L0,440 Z;M0,420 C80,412 160,428 240,418 C320,408 400,425 480,418 C560,411 640,426 720,418 C760,414 780,420 800,416 L800,440 L0,440 Z"/></path><path fill="#006d32"><animate attributeName="d" dur="6s" repeatCount="indefinite" values="M0,425 C120,418 240,430 360,422 C480,414 600,428 720,422 L800,424 L800,440 L0,440 Z;M0,422 C120,430 240,416 360,426 C480,430 600,418 720,426 L800,420 L800,440 L0,440 Z;M0,425 C120,418 240,430 360,422 C480,414 600,428 720,422 L800,424 L800,440 L0,440 Z"/></path></g>

  <!-- CRT scan line -->
  <rect width="800" height="2" fill="white" opacity="0.012">
    <animateTransform attributeName="transform" type="translate" from="0 -2" to="0 440" dur="8s" repeatCount="indefinite"/>
  </rect>

  <!-- timestamp -->
  <text x="772" y="432" font-family="'Courier New', monospace" font-size="6" fill="#21262d" text-anchor="end">2026-02-25 05:17 UTC</text>
</svg>