<svg xmlns="http://www.w3.org/2000/svg" width="850" height="520" viewBox="0 0 850 520">
  <defs>
    <style>
      .eye { animation: blink 4s step-end infinite; }
      .pet { animation: float 3s ease-in-out infinite; }
      @keyframes blink { 0%,92% { opacity:1 } 93%,97% { opacity:0 } 98% { opacity:1 } }
      @keyframes float { 0%,100% { transform:translateY(0) } 50% { transform:translateY(-6px) } }
    </style>
    <linearGradient id="grd" x1="0%" y1="0%" x2="100%" y2="100%">
      <stop offset="0%"><animate attributeName="stop-color" values="#39d353;#1f6feb;#bc8cff;#f78166;#39d353" dur="10s" repeatCount="indefinite"/></stop>
      <stop offset="50%"><animate attributeName="stop-color" values="#1f6feb;#bc8cff;#f78166;#39d353;#1f6feb" dur="10s" repeatCount="indefinite"/></stop>
      <stop offset="100%"><animate attributeName="stop-color" values="#bc8cff;#f78166;#39d353;#1f6feb;#bc8cff" dur="10s" repeatCount="indefinite"/></stop>
    </linearGradient>
    <filter id="glow"><feGaussianBlur stdDeviation="3" result="b"/><feMerge><feMergeNode in="b"/><feMergeNode in="SourceGraphic"/></feMerge></filter>
    <filter id="glow2"><feGaussianBlur stdDeviation="1.5" result="b"/><feMerge><feMergeNode in="b"/><feMergeNode in="SourceGraphic"/></feMerge></filter>
    <linearGradient id="hpg"><stop offset="0%" stop-color="#39d353"/><stop offset="100%" stop-color="#7ee787"/></linearGradient>
    <linearGradient id="xpg"><stop offset="0%" stop-color="#1f6feb"/><stop offset="100%" stop-color="#79c0ff"/></linearGradient>
  </defs>

  <!-- ═══ SHELL ═══ -->
  <rect width="850" height="520" fill="#0d1117" rx="14"/>
  <rect x="1" y="1" width="848" height="518" fill="none" stroke="url(#grd)" stroke-width="1.5" rx="13"/>

  <!-- screen -->
  <rect x="12" y="12" width="826" height="496" fill="#010409" rx="6"/>
  <rect x="12" y="12" width="826" height="496" fill="none" stroke="url(#grd)" stroke-width="0.4" rx="6" opacity="0.12"/>

  <!-- ═══ TITLE BAR ═══ -->
  <rect x="12" y="12" width="826" height="28" fill="#161b22" rx="6"/>
  <rect x="12" y="32" width="826" height="8" fill="#161b22"/>
  <circle cx="30" cy="26" r="5" fill="#ff5f57"/>
  <circle cx="50" cy="26" r="5" fill="#febc2e"/>
  <circle cx="70" cy="26" r="5" fill="#28c840"/>
  <text x="425" y="30" font-family="'Courier New', monospace" font-size="11" fill="#6e7681" text-anchor="middle">bigmacfive@github ~ dashboard.sh</text>

  <!-- ═══════════════ UPPER: PET + RINGS + HEATMAP ═══════════════ -->

  <!-- pixel pet -->
  <g class="pet"><rect x="75" y="52" width="9" height="9" fill="#39d353"/>
      <rect x="84" y="52" width="9" height="9" fill="#39d353"/>
      <rect x="93" y="52" width="9" height="9" fill="#39d353"/>
      <rect x="102" y="52" width="9" height="9" fill="#39d353"/>
      <rect x="111" y="52" width="9" height="9" fill="#39d353"/>
      <rect x="120" y="52" width="9" height="9" fill="#39d353"/>
      <rect x="57" y="61" width="9" height="9" fill="#39d353"/>
      <rect x="66" y="61" width="9" height="9" fill="#39d353"/>
      <rect x="75" y="61" width="9" height="9" fill="#39d353"/>
      <rect x="84" y="61" width="9" height="9" fill="#39d353"/>
      <rect x="93" y="61" width="9" height="9" fill="#39d353"/>
      <rect x="102" y="61" width="9" height="9" fill="#39d353"/>
      <rect x="111" y="61" width="9" height="9" fill="#39d353"/>
      <rect x="120" y="61" width="9" height="9" fill="#39d353"/>
      <rect x="129" y="61" width="9" height="9" fill="#39d353"/>
      <rect x="138" y="61" width="9" height="9" fill="#39d353"/>
      <rect x="48" y="70" width="9" height="9" fill="#39d353"/>
      <rect x="57" y="70" width="9" height="9" fill="#39d353"/>
      <rect x="66" y="70" width="9" height="9" fill="#39d353"/>
      <rect x="75" y="70" width="9" height="9" fill="#39d353"/>
      <rect x="84" y="70" width="9" height="9" fill="#39d353"/>
      <rect x="93" y="70" width="9" height="9" fill="#39d353"/>
      <rect x="102" y="70" width="9" height="9" fill="#39d353"/>
      <rect x="111" y="70" width="9" height="9" fill="#39d353"/>
      <rect x="120" y="70" width="9" height="9" fill="#39d353"/>
      <rect x="129" y="70" width="9" height="9" fill="#39d353"/>
      <rect x="138" y="70" width="9" height="9" fill="#39d353"/>
      <rect x="147" y="70" width="9" height="9" fill="#39d353"/>
      <rect x="39" y="79" width="9" height="9" fill="#39d353"/>
      <rect x="48" y="79" width="9" height="9" fill="#39d353"/>
      <rect x="57" y="79" width="9" height="9" fill="#39d353"/>
      <rect x="66" y="79" width="9" height="9" fill="#0d1117" class="eye"/>
      <rect x="75" y="79" width="9" height="9" fill="#0d1117" class="eye"/>
      <rect x="84" y="79" width="9" height="9" fill="#39d353"/>
      <rect x="93" y="79" width="9" height="9" fill="#39d353"/>
      <rect x="102" y="79" width="9" height="9" fill="#39d353"/>
      <rect x="111" y="79" width="9" height="9" fill="#39d353"/>
      <rect x="120" y="79" width="9" height="9" fill="#0d1117" class="eye"/>
      <rect x="129" y="79" width="9" height="9" fill="#0d1117" class="eye"/>
      <rect x="138" y="79" width="9" height="9" fill="#39d353"/>
      <rect x="147" y="79" width="9" height="9" fill="#39d353"/>
      <rect x="156" y="79" width="9" height="9" fill="#39d353"/>
      <rect x="39" y="88" width="9" height="9" fill="#39d353"/>
      <rect x="48" y="88" width="9" height="9" fill="#39d353"/>
      <rect x="57" y="88" width="9" height="9" fill="#39d353"/>
      <rect x="66" y="88" width="9" height="9" fill="#7ee787" class="eye"/>
      <rect x="75" y="88" width="9" height="9" fill="#0d1117" class="eye"/>
      <rect x="84" y="88" width="9" height="9" fill="#39d353"/>
      <rect x="93" y="88" width="9" height="9" fill="#39d353"/>
      <rect x="102" y="88" width="9" height="9" fill="#39d353"/>
      <rect x="111" y="88" width="9" height="9" fill="#39d353"/>
      <rect x="120" y="88" width="9" height="9" fill="#7ee787" class="eye"/>
      <rect x="129" y="88" width="9" height="9" fill="#0d1117" class="eye"/>
      <rect x="138" y="88" width="9" height="9" fill="#39d353"/>
      <rect x="147" y="88" width="9" height="9" fill="#39d353"/>
      <rect x="156" y="88" width="9" height="9" fill="#39d353"/>
      <rect x="39" y="97" width="9" height="9" fill="#39d353"/>
      <rect x="48" y="97" width="9" height="9" fill="#39d353"/>
      <rect x="57" y="97" width="9" height="9" fill="#f97583"/>
      <rect x="66" y="97" width="9" height="9" fill="#39d353"/>
      <rect x="75" y="97" width="9" height="9" fill="#39d353"/>
      <rect x="84" y="97" width="9" height="9" fill="#39d353"/>
      <rect x="93" y="97" width="9" height="9" fill="#39d353"/>
      <rect x="102" y="97" width="9" height="9" fill="#39d353"/>
      <rect x="111" y="97" width="9" height="9" fill="#39d353"/>
      <rect x="120" y="97" width="9" height="9" fill="#39d353"/>
      <rect x="129" y="97" width="9" height="9" fill="#39d353"/>
      <rect x="138" y="97" width="9" height="9" fill="#f97583"/>
      <rect x="147" y="97" width="9" height="9" fill="#39d353"/>
      <rect x="156" y="97" width="9" height="9" fill="#39d353"/>
      <rect x="39" y="106" width="9" height="9" fill="#39d353"/>
      <rect x="48" y="106" width="9" height="9" fill="#39d353"/>
      <rect x="57" y="106" width="9" height="9" fill="#39d353"/>
      <rect x="66" y="106" width="9" height="9" fill="#39d353"/>
      <rect x="75" y="106" width="9" height="9" fill="#0d1117"/>
      <rect x="84" y="106" width="9" height="9" fill="#39d353"/>
      <rect x="93" y="106" width="9" height="9" fill="#39d353"/>
      <rect x="102" y="106" width="9" height="9" fill="#39d353"/>
      <rect x="111" y="106" width="9" height="9" fill="#39d353"/>
      <rect x="120" y="106" width="9" height="9" fill="#0d1117"/>
      <rect x="129" y="106" width="9" height="9" fill="#39d353"/>
      <rect x="138" y="106" width="9" height="9" fill="#39d353"/>
      <rect x="147" y="106" width="9" height="9" fill="#39d353"/>
      <rect x="156" y="106" width="9" height="9" fill="#39d353"/>
      <rect x="39" y="115" width="9" height="9" fill="#39d353"/>
      <rect x="48" y="115" width="9" height="9" fill="#39d353"/>
      <rect x="57" y="115" width="9" height="9" fill="#39d353"/>
      <rect x="66" y="115" width="9" height="9" fill="#39d353"/>
      <rect x="75" y="115" width="9" height="9" fill="#39d353"/>
      <rect x="84" y="115" width="9" height="9" fill="#0d1117"/>
      <rect x="93" y="115" width="9" height="9" fill="#0d1117"/>
      <rect x="102" y="115" width="9" height="9" fill="#0d1117"/>
      <rect x="111" y="115" width="9" height="9" fill="#0d1117"/>
      <rect x="120" y="115" width="9" height="9" fill="#39d353"/>
      <rect x="129" y="115" width="9" height="9" fill="#39d353"/>
      <rect x="138" y="115" width="9" height="9" fill="#39d353"/>
      <rect x="147" y="115" width="9" height="9" fill="#39d353"/>
      <rect x="156" y="115" width="9" height="9" fill="#39d353"/>
      <rect x="30" y="124" width="9" height="9" fill="#39d353"/>
      <rect x="39" y="124" width="9" height="9" fill="#39d353"/>
      <rect x="48" y="124" width="9" height="9" fill="#39d353"/>
      <rect x="57" y="124" width="9" height="9" fill="#39d353"/>
      <rect x="66" y="124" width="9" height="9" fill="#39d353"/>
      <rect x="75" y="124" width="9" height="9" fill="#39d353"/>
      <rect x="84" y="124" width="9" height="9" fill="#39d353"/>
      <rect x="93" y="124" width="9" height="9" fill="#39d353"/>
      <rect x="102" y="124" width="9" height="9" fill="#39d353"/>
      <rect x="111" y="124" width="9" height="9" fill="#39d353"/>
      <rect x="120" y="124" width="9" height="9" fill="#39d353"/>
      <rect x="129" y="124" width="9" height="9" fill="#39d353"/>
      <rect x="138" y="124" width="9" height="9" fill="#39d353"/>
      <rect x="147" y="124" width="9" height="9" fill="#39d353"/>
      <rect x="156" y="124" width="9" height="9" fill="#39d353"/>
      <rect x="165" y="124" width="9" height="9" fill="#39d353"/>
      <rect x="39" y="133" width="9" height="9" fill="#39d353"/>
      <rect x="48" y="133" width="9" height="9" fill="#39d353"/>
      <rect x="57" y="133" width="9" height="9" fill="#39d353"/>
      <rect x="66" y="133" width="9" height="9" fill="#39d353"/>
      <rect x="75" y="133" width="9" height="9" fill="#39d353"/>
      <rect x="84" y="133" width="9" height="9" fill="#39d353"/>
      <rect x="93" y="133" width="9" height="9" fill="#39d353"/>
      <rect x="102" y="133" width="9" height="9" fill="#39d353"/>
      <rect x="111" y="133" width="9" height="9" fill="#39d353"/>
      <rect x="120" y="133" width="9" height="9" fill="#39d353"/>
      <rect x="129" y="133" width="9" height="9" fill="#39d353"/>
      <rect x="138" y="133" width="9" height="9" fill="#39d353"/>
      <rect x="147" y="133" width="9" height="9" fill="#39d353"/>
      <rect x="156" y="133" width="9" height="9" fill="#39d353"/>
      <rect x="48" y="142" width="9" height="9" fill="#39d353"/>
      <rect x="57" y="142" width="9" height="9" fill="#39d353"/>
      <rect x="66" y="142" width="9" height="9" fill="#39d353"/>
      <rect x="75" y="142" width="9" height="9" fill="#39d353"/>
      <rect x="84" y="142" width="9" height="9" fill="#39d353"/>
      <rect x="93" y="142" width="9" height="9" fill="#39d353"/>
      <rect x="102" y="142" width="9" height="9" fill="#39d353"/>
      <rect x="111" y="142" width="9" height="9" fill="#39d353"/>
      <rect x="120" y="142" width="9" height="9" fill="#39d353"/>
      <rect x="129" y="142" width="9" height="9" fill="#39d353"/>
      <rect x="138" y="142" width="9" height="9" fill="#39d353"/>
      <rect x="147" y="142" width="9" height="9" fill="#39d353"/>
      <rect x="57" y="151" width="9" height="9" fill="#39d353"/>
      <rect x="66" y="151" width="9" height="9" fill="#39d353"/>
      <rect x="75" y="151" width="9" height="9" fill="#39d353"/>
      <rect x="120" y="151" width="9" height="9" fill="#39d353"/>
      <rect x="129" y="151" width="9" height="9" fill="#39d353"/>
      <rect x="138" y="151" width="9" height="9" fill="#39d353"/>
      <rect x="57" y="160" width="9" height="9" fill="#39d353"/>
      <rect x="66" y="160" width="9" height="9" fill="#39d353"/>
      <rect x="129" y="160" width="9" height="9" fill="#39d353"/>
      <rect x="138" y="160" width="9" height="9" fill="#39d353"/></g>
  <circle cx="175" cy="60" r="1.0" fill="#39d353" opacity="0"><animate attributeName="opacity" values="0;0.9;0" dur="2.6s" begin="1.1s" repeatCount="indefinite"/></circle>
    <circle cx="185" cy="171" r="1.1" fill="#7ee787" opacity="0"><animate attributeName="opacity" values="0;0.9;0" dur="2.8s" begin="0.1s" repeatCount="indefinite"/></circle>
    <circle cx="71" cy="161" r="1.9" fill="#bc8cff" opacity="0"><animate attributeName="opacity" values="0;0.9;0" dur="3.1s" begin="3.6s" repeatCount="indefinite"/></circle>
    <circle cx="68" cy="146" r="1.9" fill="#7ee787" opacity="0"><animate attributeName="opacity" values="0;0.9;0" dur="3.6s" begin="0.0s" repeatCount="indefinite"/></circle>
    <circle cx="190" cy="140" r="1.5" fill="#1f6feb" opacity="0"><animate attributeName="opacity" values="0;0.9;0" dur="2.3s" begin="4.8s" repeatCount="indefinite"/></circle>
    <circle cx="38" cy="55" r="1.6" fill="#1f6feb" opacity="0"><animate attributeName="opacity" values="0;0.9;0" dur="2.7s" begin="1.7s" repeatCount="indefinite"/></circle>
    <circle cx="23" cy="149" r="1.8" fill="#1f6feb" opacity="0"><animate attributeName="opacity" values="0;0.9;0" dur="3.9s" begin="1.9s" repeatCount="indefinite"/></circle>
    <circle cx="172" cy="124" r="1.9" fill="#7ee787" opacity="0"><animate attributeName="opacity" values="0;0.9;0" dur="3.4s" begin="0.2s" repeatCount="indefinite"/></circle>
    <circle cx="86" cy="52" r="2.3" fill="#bc8cff" opacity="0"><animate attributeName="opacity" values="0;0.9;0" dur="3.7s" begin="1.9s" repeatCount="indefinite"/></circle>
    <circle cx="174" cy="125" r="1.2" fill="#39d353" opacity="0"><animate attributeName="opacity" values="0;0.9;0" dur="2.7s" begin="3.4s" repeatCount="indefinite"/></circle>
    <circle cx="167" cy="75" r="1.8" fill="#1f6feb" opacity="0"><animate attributeName="opacity" values="0;0.9;0" dur="2.5s" begin="2.3s" repeatCount="indefinite"/></circle>
    <circle cx="175" cy="174" r="1.3" fill="#39d353" opacity="0"><animate attributeName="opacity" values="0;0.9;0" dur="2.6s" begin="3.8s" repeatCount="indefinite"/></circle>
  <text x="102" y="183" font-family="'Courier New', monospace" font-size="9" fill="#39d353" text-anchor="middle" filter="url(#glow)">&#9670; LV.8 &#9670;</text>

  <!-- HP -->
  <text x="30" y="199" font-family="'Courier New', monospace" font-size="7" fill="#39d353">HP</text>
  <rect x="50" y="191" width="120" height="7" fill="#21262d" rx="3"/>
  <rect x="50" y="191" width="1" height="7" fill="url(#hpg)" rx="3">
    <animate attributeName="opacity" values="0.85;1;0.85" dur="3s" repeatCount="indefinite"/>
  </rect>
  <!-- XP -->
  <text x="30" y="211" font-family="'Courier New', monospace" font-size="7" fill="#1f6feb">XP</text>
  <rect x="50" y="203" width="120" height="7" fill="#21262d" rx="3"/>
  <rect x="50" y="203" width="15" height="7" fill="url(#xpg)" rx="3"/>

  <!-- stat rings -->
  <circle cx="244" cy="98" r="35" stroke="#21262d" stroke-width="5" fill="none"/><circle cx="244" cy="98" r="35" stroke="#39d353" stroke-width="5" fill="none" stroke-dasharray="219.9" stroke-dashoffset="219.9" stroke-linecap="round" transform="rotate(-90 244 98)" filter="url(#glow2)"><animate attributeName="stroke-dashoffset" from="219.9" to="218.6" dur="1.5s" begin="0.2s" fill="freeze" calcMode="spline" keySplines="0.4 0 0.2 1"/></circle><text x="244" y="103" text-anchor="middle" font-family="'Courier New', monospace" font-size="14" fill="#e6edf3" font-weight="bold" opacity="0"><animate attributeName="opacity" from="0" to="1" dur="0.4s" begin="1.0s" fill="freeze"/>12</text><text x="244" y="149" text-anchor="middle" font-family="'Courier New', monospace" font-size="8" fill="#6e7681">commits</text>
  <circle cx="340" cy="98" r="35" stroke="#21262d" stroke-width="5" fill="none"/><circle cx="340" cy="98" r="35" stroke="#1f6feb" stroke-width="5" fill="none" stroke-dasharray="219.9" stroke-dashoffset="219.9" stroke-linecap="round" transform="rotate(-90 340 98)" filter="url(#glow2)"><animate attributeName="stroke-dashoffset" from="219.9" to="190.6" dur="1.5s" begin="0.5s" fill="freeze" calcMode="spline" keySplines="0.4 0 0.2 1"/></circle><text x="340" y="103" text-anchor="middle" font-family="'Courier New', monospace" font-size="14" fill="#e6edf3" font-weight="bold" opacity="0"><animate attributeName="opacity" from="0" to="1" dur="0.4s" begin="1.3s" fill="freeze"/>4d</text><text x="340" y="149" text-anchor="middle" font-family="'Courier New', monospace" font-size="8" fill="#6e7681">streak</text>
  <circle cx="436" cy="98" r="35" stroke="#21262d" stroke-width="5" fill="none"/><circle cx="436" cy="98" r="35" stroke="#bc8cff" stroke-width="5" fill="none" stroke-dasharray="219.9" stroke-dashoffset="219.9" stroke-linecap="round" transform="rotate(-90 436 98)" filter="url(#glow2)"><animate attributeName="stroke-dashoffset" from="219.9" to="186.9" dur="1.5s" begin="0.8s" fill="freeze" calcMode="spline" keySplines="0.4 0 0.2 1"/></circle><text x="436" y="103" text-anchor="middle" font-family="'Courier New', monospace" font-size="14" fill="#e6edf3" font-weight="bold" opacity="0"><animate attributeName="opacity" from="0" to="1" dur="0.4s" begin="1.6s" fill="freeze"/>15</text><text x="436" y="149" text-anchor="middle" font-family="'Courier New', monospace" font-size="8" fill="#6e7681">followers</text>
  <text x="244" y="155" text-anchor="middle" font-family="'Courier New', monospace" font-size="7" fill="#6e7681">stars 1</text>
  <text x="340" y="155" text-anchor="middle" font-family="'Courier New', monospace" font-size="7" fill="#6e7681">repos 10</text>
  <text x="436" y="155" text-anchor="middle" font-family="'Courier New', monospace" font-size="7" fill="#6e7681">joined 8y</text>

  <!-- divider -->
  <line x1="480" y1="44" x2="480" y2="195" stroke="#21262d" stroke-width="0.5" opacity="0.4"/>

  <!-- heatmap -->
  <text x="500" y="54" font-family="'Courier New', monospace" font-size="9" fill="#39d353" filter="url(#glow2)">contributions</text>
  <rect x="500" y="62" width="7" height="7" fill="#161b22" rx="1.5"/>
      <rect x="500" y="71" width="7" height="7" fill="#006d32" rx="1.5"/>
      <rect x="500" y="80" width="7" height="7" fill="#161b22" rx="1.5"/>
      <rect x="500" y="89" width="7" height="7" fill="#161b22" rx="1.5"/>
      <rect x="500" y="98" width="7" height="7" fill="#161b22" rx="1.5"/>
      <rect x="500" y="107" width="7" height="7" fill="#161b22" rx="1.5"/>
      <rect x="500" y="116" width="7" height="7" fill="#161b22" rx="1.5"/>
      <rect x="509" y="62" width="7" height="7" fill="#161b22" rx="1.5"/>
      <rect x="509" y="71" width="7" height="7" fill="#0e4429" rx="1.5"/>
      <rect x="509" y="80" width="7" height="7" fill="#26a641" rx="1.5"/>
      <rect x="509" y="89" width="7" height="7" fill="#161b22" rx="1.5"/>
      <rect x="509" y="98" width="7" height="7" fill="#161b22" rx="1.5"/>
      <rect x="509" y="107" width="7" height="7" fill="#161b22" rx="1.5"/>
      <rect x="509" y="116" width="7" height="7" fill="#161b22" rx="1.5"/>
      <rect x="518" y="62" width="7" height="7" fill="#161b22" rx="1.5"/>
      <rect x="518" y="71" width="7" height="7" fill="#161b22" rx="1.5"/>
      <rect x="518" y="80" width="7" height="7" fill="#161b22" rx="1.5"/>
      <rect x="518" y="89" width="7" height="7" fill="#161b22" rx="1.5"/>
      <rect x="518" y="98" width="7" height="7" fill="#161b22" rx="1.5"/>
      <rect x="518" y="107" width="7" height="7" fill="#161b22" rx="1.5"/>
      <rect x="518" y="116" width="7" height="7" fill="#161b22" rx="1.5"/>
      <rect x="527" y="62" width="7" height="7" fill="#161b22" rx="1.5"/>
      <rect x="527" y="71" width="7" height="7" fill="#0e4429" rx="1.5"/>
      <rect x="527" y="80" width="7" height="7" fill="#0e4429" rx="1.5"/>
      <rect x="527" y="89" width="7" height="7" fill="#161b22" rx="1.5"/>
      <rect x="527" y="98" width="7" height="7" fill="#006d32" rx="1.5"/>
      <rect x="527" y="107" width="7" height="7" fill="#006d32" rx="1.5"/>
      <rect x="527" y="116" width="7" height="7" fill="#26a641" rx="1.5"/>
      <rect x="536" y="62" width="7" height="7" fill="#161b22" rx="1.5"/>
      <rect x="536" y="71" width="7" height="7" fill="#26a641" rx="1.5"/>
      <rect x="536" y="80" width="7" height="7" fill="#161b22" rx="1.5"/>
      <rect x="536" y="89" width="7" height="7" fill="#161b22" rx="1.5"/>
      <rect x="536" y="98" width="7" height="7" fill="#161b22" rx="1.5"/>
      <rect x="536" y="107" width="7" height="7" fill="#0e4429" rx="1.5"/>
      <rect x="536" y="116" width="7" height="7" fill="#26a641" rx="1.5"/>
      <rect x="545" y="62" width="7" height="7" fill="#26a641" rx="1.5"/>
      <rect x="545" y="71" width="7" height="7" fill="#161b22" rx="1.5"/>
      <rect x="545" y="80" width="7" height="7" fill="#39d353" rx="1.5"/>
      <rect x="545" y="89" width="7" height="7" fill="#39d353" rx="1.5"/>
      <rect x="545" y="98" width="7" height="7" fill="#0e4429" rx="1.5"/>
      <rect x="545" y="107" width="7" height="7" fill="#161b22" rx="1.5"/>
      <rect x="545" y="116" width="7" height="7" fill="#26a641" rx="1.5"/>
      <rect x="554" y="62" width="7" height="7" fill="#161b22" rx="1.5"/>
      <rect x="554" y="71" width="7" height="7" fill="#39d353" rx="1.5"/>
      <rect x="554" y="80" width="7" height="7" fill="#161b22" rx="1.5"/>
      <rect x="554" y="89" width="7" height="7" fill="#161b22" rx="1.5"/>
      <rect x="554" y="98" width="7" height="7" fill="#161b22" rx="1.5"/>
      <rect x="554" y="107" width="7" height="7" fill="#161b22" rx="1.5"/>
      <rect x="554" y="116" width="7" height="7" fill="#161b22" rx="1.5"/>
      <rect x="563" y="62" width="7" height="7" fill="#161b22" rx="1.5"/>
      <rect x="563" y="71" width="7" height="7" fill="#006d32" rx="1.5"/>
      <rect x="563" y="80" width="7" height="7" fill="#39d353" rx="1.5"/>
      <rect x="563" y="89" width="7" height="7" fill="#39d353" rx="1.5"/>
      <rect x="563" y="98" width="7" height="7" fill="#39d353" rx="1.5"/>
      <rect x="563" y="107" width="7" height="7" fill="#161b22" rx="1.5"/>
      <rect x="563" y="116" width="7" height="7" fill="#161b22" rx="1.5"/>
      <rect x="572" y="62" width="7" height="7" fill="#39d353" rx="1.5"/>
      <rect x="572" y="71" width="7" height="7" fill="#26a641" rx="1.5"/>
      <rect x="572" y="80" width="7" height="7" fill="#0e4429" rx="1.5"/>
      <rect x="572" y="89" width="7" height="7" fill="#39d353" rx="1.5"/>
      <rect x="572" y="98" width="7" height="7" fill="#006d32" rx="1.5"/>
      <rect x="572" y="107" width="7" height="7" fill="#0e4429" rx="1.5"/>
      <rect x="572" y="116" width="7" height="7" fill="#161b22" rx="1.5"/>
      <rect x="581" y="62" width="7" height="7" fill="#161b22" rx="1.5"/>
      <rect x="581" y="71" width="7" height="7" fill="#161b22" rx="1.5"/>
      <rect x="581" y="80" width="7" height="7" fill="#26a641" rx="1.5"/>
      <rect x="581" y="89" width="7" height="7" fill="#0e4429" rx="1.5"/>
      <rect x="581" y="98" width="7" height="7" fill="#161b22" rx="1.5"/>
      <rect x="581" y="107" width="7" height="7" fill="#161b22" rx="1.5"/>
      <rect x="581" y="116" width="7" height="7" fill="#161b22" rx="1.5"/>
      <rect x="590" y="62" width="7" height="7" fill="#161b22" rx="1.5"/>
      <rect x="590" y="71" width="7" height="7" fill="#161b22" rx="1.5"/>
      <rect x="590" y="80" width="7" height="7" fill="#161b22" rx="1.5"/>
      <rect x="590" y="89" width="7" height="7" fill="#161b22" rx="1.5"/>
      <rect x="590" y="98" width="7" height="7" fill="#161b22" rx="1.5"/>
      <rect x="590" y="107" width="7" height="7" fill="#161b22" rx="1.5"/>
      <rect x="590" y="116" width="7" height="7" fill="#161b22" rx="1.5"/>
      <rect x="599" y="62" width="7" height="7" fill="#161b22" rx="1.5"/>
      <rect x="599" y="71" width="7" height="7" fill="#161b22" rx="1.5"/>
      <rect x="599" y="80" width="7" height="7" fill="#161b22" rx="1.5"/>
      <rect x="599" y="89" width="7" height="7" fill="#161b22" rx="1.5"/>
      <rect x="599" y="98" width="7" height="7" fill="#161b22" rx="1.5"/>
      <rect x="599" y="107" width="7" height="7" fill="#161b22" rx="1.5"/>
      <rect x="599" y="116" width="7" height="7" fill="#26a641" rx="1.5"/>
      <rect x="608" y="62" width="7" height="7" fill="#161b22" rx="1.5"/>
      <rect x="608" y="71" width="7" height="7" fill="#161b22" rx="1.5"/>
      <rect x="608" y="80" width="7" height="7" fill="#161b22" rx="1.5"/>
      <rect x="608" y="89" width="7" height="7" fill="#0e4429" rx="1.5"/>
      <rect x="608" y="98" width="7" height="7" fill="#161b22" rx="1.5"/>
      <rect x="608" y="107" width="7" height="7" fill="#161b22" rx="1.5"/>
      <rect x="608" y="116" width="7" height="7" fill="#0e4429" rx="1.5"/>
      <rect x="617" y="62" width="7" height="7" fill="#006d32" rx="1.5"/>
      <rect x="617" y="71" width="7" height="7" fill="#0e4429" rx="1.5"/>
      <rect x="617" y="80" width="7" height="7" fill="#006d32" rx="1.5"/>
      <rect x="617" y="89" width="7" height="7" fill="#006d32" rx="1.5"/>
      <rect x="617" y="98" width="7" height="7" fill="#006d32" rx="1.5"/>
      <rect x="617" y="107" width="7" height="7" fill="#39d353" rx="1.5"/>
      <rect x="617" y="116" width="7" height="7" fill="#39d353" rx="1.5"/>
      <rect x="626" y="62" width="7" height="7" fill="#39d353" rx="1.5"/>
      <rect x="626" y="71" width="7" height="7" fill="#161b22" rx="1.5"/>
      <rect x="626" y="80" width="7" height="7" fill="#161b22" rx="1.5"/>
      <rect x="626" y="89" width="7" height="7" fill="#0e4429" rx="1.5"/>
      <rect x="626" y="98" width="7" height="7" fill="#161b22" rx="1.5"/>
      <rect x="626" y="107" width="7" height="7" fill="#161b22" rx="1.5"/>
      <rect x="626" y="116" width="7" height="7" fill="#161b22" rx="1.5"/>
      <rect x="635" y="62" width="7" height="7" fill="#161b22" rx="1.5"/>
      <rect x="635" y="71" width="7" height="7" fill="#161b22" rx="1.5"/>
      <rect x="635" y="80" width="7" height="7" fill="#26a641" rx="1.5"/>
      <rect x="635" y="89" width="7" height="7" fill="#161b22" rx="1.5"/>
      <rect x="635" y="98" width="7" height="7" fill="#161b22" rx="1.5"/>
      <rect x="635" y="107" width="7" height="7" fill="#161b22" rx="1.5"/>
      <rect x="635" y="116" width="7" height="7" fill="#161b22" rx="1.5"/>
      <rect x="644" y="62" width="7" height="7" fill="#161b22" rx="1.5"/>
      <rect x="644" y="71" width="7" height="7" fill="#161b22" rx="1.5"/>
      <rect x="644" y="80" width="7" height="7" fill="#161b22" rx="1.5"/>
      <rect x="644" y="89" width="7" height="7" fill="#26a641" rx="1.5"/>
      <rect x="644" y="98" width="7" height="7" fill="#006d32" rx="1.5"/>
      <rect x="644" y="107" width="7" height="7" fill="#0e4429" rx="1.5"/>
      <rect x="644" y="116" width="7" height="7" fill="#161b22" rx="1.5"/>
      <rect x="653" y="62" width="7" height="7" fill="#0e4429" rx="1.5"/>
      <rect x="653" y="71" width="7" height="7" fill="#0e4429" rx="1.5"/>
      <rect x="653" y="80" width="7" height="7" fill="#161b22" rx="1.5"/>
      <rect x="653" y="89" width="7" height="7" fill="#161b22" rx="1.5"/>
      <rect x="653" y="98" width="7" height="7" fill="#161b22" rx="1.5"/>
      <rect x="653" y="107" width="7" height="7" fill="#0e4429" rx="1.5"/>
      <rect x="653" y="116" width="7" height="7" fill="#0e4429" rx="1.5"/>
      <rect x="662" y="62" width="7" height="7" fill="#161b22" rx="1.5"/>
      <rect x="662" y="71" width="7" height="7" fill="#39d353" rx="1.5"/>
      <rect x="662" y="80" width="7" height="7" fill="#161b22" rx="1.5"/>
      <rect x="662" y="89" width="7" height="7" fill="#161b22" rx="1.5"/>
      <rect x="662" y="98" width="7" height="7" fill="#0e4429" rx="1.5"/>
      <rect x="662" y="107" width="7" height="7" fill="#26a641" rx="1.5"/>
      <rect x="662" y="116" width="7" height="7" fill="#161b22" rx="1.5"/>
      <rect x="671" y="62" width="7" height="7" fill="#006d32" rx="1.5"/>
      <rect x="671" y="71" width="7" height="7" fill="#0e4429" rx="1.5"/>
      <rect x="671" y="80" width="7" height="7" fill="#26a641" rx="1.5"/>
      <rect x="671" y="89" width="7" height="7" fill="#006d32" rx="1.5"/>
  <text x="500" y="142" font-family="'Courier New', monospace" font-size="6" fill="#6e7681">less</text>
  <rect x="522" y="134" width="7" height="7" fill="#161b22" rx="1"/>
  <rect x="531" y="134" width="7" height="7" fill="#0e4429" rx="1"/>
  <rect x="540" y="134" width="7" height="7" fill="#006d32" rx="1"/>
  <rect x="549" y="134" width="7" height="7" fill="#26a641" rx="1"/>
  <rect x="558" y="134" width="7" height="7" fill="#39d353" rx="1"/>
  <text x="569" y="142" font-family="'Courier New', monospace" font-size="6" fill="#6e7681">more</text>

  <!-- ═══ DIVIDER ═══ -->
  <line x1="28" y1="210" x2="822" y2="210" stroke="#21262d" stroke-width="0.5" stroke-dasharray="3,3"/>

  <!-- ═══════════════ AI COLLAB RATIO ═══════════════ -->
  <text x="30" y="222" font-family="'Courier New', monospace" font-size="10" fill="#39d353" filter="url(#glow2)">$ collab --ratio</text>
    <rect x="30" y="236" width="790" height="14" fill="#21262d" rx="6"/>
    <rect x="30" y="236" width="707" height="14" fill="#39d353" opacity="0.85" rx="0"><animate attributeName="width" from="0" to="707" dur="1s" begin="0.3s" fill="freeze" calcMode="spline" keySplines="0.4 0 0.2 1"/></rect>
    <rect x="737" y="236" width="83" height="14" fill="#bc8cff" opacity="0.85" rx="0"><animate attributeName="width" from="0" to="83" dur="1s" begin="0.3s" fill="freeze" calcMode="spline" keySplines="0.4 0 0.2 1"/></rect>
    <rect x="30" y="236" width="790" height="14" fill="none" stroke="#21262d" stroke-width="1" rx="6"/>
    <text x="383" y="247" text-anchor="middle" font-family="'Courier New', monospace" font-size="8" fill="#0d1117" font-weight="bold">90%</text>
    <text x="778" y="247" text-anchor="middle" font-family="'Courier New', monospace" font-size="8" fill="#0d1117" font-weight="bold">10%</text>
    <circle cx="34" cy="261" r="3.5" fill="#39d353"/><text x="42" y="264" font-family="'Courier New', monospace" font-size="8" fill="#e6edf3">Human <tspan fill="#6e7681">90%</tspan></text>
    <circle cx="144" cy="261" r="3.5" fill="#bc8cff"/><text x="152" y="264" font-family="'Courier New', monospace" font-size="8" fill="#e6edf3">Claude <tspan fill="#6e7681">10%</tspan></text>

  <!-- ═══ DIVIDER ═══ -->
  <line x1="28" y1="280" x2="822" y2="280" stroke="#21262d" stroke-width="0.5" stroke-dasharray="3,3"/>

  <!-- ═══════════════ COMMIT LOG ═══════════════ -->
  <text x="30" y="296" font-family="'Courier New', monospace" font-size="10" fill="#f78166" filter="url(#glow)">$ git log --oneline</text>
  <rect x="215" y="286" width="7" height="12" fill="#39d353">
    <animate attributeName="opacity" values="1;0;1" dur="1s" repeatCount="indefinite"/>
  </rect>
  <text x="36" y="314" font-family="'Courier New', monospace" font-size="9" fill="#6e7681" opacity="0.4">[ no recent public commits ]</text>

  <!-- ═══ DIVIDER ═══ -->
  <line x1="28" y1="418" x2="822" y2="418" stroke="#21262d" stroke-width="0.5" stroke-dasharray="3,3"/>

  <!-- ═══════════════ LANGUAGES ═══════════════ -->
  <text x="30" y="430" font-family="'Courier New', monospace" font-size="10" fill="#39d353" filter="url(#glow)">$ tokei --sort code</text>
  <circle cx="40" cy="437" r="3.5" fill="#427819"/><text x="49" y="441" font-family="'Courier New', monospace" font-size="8" fill="#e6edf3">Makefile</text><rect x="151" y="432" width="140" height="9" fill="#21262d" rx="4"/><rect x="151" y="432" width="65" height="9" fill="#427819" rx="4" filter="url(#glow2)"/><text x="298" y="441" font-family="'Courier New', monospace" font-size="8" fill="#6e7681">46.7%</text>
      <circle cx="40" cy="455" r="3.5" fill="#dea584"/><text x="49" y="459" font-family="'Courier New', monospace" font-size="8" fill="#e6edf3">Rust</text><rect x="151" y="450" width="140" height="9" fill="#21262d" rx="4"/><rect x="151" y="450" width="48" height="9" fill="#dea584" rx="4" filter="url(#glow2)"/><text x="298" y="459" font-family="'Courier New', monospace" font-size="8" fill="#6e7681">34.4%</text>
      <circle cx="40" cy="473" r="3.5" fill="#3178c6"/><text x="49" y="477" font-family="'Courier New', monospace" font-size="8" fill="#e6edf3">TypeScript</text><rect x="151" y="468" width="140" height="9" fill="#21262d" rx="4"/><rect x="151" y="468" width="10" height="9" fill="#3178c6" rx="4" filter="url(#glow2)"/><text x="298" y="477" font-family="'Courier New', monospace" font-size="8" fill="#6e7681">7.7%</text>
      <circle cx="430" cy="437" r="3.5" fill="#f34b7d"/><text x="439" y="441" font-family="'Courier New', monospace" font-size="8" fill="#e6edf3">C++</text><rect x="541" y="432" width="140" height="9" fill="#21262d" rx="4"/><rect x="541" y="432" width="5" height="9" fill="#f34b7d" rx="4" filter="url(#glow2)"/><text x="688" y="441" font-family="'Courier New', monospace" font-size="8" fill="#6e7681">3.9%</text>
      <circle cx="430" cy="455" r="3.5" fill="#663399"/><text x="439" y="459" font-family="'Courier New', monospace" font-size="8" fill="#e6edf3">CSS</text><rect x="541" y="450" width="140" height="9" fill="#21262d" rx="4"/><rect x="541" y="450" width="3" height="9" fill="#663399" rx="4" filter="url(#glow2)"/><text x="688" y="459" font-family="'Courier New', monospace" font-size="8" fill="#6e7681">2.3%</text>
      <circle cx="430" cy="473" r="3.5" fill="#F05138"/><text x="439" y="477" font-family="'Courier New', monospace" font-size="8" fill="#e6edf3">Swift</text><rect x="541" y="468" width="140" height="9" fill="#21262d" rx="4"/><rect x="541" y="468" width="2" height="9" fill="#F05138" rx="4" filter="url(#glow2)"/><text x="688" y="477" font-family="'Courier New', monospace" font-size="8" fill="#6e7681">1.7%</text>

  <!-- ═══ FOOTER ═══ -->
  <line x1="12" y1="492" x2="838" y2="492" stroke="#21262d" stroke-width="0.3"/>
  <circle cx="370" cy="506" r="6" fill="#161b22" stroke="#21262d" stroke-width="1"/>
  <text x="370" y="509" font-family="'Courier New', monospace" font-size="6" fill="#6e7681" text-anchor="middle">A</text>
  <circle cx="425" cy="506" r="6" fill="#161b22" stroke="#21262d" stroke-width="1"/>
  <text x="425" y="509" font-family="'Courier New', monospace" font-size="6" fill="#6e7681" text-anchor="middle">B</text>
  <circle cx="480" cy="506" r="6" fill="#161b22" stroke="#21262d" stroke-width="1"/>
  <text x="480" y="509" font-family="'Courier New', monospace" font-size="6" fill="#6e7681" text-anchor="middle">C</text>

  <g opacity="0.35"><path fill="#0e4429"><animate attributeName="d" dur="8s" repeatCount="indefinite" values="M0,490 C100,482 200,498 300,490 C400,482 500,500 600,490 C700,482 750,495 850,490 L850,520 L0,520 Z;M0,495 C100,502 200,485 300,495 C400,502 500,485 600,495 C700,502 750,490 850,495 L850,520 L0,520 Z;M0,490 C100,482 200,498 300,490 C400,482 500,500 600,490 C700,482 750,495 850,490 L850,520 L0,520 Z"/></path><path fill="#006d32"><animate attributeName="d" dur="5s" repeatCount="indefinite" values="M0,500 C140,506 280,494 420,500 C560,506 700,494 850,502 L850,520 L0,520 Z;M0,502 C140,494 280,508 420,500 C560,494 700,506 850,498 L850,520 L0,520 Z;M0,500 C140,506 280,494 420,500 C560,506 700,494 850,502 L850,520 L0,520 Z"/></path></g>

  <!-- CRT scan line -->
  <rect width="850" height="2" fill="white" opacity="0.012">
    <animateTransform attributeName="transform" type="translate" from="0 -2" to="0 520" dur="8s" repeatCount="indefinite"/>
  </rect>

  <text x="822" y="512" font-family="'Courier New', monospace" font-size="6" fill="#21262d" text-anchor="end">2026-02-25 08:26 UTC</text>
</svg>