<svg xmlns="http://www.w3.org/2000/svg" width="850" height="520" viewBox="0 0 850 520">
  <defs>
    <style>
      .eye { animation: blink 4s step-end infinite; }
      .pet { animation: float 3s ease-in-out infinite; }
      @keyframes blink { 0%,92% { opacity:1 } 93%,97% { opacity:0 } 98% { opacity:1 } }
      @keyframes float { 0%,100% { transform:translateY(0) } 50% { transform:translateY(-6px) } }
    </style>
    <linearGradient id="grd" x1="0%" y1="0%" x2="100%" y2="100%">
      <stop offset="0%"><animate attributeName="stop-color" values="#D97757;#E8A87C;#F5E6D3;#C4703E;#D97757" dur="10s" repeatCount="indefinite"/></stop>
      <stop offset="50%"><animate attributeName="stop-color" values="#E8A87C;#F5E6D3;#C4703E;#D97757;#E8A87C" dur="10s" repeatCount="indefinite"/></stop>
      <stop offset="100%"><animate attributeName="stop-color" values="#F5E6D3;#C4703E;#D97757;#E8A87C;#F5E6D3" dur="10s" repeatCount="indefinite"/></stop>
    </linearGradient>
    <filter id="glow"><feGaussianBlur stdDeviation="3" result="b"/><feMerge><feMergeNode in="b"/><feMergeNode in="SourceGraphic"/></feMerge></filter>
    <filter id="glow2"><feGaussianBlur stdDeviation="1.5" result="b"/><feMerge><feMergeNode in="b"/><feMergeNode in="SourceGraphic"/></feMerge></filter>
    <linearGradient id="hpg"><stop offset="0%" stop-color="#D97757"/><stop offset="100%" stop-color="#E8A87C"/></linearGradient>
    <linearGradient id="xpg"><stop offset="0%" stop-color="#C4703E"/><stop offset="100%" stop-color="#D97757"/></linearGradient>
  </defs>

  <!-- ═══ SHELL ═══ -->
  <rect width="850" height="520" fill="#1A1410" rx="14"/>
  <rect x="1" y="1" width="848" height="518" fill="none" stroke="url(#grd)" stroke-width="1.5" rx="13"/>

  <!-- screen -->
  <rect x="12" y="12" width="826" height="496" fill="#100D09" rx="6"/>
  <rect x="12" y="12" width="826" height="496" fill="none" stroke="url(#grd)" stroke-width="0.4" rx="6" opacity="0.12"/>

  <!-- ═══ TITLE BAR ═══ -->
  <rect x="12" y="12" width="826" height="28" fill="#211A14" rx="6"/>
  <rect x="12" y="32" width="826" height="8" fill="#211A14"/>
  <circle cx="30" cy="26" r="5" fill="#D97757"/>
  <circle cx="50" cy="26" r="5" fill="#E8A87C"/>
  <circle cx="70" cy="26" r="5" fill="#F5E6D3"/>
  <text x="425" y="30" font-family="'Courier New', monospace" font-size="12" fill="#9B8672" text-anchor="middle">bigmacfive@github ~ dashboard.sh</text>

  <!-- ═══════════════ UPPER: PET + RINGS + HEATMAP ═══════════════ -->

  <!-- pixel pet -->
  <g class="pet"><rect x="75" y="52" width="9" height="9" fill="#D97757"/>
      <rect x="84" y="52" width="9" height="9" fill="#D97757"/>
      <rect x="93" y="52" width="9" height="9" fill="#D97757"/>
      <rect x="102" y="52" width="9" height="9" fill="#D97757"/>
      <rect x="111" y="52" width="9" height="9" fill="#D97757"/>
      <rect x="120" y="52" width="9" height="9" fill="#D97757"/>
      <rect x="57" y="61" width="9" height="9" fill="#D97757"/>
      <rect x="66" y="61" width="9" height="9" fill="#D97757"/>
      <rect x="75" y="61" width="9" height="9" fill="#D97757"/>
      <rect x="84" y="61" width="9" height="9" fill="#D97757"/>
      <rect x="93" y="61" width="9" height="9" fill="#D97757"/>
      <rect x="102" y="61" width="9" height="9" fill="#D97757"/>
      <rect x="111" y="61" width="9" height="9" fill="#D97757"/>
      <rect x="120" y="61" width="9" height="9" fill="#D97757"/>
      <rect x="129" y="61" width="9" height="9" fill="#D97757"/>
      <rect x="138" y="61" width="9" height="9" fill="#D97757"/>
      <rect x="48" y="70" width="9" height="9" fill="#D97757"/>
      <rect x="57" y="70" width="9" height="9" fill="#D97757"/>
      <rect x="66" y="70" width="9" height="9" fill="#D97757"/>
      <rect x="75" y="70" width="9" height="9" fill="#D97757"/>
      <rect x="84" y="70" width="9" height="9" fill="#D97757"/>
      <rect x="93" y="70" width="9" height="9" fill="#D97757"/>
      <rect x="102" y="70" width="9" height="9" fill="#D97757"/>
      <rect x="111" y="70" width="9" height="9" fill="#D97757"/>
      <rect x="120" y="70" width="9" height="9" fill="#D97757"/>
      <rect x="129" y="70" width="9" height="9" fill="#D97757"/>
      <rect x="138" y="70" width="9" height="9" fill="#D97757"/>
      <rect x="147" y="70" width="9" height="9" fill="#D97757"/>
      <rect x="39" y="79" width="9" height="9" fill="#D97757"/>
      <rect x="48" y="79" width="9" height="9" fill="#D97757"/>
      <rect x="57" y="79" width="9" height="9" fill="#D97757"/>
      <rect x="66" y="79" width="9" height="9" fill="#1A1410" class="eye"/>
      <rect x="75" y="79" width="9" height="9" fill="#1A1410" class="eye"/>
      <rect x="84" y="79" width="9" height="9" fill="#D97757"/>
      <rect x="93" y="79" width="9" height="9" fill="#D97757"/>
      <rect x="102" y="79" width="9" height="9" fill="#D97757"/>
      <rect x="111" y="79" width="9" height="9" fill="#D97757"/>
      <rect x="120" y="79" width="9" height="9" fill="#1A1410" class="eye"/>
      <rect x="129" y="79" width="9" height="9" fill="#1A1410" class="eye"/>
      <rect x="138" y="79" width="9" height="9" fill="#D97757"/>
      <rect x="147" y="79" width="9" height="9" fill="#D97757"/>
      <rect x="156" y="79" width="9" height="9" fill="#D97757"/>
      <rect x="39" y="88" width="9" height="9" fill="#D97757"/>
      <rect x="48" y="88" width="9" height="9" fill="#D97757"/>
      <rect x="57" y="88" width="9" height="9" fill="#D97757"/>
      <rect x="66" y="88" width="9" height="9" fill="#E8A87C" class="eye"/>
      <rect x="75" y="88" width="9" height="9" fill="#1A1410" class="eye"/>
      <rect x="84" y="88" width="9" height="9" fill="#D97757"/>
      <rect x="93" y="88" width="9" height="9" fill="#D97757"/>
      <rect x="102" y="88" width="9" height="9" fill="#D97757"/>
      <rect x="111" y="88" width="9" height="9" fill="#D97757"/>
      <rect x="120" y="88" width="9" height="9" fill="#E8A87C" class="eye"/>
      <rect x="129" y="88" width="9" height="9" fill="#1A1410" class="eye"/>
      <rect x="138" y="88" width="9" height="9" fill="#D97757"/>
      <rect x="147" y="88" width="9" height="9" fill="#D97757"/>
      <rect x="156" y="88" width="9" height="9" fill="#D97757"/>
      <rect x="39" y="97" width="9" height="9" fill="#D97757"/>
      <rect x="48" y="97" width="9" height="9" fill="#D97757"/>
      <rect x="57" y="97" width="9" height="9" fill="#F0A88C"/>
      <rect x="66" y="97" width="9" height="9" fill="#D97757"/>
      <rect x="75" y="97" width="9" height="9" fill="#D97757"/>
      <rect x="84" y="97" width="9" height="9" fill="#D97757"/>
      <rect x="93" y="97" width="9" height="9" fill="#D97757"/>
      <rect x="102" y="97" width="9" height="9" fill="#D97757"/>
      <rect x="111" y="97" width="9" height="9" fill="#D97757"/>
      <rect x="120" y="97" width="9" height="9" fill="#D97757"/>
      <rect x="129" y="97" width="9" height="9" fill="#D97757"/>
      <rect x="138" y="97" width="9" height="9" fill="#F0A88C"/>
      <rect x="147" y="97" width="9" height="9" fill="#D97757"/>
      <rect x="156" y="97" width="9" height="9" fill="#D97757"/>
      <rect x="39" y="106" width="9" height="9" fill="#D97757"/>
      <rect x="48" y="106" width="9" height="9" fill="#D97757"/>
      <rect x="57" y="106" width="9" height="9" fill="#D97757"/>
      <rect x="66" y="106" width="9" height="9" fill="#D97757"/>
      <rect x="75" y="106" width="9" height="9" fill="#1A1410"/>
      <rect x="84" y="106" width="9" height="9" fill="#D97757"/>
      <rect x="93" y="106" width="9" height="9" fill="#D97757"/>
      <rect x="102" y="106" width="9" height="9" fill="#D97757"/>
      <rect x="111" y="106" width="9" height="9" fill="#D97757"/>
      <rect x="120" y="106" width="9" height="9" fill="#1A1410"/>
      <rect x="129" y="106" width="9" height="9" fill="#D97757"/>
      <rect x="138" y="106" width="9" height="9" fill="#D97757"/>
      <rect x="147" y="106" width="9" height="9" fill="#D97757"/>
      <rect x="156" y="106" width="9" height="9" fill="#D97757"/>
      <rect x="39" y="115" width="9" height="9" fill="#D97757"/>
      <rect x="48" y="115" width="9" height="9" fill="#D97757"/>
      <rect x="57" y="115" width="9" height="9" fill="#D97757"/>
      <rect x="66" y="115" width="9" height="9" fill="#D97757"/>
      <rect x="75" y="115" width="9" height="9" fill="#D97757"/>
      <rect x="84" y="115" width="9" height="9" fill="#1A1410"/>
      <rect x="93" y="115" width="9" height="9" fill="#1A1410"/>
      <rect x="102" y="115" width="9" height="9" fill="#1A1410"/>
      <rect x="111" y="115" width="9" height="9" fill="#1A1410"/>
      <rect x="120" y="115" width="9" height="9" fill="#D97757"/>
      <rect x="129" y="115" width="9" height="9" fill="#D97757"/>
      <rect x="138" y="115" width="9" height="9" fill="#D97757"/>
      <rect x="147" y="115" width="9" height="9" fill="#D97757"/>
      <rect x="156" y="115" width="9" height="9" fill="#D97757"/>
      <rect x="30" y="124" width="9" height="9" fill="#D97757"/>
      <rect x="39" y="124" width="9" height="9" fill="#D97757"/>
      <rect x="48" y="124" width="9" height="9" fill="#D97757"/>
      <rect x="57" y="124" width="9" height="9" fill="#D97757"/>
      <rect x="66" y="124" width="9" height="9" fill="#D97757"/>
      <rect x="75" y="124" width="9" height="9" fill="#D97757"/>
      <rect x="84" y="124" width="9" height="9" fill="#D97757"/>
      <rect x="93" y="124" width="9" height="9" fill="#D97757"/>
      <rect x="102" y="124" width="9" height="9" fill="#D97757"/>
      <rect x="111" y="124" width="9" height="9" fill="#D97757"/>
      <rect x="120" y="124" width="9" height="9" fill="#D97757"/>
      <rect x="129" y="124" width="9" height="9" fill="#D97757"/>
      <rect x="138" y="124" width="9" height="9" fill="#D97757"/>
      <rect x="147" y="124" width="9" height="9" fill="#D97757"/>
      <rect x="156" y="124" width="9" height="9" fill="#D97757"/>
      <rect x="165" y="124" width="9" height="9" fill="#D97757"/>
      <rect x="39" y="133" width="9" height="9" fill="#D97757"/>
      <rect x="48" y="133" width="9" height="9" fill="#D97757"/>
      <rect x="57" y="133" width="9" height="9" fill="#D97757"/>
      <rect x="66" y="133" width="9" height="9" fill="#D97757"/>
      <rect x="75" y="133" width="9" height="9" fill="#D97757"/>
      <rect x="84" y="133" width="9" height="9" fill="#D97757"/>
      <rect x="93" y="133" width="9" height="9" fill="#D97757"/>
      <rect x="102" y="133" width="9" height="9" fill="#D97757"/>
      <rect x="111" y="133" width="9" height="9" fill="#D97757"/>
      <rect x="120" y="133" width="9" height="9" fill="#D97757"/>
      <rect x="129" y="133" width="9" height="9" fill="#D97757"/>
      <rect x="138" y="133" width="9" height="9" fill="#D97757"/>
      <rect x="147" y="133" width="9" height="9" fill="#D97757"/>
      <rect x="156" y="133" width="9" height="9" fill="#D97757"/>
      <rect x="48" y="142" width="9" height="9" fill="#D97757"/>
      <rect x="57" y="142" width="9" height="9" fill="#D97757"/>
      <rect x="66" y="142" width="9" height="9" fill="#D97757"/>
      <rect x="75" y="142" width="9" height="9" fill="#D97757"/>
      <rect x="84" y="142" width="9" height="9" fill="#D97757"/>
      <rect x="93" y="142" width="9" height="9" fill="#D97757"/>
      <rect x="102" y="142" width="9" height="9" fill="#D97757"/>
      <rect x="111" y="142" width="9" height="9" fill="#D97757"/>
      <rect x="120" y="142" width="9" height="9" fill="#D97757"/>
      <rect x="129" y="142" width="9" height="9" fill="#D97757"/>
      <rect x="138" y="142" width="9" height="9" fill="#D97757"/>
      <rect x="147" y="142" width="9" height="9" fill="#D97757"/>
      <rect x="57" y="151" width="9" height="9" fill="#D97757"/>
      <rect x="66" y="151" width="9" height="9" fill="#D97757"/>
      <rect x="75" y="151" width="9" height="9" fill="#D97757"/>
      <rect x="120" y="151" width="9" height="9" fill="#D97757"/>
      <rect x="129" y="151" width="9" height="9" fill="#D97757"/>
      <rect x="138" y="151" width="9" height="9" fill="#D97757"/>
      <rect x="57" y="160" width="9" height="9" fill="#D97757"/>
      <rect x="66" y="160" width="9" height="9" fill="#D97757"/>
      <rect x="129" y="160" width="9" height="9" fill="#D97757"/>
      <rect x="138" y="160" width="9" height="9" fill="#D97757"/></g>
  <circle cx="175" cy="60" r="1.0" fill="#D97757" opacity="0"><animate attributeName="opacity" values="0;0.9;0" dur="2.6s" begin="1.1s" repeatCount="indefinite"/></circle>
    <circle cx="185" cy="171" r="1.1" fill="#E8A87C" opacity="0"><animate attributeName="opacity" values="0;0.9;0" dur="2.8s" begin="0.1s" repeatCount="indefinite"/></circle>
    <circle cx="71" cy="161" r="1.9" fill="#C4703E" opacity="0"><animate attributeName="opacity" values="0;0.9;0" dur="3.1s" begin="3.6s" repeatCount="indefinite"/></circle>
    <circle cx="68" cy="146" r="1.9" fill="#E8A87C" opacity="0"><animate attributeName="opacity" values="0;0.9;0" dur="3.6s" begin="0.0s" repeatCount="indefinite"/></circle>
    <circle cx="190" cy="140" r="1.5" fill="#F5E6D3" opacity="0"><animate attributeName="opacity" values="0;0.9;0" dur="2.3s" begin="4.8s" repeatCount="indefinite"/></circle>
    <circle cx="38" cy="55" r="1.6" fill="#F5E6D3" opacity="0"><animate attributeName="opacity" values="0;0.9;0" dur="2.7s" begin="1.7s" repeatCount="indefinite"/></circle>
    <circle cx="23" cy="149" r="1.8" fill="#F5E6D3" opacity="0"><animate attributeName="opacity" values="0;0.9;0" dur="3.9s" begin="1.9s" repeatCount="indefinite"/></circle>
    <circle cx="172" cy="124" r="1.9" fill="#E8A87C" opacity="0"><animate attributeName="opacity" values="0;0.9;0" dur="3.4s" begin="0.2s" repeatCount="indefinite"/></circle>
    <circle cx="86" cy="52" r="2.3" fill="#C4703E" opacity="0"><animate attributeName="opacity" values="0;0.9;0" dur="3.7s" begin="1.9s" repeatCount="indefinite"/></circle>
    <circle cx="174" cy="125" r="1.2" fill="#D97757" opacity="0"><animate attributeName="opacity" values="0;0.9;0" dur="2.7s" begin="3.4s" repeatCount="indefinite"/></circle>
    <circle cx="167" cy="75" r="1.8" fill="#F5E6D3" opacity="0"><animate attributeName="opacity" values="0;0.9;0" dur="2.5s" begin="2.3s" repeatCount="indefinite"/></circle>
    <circle cx="175" cy="174" r="1.3" fill="#D97757" opacity="0"><animate attributeName="opacity" values="0;0.9;0" dur="2.6s" begin="3.8s" repeatCount="indefinite"/></circle>
  <text x="102" y="183" font-family="'Courier New', monospace" font-size="10" fill="#D97757" text-anchor="middle" filter="url(#glow)">&#9670; LV.8 &#9670;</text>

  <!-- HP -->
  <text x="30" y="199" font-family="'Courier New', monospace" font-size="8" fill="#D97757">HP</text>
  <rect x="50" y="191" width="120" height="8" fill="#3D3028" rx="4"/>
  <rect x="50" y="191" width="1" height="8" fill="url(#hpg)" rx="4">
    <animate attributeName="opacity" values="0.85;1;0.85" dur="3s" repeatCount="indefinite"/>
  </rect>
  <!-- XP -->
  <text x="30" y="211" font-family="'Courier New', monospace" font-size="8" fill="#E8A87C">XP</text>
  <rect x="50" y="203" width="120" height="8" fill="#3D3028" rx="4"/>
  <rect x="50" y="203" width="15" height="8" fill="url(#xpg)" rx="4"/>

  <!-- stat rings -->
  <circle cx="244" cy="98" r="35" stroke="#3D3028" stroke-width="5" fill="none"/><circle cx="244" cy="98" r="35" stroke="#D97757" stroke-width="5" fill="none" stroke-dasharray="219.9" stroke-dashoffset="219.9" stroke-linecap="round" transform="rotate(-90 244 98)" filter="url(#glow2)"><animate attributeName="stroke-dashoffset" from="219.9" to="218.5" dur="1.5s" begin="0.2s" fill="freeze" calcMode="spline" keySplines="0.4 0 0.2 1"/></circle><text x="244" y="103" text-anchor="middle" font-family="'Courier New', monospace" font-size="15" fill="#F5E6D3" font-weight="bold" opacity="0"><animate attributeName="opacity" from="0" to="1" dur="0.4s" begin="1.0s" fill="freeze"/>13</text><text x="244" y="151" text-anchor="middle" font-family="'Courier New', monospace" font-size="9" fill="#9B8672">commits</text>
  <circle cx="340" cy="98" r="35" stroke="#3D3028" stroke-width="5" fill="none"/><circle cx="340" cy="98" r="35" stroke="#E8A87C" stroke-width="5" fill="none" stroke-dasharray="219.9" stroke-dashoffset="219.9" stroke-linecap="round" transform="rotate(-90 340 98)" filter="url(#glow2)"><animate attributeName="stroke-dashoffset" from="219.9" to="190.6" dur="1.5s" begin="0.5s" fill="freeze" calcMode="spline" keySplines="0.4 0 0.2 1"/></circle><text x="340" y="103" text-anchor="middle" font-family="'Courier New', monospace" font-size="15" fill="#F5E6D3" font-weight="bold" opacity="0"><animate attributeName="opacity" from="0" to="1" dur="0.4s" begin="1.3s" fill="freeze"/>4d</text><text x="340" y="151" text-anchor="middle" font-family="'Courier New', monospace" font-size="9" fill="#9B8672">streak</text>
  <circle cx="436" cy="98" r="35" stroke="#3D3028" stroke-width="5" fill="none"/><circle cx="436" cy="98" r="35" stroke="#F5E6D3" stroke-width="5" fill="none" stroke-dasharray="219.9" stroke-dashoffset="219.9" stroke-linecap="round" transform="rotate(-90 436 98)" filter="url(#glow2)"><animate attributeName="stroke-dashoffset" from="219.9" to="186.9" dur="1.5s" begin="0.8s" fill="freeze" calcMode="spline" keySplines="0.4 0 0.2 1"/></circle><text x="436" y="103" text-anchor="middle" font-family="'Courier New', monospace" font-size="15" fill="#F5E6D3" font-weight="bold" opacity="0"><animate attributeName="opacity" from="0" to="1" dur="0.4s" begin="1.6s" fill="freeze"/>15</text><text x="436" y="151" text-anchor="middle" font-family="'Courier New', monospace" font-size="9" fill="#9B8672">followers</text>
  <text x="244" y="155" text-anchor="middle" font-family="'Courier New', monospace" font-size="8" fill="#9B8672">stars 1</text>
  <text x="340" y="155" text-anchor="middle" font-family="'Courier New', monospace" font-size="8" fill="#9B8672">repos 10</text>
  <text x="436" y="155" text-anchor="middle" font-family="'Courier New', monospace" font-size="8" fill="#9B8672">joined 8y</text>

  <!-- divider -->
  <line x1="480" y1="44" x2="480" y2="195" stroke="#3D3028" stroke-width="0.5" opacity="0.4"/>

  <!-- heatmap -->
  <text x="500" y="54" font-family="'Courier New', monospace" font-size="10" fill="#D97757" filter="url(#glow2)">contributions</text>
  <rect x="500" y="62" width="7" height="7" fill="#211A14" rx="1.5"/>
      <rect x="500" y="71" width="7" height="7" fill="#7A4528" rx="1.5"/>
      <rect x="500" y="80" width="7" height="7" fill="#211A14" rx="1.5"/>
      <rect x="500" y="89" width="7" height="7" fill="#211A14" rx="1.5"/>
      <rect x="500" y="98" width="7" height="7" fill="#211A14" rx="1.5"/>
      <rect x="500" y="107" width="7" height="7" fill="#211A14" rx="1.5"/>
      <rect x="500" y="116" width="7" height="7" fill="#211A14" rx="1.5"/>
      <rect x="509" y="62" width="7" height="7" fill="#211A14" rx="1.5"/>
      <rect x="509" y="71" width="7" height="7" fill="#4A2C1A" rx="1.5"/>
      <rect x="509" y="80" width="7" height="7" fill="#B85F35" rx="1.5"/>
      <rect x="509" y="89" width="7" height="7" fill="#211A14" rx="1.5"/>
      <rect x="509" y="98" width="7" height="7" fill="#211A14" rx="1.5"/>
      <rect x="509" y="107" width="7" height="7" fill="#211A14" rx="1.5"/>
      <rect x="509" y="116" width="7" height="7" fill="#211A14" rx="1.5"/>
      <rect x="518" y="62" width="7" height="7" fill="#211A14" rx="1.5"/>
      <rect x="518" y="71" width="7" height="7" fill="#211A14" rx="1.5"/>
      <rect x="518" y="80" width="7" height="7" fill="#211A14" rx="1.5"/>
      <rect x="518" y="89" width="7" height="7" fill="#211A14" rx="1.5"/>
      <rect x="518" y="98" width="7" height="7" fill="#211A14" rx="1.5"/>
      <rect x="518" y="107" width="7" height="7" fill="#211A14" rx="1.5"/>
      <rect x="518" y="116" width="7" height="7" fill="#211A14" rx="1.5"/>
      <rect x="527" y="62" width="7" height="7" fill="#211A14" rx="1.5"/>
      <rect x="527" y="71" width="7" height="7" fill="#4A2C1A" rx="1.5"/>
      <rect x="527" y="80" width="7" height="7" fill="#4A2C1A" rx="1.5"/>
      <rect x="527" y="89" width="7" height="7" fill="#211A14" rx="1.5"/>
      <rect x="527" y="98" width="7" height="7" fill="#7A4528" rx="1.5"/>
      <rect x="527" y="107" width="7" height="7" fill="#7A4528" rx="1.5"/>
      <rect x="527" y="116" width="7" height="7" fill="#B85F35" rx="1.5"/>
      <rect x="536" y="62" width="7" height="7" fill="#211A14" rx="1.5"/>
      <rect x="536" y="71" width="7" height="7" fill="#B85F35" rx="1.5"/>
      <rect x="536" y="80" width="7" height="7" fill="#211A14" rx="1.5"/>
      <rect x="536" y="89" width="7" height="7" fill="#211A14" rx="1.5"/>
      <rect x="536" y="98" width="7" height="7" fill="#211A14" rx="1.5"/>
      <rect x="536" y="107" width="7" height="7" fill="#4A2C1A" rx="1.5"/>
      <rect x="536" y="116" width="7" height="7" fill="#B85F35" rx="1.5"/>
      <rect x="545" y="62" width="7" height="7" fill="#B85F35" rx="1.5"/>
      <rect x="545" y="71" width="7" height="7" fill="#211A14" rx="1.5"/>
      <rect x="545" y="80" width="7" height="7" fill="#D97757" rx="1.5"/>
      <rect x="545" y="89" width="7" height="7" fill="#D97757" rx="1.5"/>
      <rect x="545" y="98" width="7" height="7" fill="#4A2C1A" rx="1.5"/>
      <rect x="545" y="107" width="7" height="7" fill="#211A14" rx="1.5"/>
      <rect x="545" y="116" width="7" height="7" fill="#B85F35" rx="1.5"/>
      <rect x="554" y="62" width="7" height="7" fill="#211A14" rx="1.5"/>
      <rect x="554" y="71" width="7" height="7" fill="#D97757" rx="1.5"/>
      <rect x="554" y="80" width="7" height="7" fill="#211A14" rx="1.5"/>
      <rect x="554" y="89" width="7" height="7" fill="#211A14" rx="1.5"/>
      <rect x="554" y="98" width="7" height="7" fill="#211A14" rx="1.5"/>
      <rect x="554" y="107" width="7" height="7" fill="#211A14" rx="1.5"/>
      <rect x="554" y="116" width="7" height="7" fill="#211A14" rx="1.5"/>
      <rect x="563" y="62" width="7" height="7" fill="#211A14" rx="1.5"/>
      <rect x="563" y="71" width="7" height="7" fill="#7A4528" rx="1.5"/>
      <rect x="563" y="80" width="7" height="7" fill="#D97757" rx="1.5"/>
      <rect x="563" y="89" width="7" height="7" fill="#D97757" rx="1.5"/>
      <rect x="563" y="98" width="7" height="7" fill="#D97757" rx="1.5"/>
      <rect x="563" y="107" width="7" height="7" fill="#211A14" rx="1.5"/>
      <rect x="563" y="116" width="7" height="7" fill="#211A14" rx="1.5"/>
      <rect x="572" y="62" width="7" height="7" fill="#D97757" rx="1.5"/>
      <rect x="572" y="71" width="7" height="7" fill="#B85F35" rx="1.5"/>
      <rect x="572" y="80" width="7" height="7" fill="#4A2C1A" rx="1.5"/>
      <rect x="572" y="89" width="7" height="7" fill="#D97757" rx="1.5"/>
      <rect x="572" y="98" width="7" height="7" fill="#7A4528" rx="1.5"/>
      <rect x="572" y="107" width="7" height="7" fill="#4A2C1A" rx="1.5"/>
      <rect x="572" y="116" width="7" height="7" fill="#211A14" rx="1.5"/>
      <rect x="581" y="62" width="7" height="7" fill="#211A14" rx="1.5"/>
      <rect x="581" y="71" width="7" height="7" fill="#211A14" rx="1.5"/>
      <rect x="581" y="80" width="7" height="7" fill="#B85F35" rx="1.5"/>
      <rect x="581" y="89" width="7" height="7" fill="#4A2C1A" rx="1.5"/>
      <rect x="581" y="98" width="7" height="7" fill="#211A14" rx="1.5"/>
      <rect x="581" y="107" width="7" height="7" fill="#211A14" rx="1.5"/>
      <rect x="581" y="116" width="7" height="7" fill="#211A14" rx="1.5"/>
      <rect x="590" y="62" width="7" height="7" fill="#211A14" rx="1.5"/>
      <rect x="590" y="71" width="7" height="7" fill="#211A14" rx="1.5"/>
      <rect x="590" y="80" width="7" height="7" fill="#211A14" rx="1.5"/>
      <rect x="590" y="89" width="7" height="7" fill="#211A14" rx="1.5"/>
      <rect x="590" y="98" width="7" height="7" fill="#211A14" rx="1.5"/>
      <rect x="590" y="107" width="7" height="7" fill="#211A14" rx="1.5"/>
      <rect x="590" y="116" width="7" height="7" fill="#211A14" rx="1.5"/>
      <rect x="599" y="62" width="7" height="7" fill="#211A14" rx="1.5"/>
      <rect x="599" y="71" width="7" height="7" fill="#211A14" rx="1.5"/>
      <rect x="599" y="80" width="7" height="7" fill="#211A14" rx="1.5"/>
      <rect x="599" y="89" width="7" height="7" fill="#211A14" rx="1.5"/>
      <rect x="599" y="98" width="7" height="7" fill="#211A14" rx="1.5"/>
      <rect x="599" y="107" width="7" height="7" fill="#211A14" rx="1.5"/>
      <rect x="599" y="116" width="7" height="7" fill="#B85F35" rx="1.5"/>
      <rect x="608" y="62" width="7" height="7" fill="#211A14" rx="1.5"/>
      <rect x="608" y="71" width="7" height="7" fill="#211A14" rx="1.5"/>
      <rect x="608" y="80" width="7" height="7" fill="#211A14" rx="1.5"/>
      <rect x="608" y="89" width="7" height="7" fill="#4A2C1A" rx="1.5"/>
      <rect x="608" y="98" width="7" height="7" fill="#211A14" rx="1.5"/>
      <rect x="608" y="107" width="7" height="7" fill="#211A14" rx="1.5"/>
      <rect x="608" y="116" width="7" height="7" fill="#4A2C1A" rx="1.5"/>
      <rect x="617" y="62" width="7" height="7" fill="#7A4528" rx="1.5"/>
      <rect x="617" y="71" width="7" height="7" fill="#4A2C1A" rx="1.5"/>
      <rect x="617" y="80" width="7" height="7" fill="#7A4528" rx="1.5"/>
      <rect x="617" y="89" width="7" height="7" fill="#7A4528" rx="1.5"/>
      <rect x="617" y="98" width="7" height="7" fill="#7A4528" rx="1.5"/>
      <rect x="617" y="107" width="7" height="7" fill="#D97757" rx="1.5"/>
      <rect x="617" y="116" width="7" height="7" fill="#D97757" rx="1.5"/>
      <rect x="626" y="62" width="7" height="7" fill="#D97757" rx="1.5"/>
      <rect x="626" y="71" width="7" height="7" fill="#211A14" rx="1.5"/>
      <rect x="626" y="80" width="7" height="7" fill="#211A14" rx="1.5"/>
      <rect x="626" y="89" width="7" height="7" fill="#4A2C1A" rx="1.5"/>
      <rect x="626" y="98" width="7" height="7" fill="#211A14" rx="1.5"/>
      <rect x="626" y="107" width="7" height="7" fill="#211A14" rx="1.5"/>
      <rect x="626" y="116" width="7" height="7" fill="#211A14" rx="1.5"/>
      <rect x="635" y="62" width="7" height="7" fill="#211A14" rx="1.5"/>
      <rect x="635" y="71" width="7" height="7" fill="#211A14" rx="1.5"/>
      <rect x="635" y="80" width="7" height="7" fill="#B85F35" rx="1.5"/>
      <rect x="635" y="89" width="7" height="7" fill="#211A14" rx="1.5"/>
      <rect x="635" y="98" width="7" height="7" fill="#211A14" rx="1.5"/>
      <rect x="635" y="107" width="7" height="7" fill="#211A14" rx="1.5"/>
      <rect x="635" y="116" width="7" height="7" fill="#211A14" rx="1.5"/>
      <rect x="644" y="62" width="7" height="7" fill="#211A14" rx="1.5"/>
      <rect x="644" y="71" width="7" height="7" fill="#211A14" rx="1.5"/>
      <rect x="644" y="80" width="7" height="7" fill="#211A14" rx="1.5"/>
      <rect x="644" y="89" width="7" height="7" fill="#B85F35" rx="1.5"/>
      <rect x="644" y="98" width="7" height="7" fill="#7A4528" rx="1.5"/>
      <rect x="644" y="107" width="7" height="7" fill="#4A2C1A" rx="1.5"/>
      <rect x="644" y="116" width="7" height="7" fill="#211A14" rx="1.5"/>
      <rect x="653" y="62" width="7" height="7" fill="#4A2C1A" rx="1.5"/>
      <rect x="653" y="71" width="7" height="7" fill="#4A2C1A" rx="1.5"/>
      <rect x="653" y="80" width="7" height="7" fill="#211A14" rx="1.5"/>
      <rect x="653" y="89" width="7" height="7" fill="#211A14" rx="1.5"/>
      <rect x="653" y="98" width="7" height="7" fill="#211A14" rx="1.5"/>
      <rect x="653" y="107" width="7" height="7" fill="#4A2C1A" rx="1.5"/>
      <rect x="653" y="116" width="7" height="7" fill="#4A2C1A" rx="1.5"/>
      <rect x="662" y="62" width="7" height="7" fill="#211A14" rx="1.5"/>
      <rect x="662" y="71" width="7" height="7" fill="#D97757" rx="1.5"/>
      <rect x="662" y="80" width="7" height="7" fill="#211A14" rx="1.5"/>
      <rect x="662" y="89" width="7" height="7" fill="#211A14" rx="1.5"/>
      <rect x="662" y="98" width="7" height="7" fill="#4A2C1A" rx="1.5"/>
      <rect x="662" y="107" width="7" height="7" fill="#B85F35" rx="1.5"/>
      <rect x="662" y="116" width="7" height="7" fill="#211A14" rx="1.5"/>
      <rect x="671" y="62" width="7" height="7" fill="#7A4528" rx="1.5"/>
      <rect x="671" y="71" width="7" height="7" fill="#4A2C1A" rx="1.5"/>
      <rect x="671" y="80" width="7" height="7" fill="#B85F35" rx="1.5"/>
      <rect x="671" y="89" width="7" height="7" fill="#7A4528" rx="1.5"/>
  <text x="500" y="142" font-family="'Courier New', monospace" font-size="7" fill="#9B8672">less</text>
  <rect x="524" y="134" width="7" height="7" fill="#211A14" rx="1"/>
  <rect x="533" y="134" width="7" height="7" fill="#4A2C1A" rx="1"/>
  <rect x="542" y="134" width="7" height="7" fill="#7A4528" rx="1"/>
  <rect x="551" y="134" width="7" height="7" fill="#B85F35" rx="1"/>
  <rect x="560" y="134" width="7" height="7" fill="#D97757" rx="1"/>
  <text x="571" y="142" font-family="'Courier New', monospace" font-size="7" fill="#9B8672">more</text>

  <!-- ═══ DIVIDER ═══ -->
  <line x1="28" y1="210" x2="822" y2="210" stroke="#3D3028" stroke-width="0.5" stroke-dasharray="3,3"/>

  <!-- ═══════════════ AI COLLAB RATIO ═══════════════ -->
  <text x="30" y="222" font-family="'Courier New', monospace" font-size="11" fill="#D97757" filter="url(#glow2)">$ collab --ratio</text>
    <rect x="30" y="238" width="790" height="16" fill="#3D3028" rx="7"/>
    <rect x="30" y="238" width="698" height="16" fill="#E8A87C" opacity="0.85" rx="0"><animate attributeName="width" from="0" to="698" dur="1s" begin="0.3s" fill="freeze" calcMode="spline" keySplines="0.4 0 0.2 1"/></rect>
    <rect x="728" y="238" width="92" height="16" fill="#D97757" opacity="0.85" rx="0"><animate attributeName="width" from="0" to="92" dur="1s" begin="0.3s" fill="freeze" calcMode="spline" keySplines="0.4 0 0.2 1"/></rect>
    <rect x="30" y="238" width="790" height="16" fill="none" stroke="#3D3028" stroke-width="1" rx="7"/>
    <text x="379" y="250" text-anchor="middle" font-family="'Courier New', monospace" font-size="9" fill="#1A1410" font-weight="bold">88%</text>
    <text x="773" y="250" text-anchor="middle" font-family="'Courier New', monospace" font-size="9" fill="#1A1410" font-weight="bold">12%</text>
    <circle cx="35" cy="267" r="4" fill="#E8A87C"/><text x="44" y="270" font-family="'Courier New', monospace" font-size="9" fill="#F5E6D3">Human <tspan fill="#9B8672">88%</tspan></text>
    <circle cx="155" cy="267" r="4" fill="#D97757"/><text x="164" y="270" font-family="'Courier New', monospace" font-size="9" fill="#F5E6D3">Claude <tspan fill="#9B8672">12%</tspan></text>

  <!-- ═══ DIVIDER ═══ -->
  <line x1="28" y1="280" x2="822" y2="280" stroke="#3D3028" stroke-width="0.5" stroke-dasharray="3,3"/>

  <!-- ═══════════════ COMMIT LOG ═══════════════ -->
  <text x="30" y="296" font-family="'Courier New', monospace" font-size="11" fill="#C4703E" filter="url(#glow)">$ git log --oneline</text>
  <rect x="230" y="286" width="8" height="13" fill="#D97757">
    <animate attributeName="opacity" values="1;0;1" dur="1s" repeatCount="indefinite"/>
  </rect>
  <text x="36" y="314" font-family="'Courier New', monospace" font-size="10" fill="#9B8672" opacity="0.4">[ no recent public commits ]</text>

  <!-- ═══ DIVIDER ═══ -->
  <line x1="28" y1="418" x2="822" y2="418" stroke="#3D3028" stroke-width="0.5" stroke-dasharray="3,3"/>

  <!-- ═══════════════ LANGUAGES ═══════════════ -->
  <text x="30" y="430" font-family="'Courier New', monospace" font-size="11" fill="#D97757" filter="url(#glow)">$ tokei --sort code</text>
  <circle cx="41" cy="438" r="4" fill="#427819"/><text x="51" y="442" font-family="'Courier New', monospace" font-size="9" fill="#F5E6D3">Makefile</text><rect x="151" y="432" width="140" height="10" fill="#3D3028" rx="5"/><rect x="151" y="432" width="65" height="10" fill="#427819" rx="5" filter="url(#glow2)"/><text x="298" y="442" font-family="'Courier New', monospace" font-size="9" fill="#9B8672">46.7%</text>
      <circle cx="41" cy="458" r="4" fill="#dea584"/><text x="51" y="462" font-family="'Courier New', monospace" font-size="9" fill="#F5E6D3">Rust</text><rect x="151" y="452" width="140" height="10" fill="#3D3028" rx="5"/><rect x="151" y="452" width="48" height="10" fill="#dea584" rx="5" filter="url(#glow2)"/><text x="298" y="462" font-family="'Courier New', monospace" font-size="9" fill="#9B8672">34.4%</text>
      <circle cx="41" cy="478" r="4" fill="#3178c6"/><text x="51" y="482" font-family="'Courier New', monospace" font-size="9" fill="#F5E6D3">TypeScript</text><rect x="151" y="472" width="140" height="10" fill="#3D3028" rx="5"/><rect x="151" y="472" width="10" height="10" fill="#3178c6" rx="5" filter="url(#glow2)"/><text x="298" y="482" font-family="'Courier New', monospace" font-size="9" fill="#9B8672">7.7%</text>
      <circle cx="431" cy="438" r="4" fill="#f34b7d"/><text x="441" y="442" font-family="'Courier New', monospace" font-size="9" fill="#F5E6D3">C++</text><rect x="541" y="432" width="140" height="10" fill="#3D3028" rx="5"/><rect x="541" y="432" width="5" height="10" fill="#f34b7d" rx="5" filter="url(#glow2)"/><text x="688" y="442" font-family="'Courier New', monospace" font-size="9" fill="#9B8672">3.9%</text>
      <circle cx="431" cy="458" r="4" fill="#663399"/><text x="441" y="462" font-family="'Courier New', monospace" font-size="9" fill="#F5E6D3">CSS</text><rect x="541" y="452" width="140" height="10" fill="#3D3028" rx="5"/><rect x="541" y="452" width="3" height="10" fill="#663399" rx="5" filter="url(#glow2)"/><text x="688" y="462" font-family="'Courier New', monospace" font-size="9" fill="#9B8672">2.3%</text>
      <circle cx="431" cy="478" r="4" fill="#F05138"/><text x="441" y="482" font-family="'Courier New', monospace" font-size="9" fill="#F5E6D3">Swift</text><rect x="541" y="472" width="140" height="10" fill="#3D3028" rx="5"/><rect x="541" y="472" width="2" height="10" fill="#F05138" rx="5" filter="url(#glow2)"/><text x="688" y="482" font-family="'Courier New', monospace" font-size="9" fill="#9B8672">1.7%</text>

  <!-- ═══ FOOTER ═══ -->
  <line x1="12" y1="492" x2="838" y2="492" stroke="#3D3028" stroke-width="0.3"/>
  <circle cx="370" cy="506" r="6" fill="#211A14" stroke="#3D3028" stroke-width="1"/>
  <text x="370" y="509" font-family="'Courier New', monospace" font-size="7" fill="#9B8672" text-anchor="middle">A</text>
  <circle cx="425" cy="506" r="6" fill="#211A14" stroke="#3D3028" stroke-width="1"/>
  <text x="425" y="509" font-family="'Courier New', monospace" font-size="7" fill="#9B8672" text-anchor="middle">B</text>
  <circle cx="480" cy="506" r="6" fill="#211A14" stroke="#3D3028" stroke-width="1"/>
  <text x="480" y="509" font-family="'Courier New', monospace" font-size="7" fill="#9B8672" text-anchor="middle">C</text>

  <g opacity="0.3"><path fill="#3D2415"><animate attributeName="d" dur="8s" repeatCount="indefinite" values="M0,490 C100,482 200,498 300,490 C400,482 500,500 600,490 C700,482 750,495 850,490 L850,520 L0,520 Z;M0,495 C100,502 200,485 300,495 C400,502 500,485 600,495 C700,502 750,490 850,495 L850,520 L0,520 Z;M0,490 C100,482 200,498 300,490 C400,482 500,500 600,490 C700,482 750,495 850,490 L850,520 L0,520 Z"/></path><path fill="#5A3520"><animate attributeName="d" dur="5s" repeatCount="indefinite" values="M0,500 C140,506 280,494 420,500 C560,506 700,494 850,502 L850,520 L0,520 Z;M0,502 C140,494 280,508 420,500 C560,494 700,506 850,498 L850,520 L0,520 Z;M0,500 C140,506 280,494 420,500 C560,506 700,494 850,502 L850,520 L0,520 Z"/></path></g>

  <!-- CRT scan line -->
  <rect width="850" height="2" fill="#F5E6D3" opacity="0.008">
    <animateTransform attributeName="transform" type="translate" from="0 -2" to="0 520" dur="8s" repeatCount="indefinite"/>
  </rect>

  <text x="822" y="512" font-family="'Courier New', monospace" font-size="7" fill="#3D3028" text-anchor="end">2026-02-25 08:33 UTC</text>
</svg>