<svg xmlns="http://www.w3.org/2000/svg" width="850" height="700" viewBox="0 0 850 700">
  <defs>
    <style>
      .eye { animation: blink 4s step-end infinite; }
      .hero { animation: float 3s ease-in-out infinite; }
      .cursor { animation: cursor 1s step-end infinite; }
      @keyframes blink { 0%,92%{opacity:1} 93%,97%{opacity:0} 98%{opacity:1} }
      @keyframes float { 0%,100%{transform:translateY(0)} 50%{transform:translateY(-4px)} }
      @keyframes cursor { 0%,49%{opacity:1} 50%,100%{opacity:0} }
    </style>
    <linearGradient id="hpg"><stop offset="0%" stop-color="#e83030"/><stop offset="100%" stop-color="#ff6060"/></linearGradient>
    <linearGradient id="mpg"><stop offset="0%" stop-color="#2080e0"/><stop offset="100%" stop-color="#60b0ff"/></linearGradient>
    <linearGradient id="triforce" x1="0" y1="0" x2="1" y2="1">
      <stop offset="0%" stop-color="#f8d830"/><stop offset="100%" stop-color="#c8a820"/>
    </linearGradient>
  </defs>

  <!-- Zelda double-line border -->
  <rect x="0" y="0" width="850" height="700" fill="#0b0e14" rx="2"/><rect x="2" y="2" width="846" height="696" fill="none" stroke="#2a5a30" stroke-width="3" rx="1"/><rect x="7" y="7" width="836" height="686" fill="none" stroke="#2a5a30" stroke-width="1" rx="1"/>

  <!-- HUD: Hearts + Title + Rupees -->
  <rect x="25" y="12" width="3" height="3" fill="#e83030"/><rect x="31" y="12" width="3" height="3" fill="#e83030"/><rect x="22" y="15" width="3" height="3" fill="#e83030"/><rect x="25" y="15" width="3" height="3" fill="#e83030"/><rect x="28" y="15" width="3" height="3" fill="#e83030"/><rect x="31" y="15" width="3" height="3" fill="#e83030"/><rect x="34" y="15" width="3" height="3" fill="#e83030"/><rect x="22" y="18" width="3" height="3" fill="#e83030"/><rect x="25" y="18" width="3" height="3" fill="#e83030"/><rect x="28" y="18" width="3" height="3" fill="#e83030"/><rect x="31" y="18" width="3" height="3" fill="#e83030"/><rect x="34" y="18" width="3" height="3" fill="#e83030"/><rect x="25" y="21" width="3" height="3" fill="#e83030"/><rect x="28" y="21" width="3" height="3" fill="#e83030"/><rect x="31" y="21" width="3" height="3" fill="#e83030"/><rect x="28" y="24" width="3" height="3" fill="#e83030"/>
    <rect x="45" y="12" width="3" height="3" fill="#401818"/><rect x="51" y="12" width="3" height="3" fill="#401818"/><rect x="42" y="15" width="3" height="3" fill="#401818"/><rect x="45" y="15" width="3" height="3" fill="#401818"/><rect x="48" y="15" width="3" height="3" fill="#401818"/><rect x="51" y="15" width="3" height="3" fill="#401818"/><rect x="54" y="15" width="3" height="3" fill="#401818"/><rect x="42" y="18" width="3" height="3" fill="#401818"/><rect x="45" y="18" width="3" height="3" fill="#401818"/><rect x="48" y="18" width="3" height="3" fill="#401818"/><rect x="51" y="18" width="3" height="3" fill="#401818"/><rect x="54" y="18" width="3" height="3" fill="#401818"/><rect x="45" y="21" width="3" height="3" fill="#401818"/><rect x="48" y="21" width="3" height="3" fill="#401818"/><rect x="51" y="21" width="3" height="3" fill="#401818"/><rect x="48" y="24" width="3" height="3" fill="#401818"/>
    <rect x="65" y="12" width="3" height="3" fill="#401818"/><rect x="71" y="12" width="3" height="3" fill="#401818"/><rect x="62" y="15" width="3" height="3" fill="#401818"/><rect x="65" y="15" width="3" height="3" fill="#401818"/><rect x="68" y="15" width="3" height="3" fill="#401818"/><rect x="71" y="15" width="3" height="3" fill="#401818"/><rect x="74" y="15" width="3" height="3" fill="#401818"/><rect x="62" y="18" width="3" height="3" fill="#401818"/><rect x="65" y="18" width="3" height="3" fill="#401818"/><rect x="68" y="18" width="3" height="3" fill="#401818"/><rect x="71" y="18" width="3" height="3" fill="#401818"/><rect x="74" y="18" width="3" height="3" fill="#401818"/><rect x="65" y="21" width="3" height="3" fill="#401818"/><rect x="68" y="21" width="3" height="3" fill="#401818"/><rect x="71" y="21" width="3" height="3" fill="#401818"/><rect x="68" y="24" width="3" height="3" fill="#401818"/>
    <rect x="85" y="12" width="3" height="3" fill="#401818"/><rect x="91" y="12" width="3" height="3" fill="#401818"/><rect x="82" y="15" width="3" height="3" fill="#401818"/><rect x="85" y="15" width="3" height="3" fill="#401818"/><rect x="88" y="15" width="3" height="3" fill="#401818"/><rect x="91" y="15" width="3" height="3" fill="#401818"/><rect x="94" y="15" width="3" height="3" fill="#401818"/><rect x="82" y="18" width="3" height="3" fill="#401818"/><rect x="85" y="18" width="3" height="3" fill="#401818"/><rect x="88" y="18" width="3" height="3" fill="#401818"/><rect x="91" y="18" width="3" height="3" fill="#401818"/><rect x="94" y="18" width="3" height="3" fill="#401818"/><rect x="85" y="21" width="3" height="3" fill="#401818"/><rect x="88" y="21" width="3" height="3" fill="#401818"/><rect x="91" y="21" width="3" height="3" fill="#401818"/><rect x="88" y="24" width="3" height="3" fill="#401818"/>
    <rect x="105" y="12" width="3" height="3" fill="#401818"/><rect x="111" y="12" width="3" height="3" fill="#401818"/><rect x="102" y="15" width="3" height="3" fill="#401818"/><rect x="105" y="15" width="3" height="3" fill="#401818"/><rect x="108" y="15" width="3" height="3" fill="#401818"/><rect x="111" y="15" width="3" height="3" fill="#401818"/><rect x="114" y="15" width="3" height="3" fill="#401818"/><rect x="102" y="18" width="3" height="3" fill="#401818"/><rect x="105" y="18" width="3" height="3" fill="#401818"/><rect x="108" y="18" width="3" height="3" fill="#401818"/><rect x="111" y="18" width="3" height="3" fill="#401818"/><rect x="114" y="18" width="3" height="3" fill="#401818"/><rect x="105" y="21" width="3" height="3" fill="#401818"/><rect x="108" y="21" width="3" height="3" fill="#401818"/><rect x="111" y="21" width="3" height="3" fill="#401818"/><rect x="108" y="24" width="3" height="3" fill="#401818"/>
    <text x="425" y="24" font-family="'Courier New', 'Courier', monospace" font-size="13" fill="#f8d830" text-anchor="middle" letter-spacing="3">BIGMACFIVE'S QUEST</text>
    <polygon points="311,13 314,18 308,18" fill="url(#triforce)" opacity="0.7"/><polygon points="308,18 311,23 305,23" fill="url(#triforce)" opacity="0.7"/><polygon points="314,18 317,23 311,23" fill="url(#triforce)" opacity="0.7"/>
    <polygon points="539,13 542,18 536,18" fill="url(#triforce)" opacity="0.7"/><polygon points="536,18 539,23 533,23" fill="url(#triforce)" opacity="0.7"/><polygon points="542,18 545,23 539,23" fill="url(#triforce)" opacity="0.7"/>
    <polygon points="776,12 782,18 776,24 770,18" fill="#40b8f0" opacity="0.9"/><line x1="776" y1="13" x2="776" y2="23" stroke="#80d8ff" stroke-width="1" opacity="0.4"/>
    <text x="788" y="24" font-family="'Courier New', 'Courier', monospace" font-size="12" fill="#e0dcc8">  1</text>
    <line x1="12" y1="38" x2="838" y2="38" stroke="#2a5a30" stroke-width="1"/>

  <!-- Row 1: Hero | Status | World Map -->
  <rect x="16" y="48" width="180" height="180" fill="#101820" stroke="#2a5a30" stroke-width="1.5" rx="2"/><line x1="19" y1="51" x2="193" y2="51" stroke="#1a2a38" stroke-width="1" opacity="0.6"/><line x1="19" y1="51" x2="19" y2="225" stroke="#1a2a38" stroke-width="1" opacity="0.4"/><g class="hero"><rect x="82" y="60" width="8" height="8" fill="#38e850"/>
      <rect x="90" y="60" width="8" height="8" fill="#38e850"/>
      <rect x="98" y="60" width="8" height="8" fill="#38e850"/>
      <rect x="106" y="60" width="8" height="8" fill="#38e850"/>
      <rect x="114" y="60" width="8" height="8" fill="#38e850"/>
      <rect x="122" y="60" width="8" height="8" fill="#38e850"/>
      <rect x="66" y="68" width="8" height="8" fill="#38e850"/>
      <rect x="74" y="68" width="8" height="8" fill="#38e850"/>
      <rect x="82" y="68" width="8" height="8" fill="#38e850"/>
      <rect x="90" y="68" width="8" height="8" fill="#38e850"/>
      <rect x="98" y="68" width="8" height="8" fill="#38e850"/>
      <rect x="106" y="68" width="8" height="8" fill="#38e850"/>
      <rect x="114" y="68" width="8" height="8" fill="#38e850"/>
      <rect x="122" y="68" width="8" height="8" fill="#38e850"/>
      <rect x="130" y="68" width="8" height="8" fill="#38e850"/>
      <rect x="138" y="68" width="8" height="8" fill="#38e850"/>
      <rect x="58" y="76" width="8" height="8" fill="#38e850"/>
      <rect x="66" y="76" width="8" height="8" fill="#38e850"/>
      <rect x="74" y="76" width="8" height="8" fill="#38e850"/>
      <rect x="82" y="76" width="8" height="8" fill="#38e850"/>
      <rect x="90" y="76" width="8" height="8" fill="#38e850"/>
      <rect x="98" y="76" width="8" height="8" fill="#38e850"/>
      <rect x="106" y="76" width="8" height="8" fill="#38e850"/>
      <rect x="114" y="76" width="8" height="8" fill="#38e850"/>
      <rect x="122" y="76" width="8" height="8" fill="#38e850"/>
      <rect x="130" y="76" width="8" height="8" fill="#38e850"/>
      <rect x="138" y="76" width="8" height="8" fill="#38e850"/>
      <rect x="146" y="76" width="8" height="8" fill="#38e850"/>
      <rect x="50" y="84" width="8" height="8" fill="#38e850"/>
      <rect x="58" y="84" width="8" height="8" fill="#38e850"/>
      <rect x="66" y="84" width="8" height="8" fill="#38e850"/>
      <rect x="74" y="84" width="8" height="8" fill="#0b1810" class="eye"/>
      <rect x="82" y="84" width="8" height="8" fill="#0b1810" class="eye"/>
      <rect x="90" y="84" width="8" height="8" fill="#38e850"/>
      <rect x="98" y="84" width="8" height="8" fill="#38e850"/>
      <rect x="106" y="84" width="8" height="8" fill="#38e850"/>
      <rect x="114" y="84" width="8" height="8" fill="#38e850"/>
      <rect x="122" y="84" width="8" height="8" fill="#0b1810" class="eye"/>
      <rect x="130" y="84" width="8" height="8" fill="#0b1810" class="eye"/>
      <rect x="138" y="84" width="8" height="8" fill="#38e850"/>
      <rect x="146" y="84" width="8" height="8" fill="#38e850"/>
      <rect x="154" y="84" width="8" height="8" fill="#38e850"/>
      <rect x="50" y="92" width="8" height="8" fill="#38e850"/>
      <rect x="58" y="92" width="8" height="8" fill="#38e850"/>
      <rect x="66" y="92" width="8" height="8" fill="#38e850"/>
      <rect x="74" y="92" width="8" height="8" fill="#80ff98" class="eye"/>
      <rect x="82" y="92" width="8" height="8" fill="#0b1810" class="eye"/>
      <rect x="90" y="92" width="8" height="8" fill="#38e850"/>
      <rect x="98" y="92" width="8" height="8" fill="#38e850"/>
      <rect x="106" y="92" width="8" height="8" fill="#38e850"/>
      <rect x="114" y="92" width="8" height="8" fill="#38e850"/>
      <rect x="122" y="92" width="8" height="8" fill="#80ff98" class="eye"/>
      <rect x="130" y="92" width="8" height="8" fill="#0b1810" class="eye"/>
      <rect x="138" y="92" width="8" height="8" fill="#38e850"/>
      <rect x="146" y="92" width="8" height="8" fill="#38e850"/>
      <rect x="154" y="92" width="8" height="8" fill="#38e850"/>
      <rect x="50" y="100" width="8" height="8" fill="#38e850"/>
      <rect x="58" y="100" width="8" height="8" fill="#38e850"/>
      <rect x="66" y="100" width="8" height="8" fill="#ff9080"/>
      <rect x="74" y="100" width="8" height="8" fill="#38e850"/>
      <rect x="82" y="100" width="8" height="8" fill="#38e850"/>
      <rect x="90" y="100" width="8" height="8" fill="#38e850"/>
      <rect x="98" y="100" width="8" height="8" fill="#38e850"/>
      <rect x="106" y="100" width="8" height="8" fill="#38e850"/>
      <rect x="114" y="100" width="8" height="8" fill="#38e850"/>
      <rect x="122" y="100" width="8" height="8" fill="#38e850"/>
      <rect x="130" y="100" width="8" height="8" fill="#38e850"/>
      <rect x="138" y="100" width="8" height="8" fill="#ff9080"/>
      <rect x="146" y="100" width="8" height="8" fill="#38e850"/>
      <rect x="154" y="100" width="8" height="8" fill="#38e850"/>
      <rect x="50" y="108" width="8" height="8" fill="#38e850"/>
      <rect x="58" y="108" width="8" height="8" fill="#38e850"/>
      <rect x="66" y="108" width="8" height="8" fill="#38e850"/>
      <rect x="74" y="108" width="8" height="8" fill="#38e850"/>
      <rect x="82" y="108" width="8" height="8" fill="#0b1810"/>
      <rect x="90" y="108" width="8" height="8" fill="#38e850"/>
      <rect x="98" y="108" width="8" height="8" fill="#38e850"/>
      <rect x="106" y="108" width="8" height="8" fill="#38e850"/>
      <rect x="114" y="108" width="8" height="8" fill="#38e850"/>
      <rect x="122" y="108" width="8" height="8" fill="#0b1810"/>
      <rect x="130" y="108" width="8" height="8" fill="#38e850"/>
      <rect x="138" y="108" width="8" height="8" fill="#38e850"/>
      <rect x="146" y="108" width="8" height="8" fill="#38e850"/>
      <rect x="154" y="108" width="8" height="8" fill="#38e850"/>
      <rect x="50" y="116" width="8" height="8" fill="#38e850"/>
      <rect x="58" y="116" width="8" height="8" fill="#38e850"/>
      <rect x="66" y="116" width="8" height="8" fill="#38e850"/>
      <rect x="74" y="116" width="8" height="8" fill="#38e850"/>
      <rect x="82" y="116" width="8" height="8" fill="#38e850"/>
      <rect x="90" y="116" width="8" height="8" fill="#0b1810"/>
      <rect x="98" y="116" width="8" height="8" fill="#0b1810"/>
      <rect x="106" y="116" width="8" height="8" fill="#0b1810"/>
      <rect x="114" y="116" width="8" height="8" fill="#0b1810"/>
      <rect x="122" y="116" width="8" height="8" fill="#38e850"/>
      <rect x="130" y="116" width="8" height="8" fill="#38e850"/>
      <rect x="138" y="116" width="8" height="8" fill="#38e850"/>
      <rect x="146" y="116" width="8" height="8" fill="#38e850"/>
      <rect x="154" y="116" width="8" height="8" fill="#38e850"/>
      <rect x="42" y="124" width="8" height="8" fill="#38e850"/>
      <rect x="50" y="124" width="8" height="8" fill="#38e850"/>
      <rect x="58" y="124" width="8" height="8" fill="#38e850"/>
      <rect x="66" y="124" width="8" height="8" fill="#38e850"/>
      <rect x="74" y="124" width="8" height="8" fill="#38e850"/>
      <rect x="82" y="124" width="8" height="8" fill="#38e850"/>
      <rect x="90" y="124" width="8" height="8" fill="#38e850"/>
      <rect x="98" y="124" width="8" height="8" fill="#38e850"/>
      <rect x="106" y="124" width="8" height="8" fill="#38e850"/>
      <rect x="114" y="124" width="8" height="8" fill="#38e850"/>
      <rect x="122" y="124" width="8" height="8" fill="#38e850"/>
      <rect x="130" y="124" width="8" height="8" fill="#38e850"/>
      <rect x="138" y="124" width="8" height="8" fill="#38e850"/>
      <rect x="146" y="124" width="8" height="8" fill="#38e850"/>
      <rect x="154" y="124" width="8" height="8" fill="#38e850"/>
      <rect x="162" y="124" width="8" height="8" fill="#38e850"/>
      <rect x="50" y="132" width="8" height="8" fill="#38e850"/>
      <rect x="58" y="132" width="8" height="8" fill="#38e850"/>
      <rect x="66" y="132" width="8" height="8" fill="#38e850"/>
      <rect x="74" y="132" width="8" height="8" fill="#38e850"/>
      <rect x="82" y="132" width="8" height="8" fill="#38e850"/>
      <rect x="90" y="132" width="8" height="8" fill="#38e850"/>
      <rect x="98" y="132" width="8" height="8" fill="#38e850"/>
      <rect x="106" y="132" width="8" height="8" fill="#38e850"/>
      <rect x="114" y="132" width="8" height="8" fill="#38e850"/>
      <rect x="122" y="132" width="8" height="8" fill="#38e850"/>
      <rect x="130" y="132" width="8" height="8" fill="#38e850"/>
      <rect x="138" y="132" width="8" height="8" fill="#38e850"/>
      <rect x="146" y="132" width="8" height="8" fill="#38e850"/>
      <rect x="154" y="132" width="8" height="8" fill="#38e850"/>
      <rect x="58" y="140" width="8" height="8" fill="#38e850"/>
      <rect x="66" y="140" width="8" height="8" fill="#38e850"/>
      <rect x="74" y="140" width="8" height="8" fill="#38e850"/>
      <rect x="82" y="140" width="8" height="8" fill="#38e850"/>
      <rect x="90" y="140" width="8" height="8" fill="#38e850"/>
      <rect x="98" y="140" width="8" height="8" fill="#38e850"/>
      <rect x="106" y="140" width="8" height="8" fill="#38e850"/>
      <rect x="114" y="140" width="8" height="8" fill="#38e850"/>
      <rect x="122" y="140" width="8" height="8" fill="#38e850"/>
      <rect x="130" y="140" width="8" height="8" fill="#38e850"/>
      <rect x="138" y="140" width="8" height="8" fill="#38e850"/>
      <rect x="146" y="140" width="8" height="8" fill="#38e850"/>
      <rect x="66" y="148" width="8" height="8" fill="#38e850"/>
      <rect x="74" y="148" width="8" height="8" fill="#38e850"/>
      <rect x="82" y="148" width="8" height="8" fill="#38e850"/>
      <rect x="122" y="148" width="8" height="8" fill="#38e850"/>
      <rect x="130" y="148" width="8" height="8" fill="#38e850"/>
      <rect x="138" y="148" width="8" height="8" fill="#38e850"/>
      <rect x="66" y="156" width="8" height="8" fill="#38e850"/>
      <rect x="74" y="156" width="8" height="8" fill="#38e850"/>
      <rect x="130" y="156" width="8" height="8" fill="#38e850"/>
      <rect x="138" y="156" width="8" height="8" fill="#38e850"/></g><circle cx="60" cy="53" r="1.5" fill="#38e850" opacity="0"><animate attributeName="opacity" values="0;0.8;0" dur="2.5s" begin="0.7s" repeatCount="indefinite"/></circle>
    <circle cx="171" cy="61" r="1.4" fill="#80ff98" opacity="0"><animate attributeName="opacity" values="0;0.8;0" dur="2.1s" begin="0.5s" repeatCount="indefinite"/></circle>
    <circle cx="161" cy="127" r="0.8" fill="#80ff98" opacity="0"><animate attributeName="opacity" values="0;0.8;0" dur="2.4s" begin="3.2s" repeatCount="indefinite"/></circle>
    <circle cx="88" cy="107" r="1.4" fill="#80ff98" opacity="0"><animate attributeName="opacity" values="0;0.8;0" dur="3.6s" begin="0.0s" repeatCount="indefinite"/></circle>
    <circle cx="140" cy="93" r="1.1" fill="#38e850" opacity="0"><animate attributeName="opacity" values="0;0.8;0" dur="2.4s" begin="3.8s" repeatCount="indefinite"/></circle>
    <circle cx="55" cy="98" r="0.9" fill="#38e850" opacity="0"><animate attributeName="opacity" values="0;0.8;0" dur="3.7s" begin="3.0s" repeatCount="indefinite"/></circle>
    <circle cx="149" cy="118" r="0.9" fill="#f8d830" opacity="0"><animate attributeName="opacity" values="0;0.8;0" dur="3.8s" begin="0.4s" repeatCount="indefinite"/></circle>
    <circle cx="124" cy="123" r="1.0" fill="#f8d830" opacity="0"><animate attributeName="opacity" values="0;0.8;0" dur="2.1s" begin="3.3s" repeatCount="indefinite"/></circle><text x="106" y="180" font-family="'Courier New', 'Courier', monospace" font-size="10" fill="#f8d830" text-anchor="middle" letter-spacing="1">- LV.8 -</text><text x="28" y="196" font-family="'Courier New', 'Courier', monospace" font-size="8" fill="#e83030">HP</text><rect x="50" y="188" width="104" height="8" fill="#401818" rx="1"/><rect x="50" y="188" width="1" height="8" fill="url(#hpg)" rx="1"><animate attributeName="opacity" values="0.85;1;0.85" dur="3s" repeatCount="indefinite"/></rect><text x="28" y="210" font-family="'Courier New', 'Courier', monospace" font-size="8" fill="#40b8f0">MP</text><rect x="50" y="202" width="104" height="8" fill="#102040" rx="1"/><rect x="50" y="202" width="0" height="8" fill="url(#mpg)" rx="1"/>
  <rect x="206" y="48" width="284" height="180" fill="#101820" stroke="#2a5a30" stroke-width="1.5" rx="2"/><line x1="209" y1="51" x2="487" y2="51" stroke="#1a2a38" stroke-width="1" opacity="0.6"/><line x1="209" y1="51" x2="209" y2="225" stroke="#1a2a38" stroke-width="1" opacity="0.4"/><text x="220" y="72" font-family="'Courier New', 'Courier', monospace" font-size="11" fill="#f8d830" letter-spacing="2">STATUS</text><text x="220" y="90" font-family="'Courier New', 'Courier', monospace" font-size="11" opacity="0"><animate attributeName="opacity" from="0" to="1" dur="0.3s" begin="0.20s" fill="freeze"/><tspan fill="#88a878">COMMITS</tspan><tspan fill="#4a6848">...........</tspan><tspan fill="#38e850">16</tspan></text>
      <text x="220" y="116" font-family="'Courier New', 'Courier', monospace" font-size="11" opacity="0"><animate attributeName="opacity" from="0" to="1" dur="0.3s" begin="0.32s" fill="freeze"/><tspan fill="#88a878">STREAK</tspan><tspan fill="#4a6848">............</tspan><tspan fill="#40b8f0">0d</tspan></text>
      <text x="220" y="142" font-family="'Courier New', 'Courier', monospace" font-size="11" opacity="0"><animate attributeName="opacity" from="0" to="1" dur="0.3s" begin="0.44s" fill="freeze"/><tspan fill="#88a878">FOLLOWERS</tspan><tspan fill="#4a6848">.........</tspan><tspan fill="#f8d830">15</tspan></text>
      <text x="220" y="168" font-family="'Courier New', 'Courier', monospace" font-size="11" opacity="0"><animate attributeName="opacity" from="0" to="1" dur="0.3s" begin="0.56s" fill="freeze"/><tspan fill="#88a878">REPOS</tspan><tspan fill="#4a6848">.............</tspan><tspan fill="#e0dcc8">10</tspan></text>
      <text x="220" y="194" font-family="'Courier New', 'Courier', monospace" font-size="11" opacity="0"><animate attributeName="opacity" from="0" to="1" dur="0.3s" begin="0.68s" fill="freeze"/><tspan fill="#88a878">JOINED</tspan><tspan fill="#4a6848">........</tspan><tspan fill="#88a878">8y ago</tspan></text><text x="220" y="230" font-family="'Courier New', 'Courier', monospace" font-size="8" fill="#4a6848" font-style="italic">&quot;It's dangerous to code alone!&quot;</text>
  <rect x="500" y="48" width="334" height="180" fill="#101820" stroke="#2a5a30" stroke-width="1.5" rx="2"/><line x1="503" y1="51" x2="831" y2="51" stroke="#1a2a38" stroke-width="1" opacity="0.6"/><line x1="503" y1="51" x2="503" y2="225" stroke="#1a2a38" stroke-width="1" opacity="0.4"/><text x="514" y="72" font-family="'Courier New', 'Courier', monospace" font-size="11" fill="#f8d830" letter-spacing="2">WORLD MAP</text><rect x="518" y="84" width="8" height="8" fill="#0a1a10" rx="1"/>
      <rect x="518" y="94" width="8" height="8" fill="#0a1a10" rx="1"/>
      <rect x="518" y="104" width="8" height="8" fill="#0a1a10" rx="1"/>
      <rect x="518" y="114" width="8" height="8" fill="#0a1a10" rx="1"/>
      <rect x="518" y="124" width="8" height="8" fill="#0a1a10" rx="1"/>
      <rect x="518" y="134" width="8" height="8" fill="#0a1a10" rx="1"/>
      <rect x="518" y="144" width="8" height="8" fill="#0a1a10" rx="1"/>
      <rect x="528" y="84" width="8" height="8" fill="#0a1a10" rx="1"/>
      <rect x="528" y="94" width="8" height="8" fill="#0d3b1e" rx="1"/>
      <rect x="528" y="104" width="8" height="8" fill="#0d3b1e" rx="1"/>
      <rect x="528" y="114" width="8" height="8" fill="#0a1a10" rx="1"/>
      <rect x="528" y="124" width="8" height="8" fill="#1a6b34" rx="1"/>
      <rect x="528" y="134" width="8" height="8" fill="#1a6b34" rx="1"/>
      <rect x="528" y="144" width="8" height="8" fill="#2aaa4a" rx="1"/>
      <rect x="538" y="84" width="8" height="8" fill="#0a1a10" rx="1"/>
      <rect x="538" y="94" width="8" height="8" fill="#2aaa4a" rx="1"/>
      <rect x="538" y="104" width="8" height="8" fill="#0a1a10" rx="1"/>
      <rect x="538" y="114" width="8" height="8" fill="#0a1a10" rx="1"/>
      <rect x="538" y="124" width="8" height="8" fill="#0a1a10" rx="1"/>
      <rect x="538" y="134" width="8" height="8" fill="#0d3b1e" rx="1"/>
      <rect x="538" y="144" width="8" height="8" fill="#2aaa4a" rx="1"/>
      <rect x="548" y="84" width="8" height="8" fill="#2aaa4a" rx="1"/>
      <rect x="548" y="94" width="8" height="8" fill="#0a1a10" rx="1"/>
      <rect x="548" y="104" width="8" height="8" fill="#3de868" rx="1"/>
      <rect x="548" y="114" width="8" height="8" fill="#3de868" rx="1"/>
      <rect x="548" y="124" width="8" height="8" fill="#0d3b1e" rx="1"/>
      <rect x="548" y="134" width="8" height="8" fill="#0a1a10" rx="1"/>
      <rect x="548" y="144" width="8" height="8" fill="#2aaa4a" rx="1"/>
      <rect x="558" y="84" width="8" height="8" fill="#0a1a10" rx="1"/>
      <rect x="558" y="94" width="8" height="8" fill="#3de868" rx="1"/>
      <rect x="558" y="104" width="8" height="8" fill="#0a1a10" rx="1"/>
      <rect x="558" y="114" width="8" height="8" fill="#0a1a10" rx="1"/>
      <rect x="558" y="124" width="8" height="8" fill="#0a1a10" rx="1"/>
      <rect x="558" y="134" width="8" height="8" fill="#0a1a10" rx="1"/>
      <rect x="558" y="144" width="8" height="8" fill="#0a1a10" rx="1"/>
      <rect x="568" y="84" width="8" height="8" fill="#0a1a10" rx="1"/>
      <rect x="568" y="94" width="8" height="8" fill="#1a6b34" rx="1"/>
      <rect x="568" y="104" width="8" height="8" fill="#3de868" rx="1"/>
      <rect x="568" y="114" width="8" height="8" fill="#3de868" rx="1"/>
      <rect x="568" y="124" width="8" height="8" fill="#3de868" rx="1"/>
      <rect x="568" y="134" width="8" height="8" fill="#0a1a10" rx="1"/>
      <rect x="568" y="144" width="8" height="8" fill="#0a1a10" rx="1"/>
      <rect x="578" y="84" width="8" height="8" fill="#3de868" rx="1"/>
      <rect x="578" y="94" width="8" height="8" fill="#2aaa4a" rx="1"/>
      <rect x="578" y="104" width="8" height="8" fill="#0d3b1e" rx="1"/>
      <rect x="578" y="114" width="8" height="8" fill="#3de868" rx="1"/>
      <rect x="578" y="124" width="8" height="8" fill="#1a6b34" rx="1"/>
      <rect x="578" y="134" width="8" height="8" fill="#0d3b1e" rx="1"/>
      <rect x="578" y="144" width="8" height="8" fill="#0a1a10" rx="1"/>
      <rect x="588" y="84" width="8" height="8" fill="#0a1a10" rx="1"/>
      <rect x="588" y="94" width="8" height="8" fill="#0a1a10" rx="1"/>
      <rect x="588" y="104" width="8" height="8" fill="#2aaa4a" rx="1"/>
      <rect x="588" y="114" width="8" height="8" fill="#0d3b1e" rx="1"/>
      <rect x="588" y="124" width="8" height="8" fill="#0a1a10" rx="1"/>
      <rect x="588" y="134" width="8" height="8" fill="#0a1a10" rx="1"/>
      <rect x="588" y="144" width="8" height="8" fill="#0a1a10" rx="1"/>
      <rect x="598" y="84" width="8" height="8" fill="#0a1a10" rx="1"/>
      <rect x="598" y="94" width="8" height="8" fill="#0a1a10" rx="1"/>
      <rect x="598" y="104" width="8" height="8" fill="#0a1a10" rx="1"/>
      <rect x="598" y="114" width="8" height="8" fill="#0a1a10" rx="1"/>
      <rect x="598" y="124" width="8" height="8" fill="#0a1a10" rx="1"/>
      <rect x="598" y="134" width="8" height="8" fill="#0a1a10" rx="1"/>
      <rect x="598" y="144" width="8" height="8" fill="#0a1a10" rx="1"/>
      <rect x="608" y="84" width="8" height="8" fill="#0a1a10" rx="1"/>
      <rect x="608" y="94" width="8" height="8" fill="#0a1a10" rx="1"/>
      <rect x="608" y="104" width="8" height="8" fill="#0a1a10" rx="1"/>
      <rect x="608" y="114" width="8" height="8" fill="#0a1a10" rx="1"/>
      <rect x="608" y="124" width="8" height="8" fill="#0a1a10" rx="1"/>
      <rect x="608" y="134" width="8" height="8" fill="#0a1a10" rx="1"/>
      <rect x="608" y="144" width="8" height="8" fill="#2aaa4a" rx="1"/>
      <rect x="618" y="84" width="8" height="8" fill="#0a1a10" rx="1"/>
      <rect x="618" y="94" width="8" height="8" fill="#0a1a10" rx="1"/>
      <rect x="618" y="104" width="8" height="8" fill="#0a1a10" rx="1"/>
      <rect x="618" y="114" width="8" height="8" fill="#0d3b1e" rx="1"/>
      <rect x="618" y="124" width="8" height="8" fill="#0a1a10" rx="1"/>
      <rect x="618" y="134" width="8" height="8" fill="#0a1a10" rx="1"/>
      <rect x="618" y="144" width="8" height="8" fill="#0d3b1e" rx="1"/>
      <rect x="628" y="84" width="8" height="8" fill="#1a6b34" rx="1"/>
      <rect x="628" y="94" width="8" height="8" fill="#0d3b1e" rx="1"/>
      <rect x="628" y="104" width="8" height="8" fill="#1a6b34" rx="1"/>
      <rect x="628" y="114" width="8" height="8" fill="#1a6b34" rx="1"/>
      <rect x="628" y="124" width="8" height="8" fill="#1a6b34" rx="1"/>
      <rect x="628" y="134" width="8" height="8" fill="#3de868" rx="1"/>
      <rect x="628" y="144" width="8" height="8" fill="#3de868" rx="1"/>
      <rect x="638" y="84" width="8" height="8" fill="#3de868" rx="1"/>
      <rect x="638" y="94" width="8" height="8" fill="#0a1a10" rx="1"/>
      <rect x="638" y="104" width="8" height="8" fill="#0a1a10" rx="1"/>
      <rect x="638" y="114" width="8" height="8" fill="#0d3b1e" rx="1"/>
      <rect x="638" y="124" width="8" height="8" fill="#0a1a10" rx="1"/>
      <rect x="638" y="134" width="8" height="8" fill="#0a1a10" rx="1"/>
      <rect x="638" y="144" width="8" height="8" fill="#0a1a10" rx="1"/>
      <rect x="648" y="84" width="8" height="8" fill="#0a1a10" rx="1"/>
      <rect x="648" y="94" width="8" height="8" fill="#0a1a10" rx="1"/>
      <rect x="648" y="104" width="8" height="8" fill="#2aaa4a" rx="1"/>
      <rect x="648" y="114" width="8" height="8" fill="#0a1a10" rx="1"/>
      <rect x="648" y="124" width="8" height="8" fill="#0a1a10" rx="1"/>
      <rect x="648" y="134" width="8" height="8" fill="#0a1a10" rx="1"/>
      <rect x="648" y="144" width="8" height="8" fill="#0a1a10" rx="1"/>
      <rect x="658" y="84" width="8" height="8" fill="#0a1a10" rx="1"/>
      <rect x="658" y="94" width="8" height="8" fill="#0a1a10" rx="1"/>
      <rect x="658" y="104" width="8" height="8" fill="#0a1a10" rx="1"/>
      <rect x="658" y="114" width="8" height="8" fill="#2aaa4a" rx="1"/>
      <rect x="658" y="124" width="8" height="8" fill="#1a6b34" rx="1"/>
      <rect x="658" y="134" width="8" height="8" fill="#0d3b1e" rx="1"/>
      <rect x="658" y="144" width="8" height="8" fill="#0a1a10" rx="1"/>
      <rect x="668" y="84" width="8" height="8" fill="#0d3b1e" rx="1"/>
      <rect x="668" y="94" width="8" height="8" fill="#0d3b1e" rx="1"/>
      <rect x="668" y="104" width="8" height="8" fill="#0a1a10" rx="1"/>
      <rect x="668" y="114" width="8" height="8" fill="#0a1a10" rx="1"/>
      <rect x="668" y="124" width="8" height="8" fill="#0a1a10" rx="1"/>
      <rect x="668" y="134" width="8" height="8" fill="#0d3b1e" rx="1"/>
      <rect x="668" y="144" width="8" height="8" fill="#0d3b1e" rx="1"/>
      <rect x="678" y="84" width="8" height="8" fill="#0a1a10" rx="1"/>
      <rect x="678" y="94" width="8" height="8" fill="#3de868" rx="1"/>
      <rect x="678" y="104" width="8" height="8" fill="#0a1a10" rx="1"/>
      <rect x="678" y="114" width="8" height="8" fill="#0a1a10" rx="1"/>
      <rect x="678" y="124" width="8" height="8" fill="#0d3b1e" rx="1"/>
      <rect x="678" y="134" width="8" height="8" fill="#2aaa4a" rx="1"/>
      <rect x="678" y="144" width="8" height="8" fill="#0a1a10" rx="1"/>
      <rect x="688" y="84" width="8" height="8" fill="#1a6b34" rx="1"/>
      <rect x="688" y="94" width="8" height="8" fill="#0d3b1e" rx="1"/>
      <rect x="688" y="104" width="8" height="8" fill="#2aaa4a" rx="1"/>
      <rect x="688" y="114" width="8" height="8" fill="#2aaa4a" rx="1"/>
      <rect x="688" y="124" width="8" height="8" fill="#0a1a10" rx="1"/><text x="518" y="170" font-family="'Courier New', 'Courier', monospace" font-size="7" fill="#4a6848">safe</text><rect x="544" y="162" width="8" height="8" fill="#0a1a10" rx="1"/><rect x="554" y="162" width="8" height="8" fill="#0d3b1e" rx="1"/><rect x="564" y="162" width="8" height="8" fill="#1a6b34" rx="1"/><rect x="574" y="162" width="8" height="8" fill="#2aaa4a" rx="1"/><rect x="584" y="162" width="8" height="8" fill="#3de868" rx="1"/><text x="596" y="170" font-family="'Courier New', 'Courier', monospace" font-size="7" fill="#4a6848">dungeon</text>

  <!-- Row 2: Companions (AI Collab) -->
  <rect x="16" y="238" width="818" height="78" fill="#101820" stroke="#2a5a30" stroke-width="1.5" rx="2"/><line x1="19" y1="241" x2="831" y2="241" stroke="#1a2a38" stroke-width="1" opacity="0.6"/><line x1="19" y1="241" x2="19" y2="313" stroke="#1a2a38" stroke-width="1" opacity="0.4"/>
    <text x="30" y="262" font-family="'Courier New', 'Courier', monospace" font-size="11" fill="#f8d830" letter-spacing="2">COMPANIONS</text>
    <rect x="30" y="272" width="790" height="14" fill="#0a1a10" rx="2"/>
    <rect x="30" y="272" width="675" height="14" fill="#38e850" opacity="0.8" rx="0"><animate attributeName="width" from="0" to="675" dur="0.8s" begin="0.3s" fill="freeze" calcMode="spline" keySplines="0.4 0 0.2 1"/></rect>
    <rect x="705" y="272" width="115" height="14" fill="#b870ff" opacity="0.8" rx="0"><animate attributeName="width" from="0" to="115" dur="0.8s" begin="0.3s" fill="freeze" calcMode="spline" keySplines="0.4 0 0.2 1"/></rect>
    <rect x="30" y="272" width="790" height="14" fill="none" stroke="#2a5a30" stroke-width="1" rx="2"/>
    <text x="367" y="283" text-anchor="middle" font-family="'Courier New', 'Courier', monospace" font-size="8" fill="#0b1810" font-weight="bold">86%</text>
    <text x="762" y="283" text-anchor="middle" font-family="'Courier New', 'Courier', monospace" font-size="8" fill="#0b1810" font-weight="bold">14%</text>
    <rect x="30" y="293" width="8" height="8" fill="#38e850" rx="1"/><text x="42" y="301" font-family="'Courier New', 'Courier', monospace" font-size="9" fill="#e0dcc8">Hero <tspan fill="#88a878">86%</tspan></text>
    <rect x="140" y="293" width="8" height="8" fill="#b870ff" rx="1"/><text x="152" y="301" font-family="'Courier New', 'Courier', monospace" font-size="9" fill="#e0dcc8">Navi <tspan fill="#88a878">14%</tspan></text>

  <!-- Row 3: Quest Log (Commits) -->
  <rect x="16" y="326" width="818" height="190" fill="#101820" stroke="#2a5a30" stroke-width="1.5" rx="2"/><line x1="19" y1="329" x2="831" y2="329" stroke="#1a2a38" stroke-width="1" opacity="0.6"/><line x1="19" y1="329" x2="19" y2="513" stroke="#1a2a38" stroke-width="1" opacity="0.4"/><text x="30" y="350" font-family="'Courier New', 'Courier', monospace" font-size="11" fill="#f8d830" letter-spacing="2">QUEST LOG</text><text x="30" y="378" font-family="'Courier New', 'Courier', monospace" font-size="10" fill="#4a6848">No quests recorded yet...</text>

  <!-- Row 4: Inventory (Languages) -->
  <rect x="16" y="526" width="818" height="108" fill="#101820" stroke="#2a5a30" stroke-width="1.5" rx="2"/><line x1="19" y1="529" x2="831" y2="529" stroke="#1a2a38" stroke-width="1" opacity="0.6"/><line x1="19" y1="529" x2="19" y2="631" stroke="#1a2a38" stroke-width="1" opacity="0.4"/><text x="30" y="550" font-family="'Courier New', 'Courier', monospace" font-size="11" fill="#f8d830" letter-spacing="2">INVENTORY</text><rect x="30" y="562" width="240" height="32" fill="#101820" stroke="#2a5a30" stroke-width="1" rx="2"/><line x1="32" y1="564" x2="268" y2="564" stroke="#1a2a38" stroke-width="0.5" opacity="0.4"/><rect x="38" y="570" width="16" height="16" fill="#427819" rx="2" opacity="0.9"/><rect x="40" y="572" width="5" height="5" fill="white" opacity="0.3" rx="1"/><text x="60" y="582" font-family="'Courier New', 'Courier', monospace" font-size="10" fill="#e0dcc8">Makefile</text><text x="260" y="582" font-family="'Courier New', 'Courier', monospace" font-size="10" fill="#88a878" text-anchor="end">46.6%</text>
      <rect x="290" y="562" width="240" height="32" fill="#101820" stroke="#2a5a30" stroke-width="1" rx="2"/><line x1="292" y1="564" x2="528" y2="564" stroke="#1a2a38" stroke-width="0.5" opacity="0.4"/><rect x="298" y="570" width="16" height="16" fill="#dea584" rx="2" opacity="0.9"/><rect x="300" y="572" width="5" height="5" fill="white" opacity="0.3" rx="1"/><text x="320" y="582" font-family="'Courier New', 'Courier', monospace" font-size="10" fill="#e0dcc8">Rust</text><text x="520" y="582" font-family="'Courier New', 'Courier', monospace" font-size="10" fill="#88a878" text-anchor="end">34.4%</text>
      <rect x="550" y="562" width="240" height="32" fill="#101820" stroke="#2a5a30" stroke-width="1" rx="2"/><line x1="552" y1="564" x2="788" y2="564" stroke="#1a2a38" stroke-width="0.5" opacity="0.4"/><rect x="558" y="570" width="16" height="16" fill="#3178c6" rx="2" opacity="0.9"/><rect x="560" y="572" width="5" height="5" fill="white" opacity="0.3" rx="1"/><text x="580" y="582" font-family="'Courier New', 'Courier', monospace" font-size="10" fill="#e0dcc8">TypeScript</text><text x="780" y="582" font-family="'Courier New', 'Courier', monospace" font-size="10" fill="#88a878" text-anchor="end">7.7%</text>
      <rect x="30" y="600" width="240" height="32" fill="#101820" stroke="#2a5a30" stroke-width="1" rx="2"/><line x1="32" y1="602" x2="268" y2="602" stroke="#1a2a38" stroke-width="0.5" opacity="0.4"/><rect x="38" y="608" width="16" height="16" fill="#f34b7d" rx="2" opacity="0.9"/><rect x="40" y="610" width="5" height="5" fill="white" opacity="0.3" rx="1"/><text x="60" y="620" font-family="'Courier New', 'Courier', monospace" font-size="10" fill="#e0dcc8">C++</text><text x="260" y="620" font-family="'Courier New', 'Courier', monospace" font-size="10" fill="#88a878" text-anchor="end">3.9%</text>
      <rect x="290" y="600" width="240" height="32" fill="#101820" stroke="#2a5a30" stroke-width="1" rx="2"/><line x1="292" y1="602" x2="528" y2="602" stroke="#1a2a38" stroke-width="0.5" opacity="0.4"/><rect x="298" y="608" width="16" height="16" fill="#663399" rx="2" opacity="0.9"/><rect x="300" y="610" width="5" height="5" fill="white" opacity="0.3" rx="1"/><text x="320" y="620" font-family="'Courier New', 'Courier', monospace" font-size="10" fill="#e0dcc8">CSS</text><text x="520" y="620" font-family="'Courier New', 'Courier', monospace" font-size="10" fill="#88a878" text-anchor="end">2.3%</text>
      <rect x="550" y="600" width="240" height="32" fill="#101820" stroke="#2a5a30" stroke-width="1" rx="2"/><line x1="552" y1="602" x2="788" y2="602" stroke="#1a2a38" stroke-width="0.5" opacity="0.4"/><rect x="558" y="608" width="16" height="16" fill="#F05138" rx="2" opacity="0.9"/><rect x="560" y="610" width="5" height="5" fill="white" opacity="0.3" rx="1"/><text x="580" y="620" font-family="'Courier New', 'Courier', monospace" font-size="10" fill="#e0dcc8">Swift</text><text x="780" y="620" font-family="'Courier New', 'Courier', monospace" font-size="10" fill="#88a878" text-anchor="end">1.7%</text>

  <!-- Footer -->
  <line x1="16" y1="664" x2="834" y2="664" stroke="#2a5a30" stroke-width="0.5"/><text x="28" y="684" font-family="'Courier New', 'Courier', monospace" font-size="10" fill="#38e850">&#9654; GAME SAVED</text><rect x="150" y="674" width="7" height="12" fill="#38e850" class="cursor"/><text x="828" y="684" font-family="'Courier New', 'Courier', monospace" font-size="9" fill="#4a6848" text-anchor="end">2026-02-26 02:46 UTC</text><text x="425" y="684" font-family="'Courier New', 'Courier', monospace" font-size="7" fill="#4a6848" text-anchor="middle" opacity="0.4">SECRET TO EVERYBODY</text>
</svg>