<svg xmlns="http://www.w3.org/2000/svg" width="850" height="680" viewBox="0 0 850 680">
  <defs>
    <style>
      .eye { animation: blink 4s step-end infinite; }
      .pet { animation: float 3s ease-in-out infinite; }
      @keyframes blink { 0%,92%{opacity:1} 93%,97%{opacity:0} 98%{opacity:1} }
      @keyframes float { 0%,100%{transform:translateY(0)} 50%{transform:translateY(-5px)} }
    </style>
    <linearGradient id="grd" x1="0%" y1="0%" x2="100%" y2="100%">
      <stop offset="0%"><animate attributeName="stop-color" values="#D97757;#E8A87C;#F5E6D3;#C4703E;#D97757" dur="10s" repeatCount="indefinite"/></stop>
      <stop offset="50%"><animate attributeName="stop-color" values="#E8A87C;#F5E6D3;#C4703E;#D97757;#E8A87C" dur="10s" repeatCount="indefinite"/></stop>
      <stop offset="100%"><animate attributeName="stop-color" values="#F5E6D3;#C4703E;#D97757;#E8A87C;#F5E6D3" dur="10s" repeatCount="indefinite"/></stop>
    </linearGradient>
    <linearGradient id="hpg"><stop offset="0%" stop-color="#D97757"/><stop offset="100%" stop-color="#E8A87C"/></linearGradient>
    <linearGradient id="xpg"><stop offset="0%" stop-color="#C4703E"/><stop offset="100%" stop-color="#D97757"/></linearGradient>
    <clipPath id="win"><rect width="850" height="680" rx="12"/></clipPath>
  </defs>

  <!-- Window -->
  <rect width="850" height="680" fill="#1a1512" rx="12"/>
  <rect x="1" y="1" width="848" height="678" fill="none" stroke="url(#grd)" stroke-width="1.5" rx="11"/>

  <!-- Title bar -->
  <rect x="0" y="0" width="850" height="38" fill="#2a2219" clip-path="url(#win)"/><line x1="0" y1="38" x2="850" y2="38" stroke="#3d3028" stroke-width="0.5"/><circle cx="32" cy="19" r="6" fill="#ff5f57"/><circle cx="52" cy="19" r="6" fill="#febc2e"/><circle cx="72" cy="19" r="6" fill="#28c840"/><text x="425" y="23" font-family="-apple-system, 'SF Pro Display', 'Helvetica Neue', sans-serif" font-size="13" fill="#9B8672" text-anchor="middle" font-weight="500">bigmacfive — GitHub Dashboard</text>

  <!-- Row 1: Pet | Stats | Heatmap -->
  <rect x="16" y="50" width="180" height="170" fill="#221c17" rx="10" stroke="#3d3028" stroke-width="0.5"/><g class="pet"><rect x="82" y="64" width="8" height="8" fill="#D97757"/>
      <rect x="90" y="64" width="8" height="8" fill="#D97757"/>
      <rect x="98" y="64" width="8" height="8" fill="#D97757"/>
      <rect x="106" y="64" width="8" height="8" fill="#D97757"/>
      <rect x="114" y="64" width="8" height="8" fill="#D97757"/>
      <rect x="122" y="64" width="8" height="8" fill="#D97757"/>
      <rect x="66" y="72" width="8" height="8" fill="#D97757"/>
      <rect x="74" y="72" width="8" height="8" fill="#D97757"/>
      <rect x="82" y="72" width="8" height="8" fill="#D97757"/>
      <rect x="90" y="72" width="8" height="8" fill="#D97757"/>
      <rect x="98" y="72" width="8" height="8" fill="#D97757"/>
      <rect x="106" y="72" width="8" height="8" fill="#D97757"/>
      <rect x="114" y="72" width="8" height="8" fill="#D97757"/>
      <rect x="122" y="72" width="8" height="8" fill="#D97757"/>
      <rect x="130" y="72" width="8" height="8" fill="#D97757"/>
      <rect x="138" y="72" width="8" height="8" fill="#D97757"/>
      <rect x="58" y="80" width="8" height="8" fill="#D97757"/>
      <rect x="66" y="80" width="8" height="8" fill="#D97757"/>
      <rect x="74" y="80" width="8" height="8" fill="#D97757"/>
      <rect x="82" y="80" width="8" height="8" fill="#D97757"/>
      <rect x="90" y="80" width="8" height="8" fill="#D97757"/>
      <rect x="98" y="80" width="8" height="8" fill="#D97757"/>
      <rect x="106" y="80" width="8" height="8" fill="#D97757"/>
      <rect x="114" y="80" width="8" height="8" fill="#D97757"/>
      <rect x="122" y="80" width="8" height="8" fill="#D97757"/>
      <rect x="130" y="80" width="8" height="8" fill="#D97757"/>
      <rect x="138" y="80" width="8" height="8" fill="#D97757"/>
      <rect x="146" y="80" width="8" height="8" fill="#D97757"/>
      <rect x="50" y="88" width="8" height="8" fill="#D97757"/>
      <rect x="58" y="88" width="8" height="8" fill="#D97757"/>
      <rect x="66" y="88" width="8" height="8" fill="#D97757"/>
      <rect x="74" y="88" width="8" height="8" fill="#1A1410" class="eye"/>
      <rect x="82" y="88" width="8" height="8" fill="#1A1410" class="eye"/>
      <rect x="90" y="88" width="8" height="8" fill="#D97757"/>
      <rect x="98" y="88" width="8" height="8" fill="#D97757"/>
      <rect x="106" y="88" width="8" height="8" fill="#D97757"/>
      <rect x="114" y="88" width="8" height="8" fill="#D97757"/>
      <rect x="122" y="88" width="8" height="8" fill="#1A1410" class="eye"/>
      <rect x="130" y="88" width="8" height="8" fill="#1A1410" class="eye"/>
      <rect x="138" y="88" width="8" height="8" fill="#D97757"/>
      <rect x="146" y="88" width="8" height="8" fill="#D97757"/>
      <rect x="154" y="88" width="8" height="8" fill="#D97757"/>
      <rect x="50" y="96" width="8" height="8" fill="#D97757"/>
      <rect x="58" y="96" width="8" height="8" fill="#D97757"/>
      <rect x="66" y="96" width="8" height="8" fill="#D97757"/>
      <rect x="74" y="96" width="8" height="8" fill="#E8A87C" class="eye"/>
      <rect x="82" y="96" width="8" height="8" fill="#1A1410" class="eye"/>
      <rect x="90" y="96" width="8" height="8" fill="#D97757"/>
      <rect x="98" y="96" width="8" height="8" fill="#D97757"/>
      <rect x="106" y="96" width="8" height="8" fill="#D97757"/>
      <rect x="114" y="96" width="8" height="8" fill="#D97757"/>
      <rect x="122" y="96" width="8" height="8" fill="#E8A87C" class="eye"/>
      <rect x="130" y="96" width="8" height="8" fill="#1A1410" class="eye"/>
      <rect x="138" y="96" width="8" height="8" fill="#D97757"/>
      <rect x="146" y="96" width="8" height="8" fill="#D97757"/>
      <rect x="154" y="96" width="8" height="8" fill="#D97757"/>
      <rect x="50" y="104" width="8" height="8" fill="#D97757"/>
      <rect x="58" y="104" width="8" height="8" fill="#D97757"/>
      <rect x="66" y="104" width="8" height="8" fill="#F0A88C"/>
      <rect x="74" y="104" width="8" height="8" fill="#D97757"/>
      <rect x="82" y="104" width="8" height="8" fill="#D97757"/>
      <rect x="90" y="104" width="8" height="8" fill="#D97757"/>
      <rect x="98" y="104" width="8" height="8" fill="#D97757"/>
      <rect x="106" y="104" width="8" height="8" fill="#D97757"/>
      <rect x="114" y="104" width="8" height="8" fill="#D97757"/>
      <rect x="122" y="104" width="8" height="8" fill="#D97757"/>
      <rect x="130" y="104" width="8" height="8" fill="#D97757"/>
      <rect x="138" y="104" width="8" height="8" fill="#F0A88C"/>
      <rect x="146" y="104" width="8" height="8" fill="#D97757"/>
      <rect x="154" y="104" width="8" height="8" fill="#D97757"/>
      <rect x="50" y="112" width="8" height="8" fill="#D97757"/>
      <rect x="58" y="112" width="8" height="8" fill="#D97757"/>
      <rect x="66" y="112" width="8" height="8" fill="#D97757"/>
      <rect x="74" y="112" width="8" height="8" fill="#D97757"/>
      <rect x="82" y="112" width="8" height="8" fill="#1A1410"/>
      <rect x="90" y="112" width="8" height="8" fill="#D97757"/>
      <rect x="98" y="112" width="8" height="8" fill="#D97757"/>
      <rect x="106" y="112" width="8" height="8" fill="#D97757"/>
      <rect x="114" y="112" width="8" height="8" fill="#D97757"/>
      <rect x="122" y="112" width="8" height="8" fill="#1A1410"/>
      <rect x="130" y="112" width="8" height="8" fill="#D97757"/>
      <rect x="138" y="112" width="8" height="8" fill="#D97757"/>
      <rect x="146" y="112" width="8" height="8" fill="#D97757"/>
      <rect x="154" y="112" width="8" height="8" fill="#D97757"/>
      <rect x="50" y="120" width="8" height="8" fill="#D97757"/>
      <rect x="58" y="120" width="8" height="8" fill="#D97757"/>
      <rect x="66" y="120" width="8" height="8" fill="#D97757"/>
      <rect x="74" y="120" width="8" height="8" fill="#D97757"/>
      <rect x="82" y="120" width="8" height="8" fill="#D97757"/>
      <rect x="90" y="120" width="8" height="8" fill="#1A1410"/>
      <rect x="98" y="120" width="8" height="8" fill="#1A1410"/>
      <rect x="106" y="120" width="8" height="8" fill="#1A1410"/>
      <rect x="114" y="120" width="8" height="8" fill="#1A1410"/>
      <rect x="122" y="120" width="8" height="8" fill="#D97757"/>
      <rect x="130" y="120" width="8" height="8" fill="#D97757"/>
      <rect x="138" y="120" width="8" height="8" fill="#D97757"/>
      <rect x="146" y="120" width="8" height="8" fill="#D97757"/>
      <rect x="154" y="120" width="8" height="8" fill="#D97757"/>
      <rect x="42" y="128" width="8" height="8" fill="#D97757"/>
      <rect x="50" y="128" width="8" height="8" fill="#D97757"/>
      <rect x="58" y="128" width="8" height="8" fill="#D97757"/>
      <rect x="66" y="128" width="8" height="8" fill="#D97757"/>
      <rect x="74" y="128" width="8" height="8" fill="#D97757"/>
      <rect x="82" y="128" width="8" height="8" fill="#D97757"/>
      <rect x="90" y="128" width="8" height="8" fill="#D97757"/>
      <rect x="98" y="128" width="8" height="8" fill="#D97757"/>
      <rect x="106" y="128" width="8" height="8" fill="#D97757"/>
      <rect x="114" y="128" width="8" height="8" fill="#D97757"/>
      <rect x="122" y="128" width="8" height="8" fill="#D97757"/>
      <rect x="130" y="128" width="8" height="8" fill="#D97757"/>
      <rect x="138" y="128" width="8" height="8" fill="#D97757"/>
      <rect x="146" y="128" width="8" height="8" fill="#D97757"/>
      <rect x="154" y="128" width="8" height="8" fill="#D97757"/>
      <rect x="162" y="128" width="8" height="8" fill="#D97757"/>
      <rect x="50" y="136" width="8" height="8" fill="#D97757"/>
      <rect x="58" y="136" width="8" height="8" fill="#D97757"/>
      <rect x="66" y="136" width="8" height="8" fill="#D97757"/>
      <rect x="74" y="136" width="8" height="8" fill="#D97757"/>
      <rect x="82" y="136" width="8" height="8" fill="#D97757"/>
      <rect x="90" y="136" width="8" height="8" fill="#D97757"/>
      <rect x="98" y="136" width="8" height="8" fill="#D97757"/>
      <rect x="106" y="136" width="8" height="8" fill="#D97757"/>
      <rect x="114" y="136" width="8" height="8" fill="#D97757"/>
      <rect x="122" y="136" width="8" height="8" fill="#D97757"/>
      <rect x="130" y="136" width="8" height="8" fill="#D97757"/>
      <rect x="138" y="136" width="8" height="8" fill="#D97757"/>
      <rect x="146" y="136" width="8" height="8" fill="#D97757"/>
      <rect x="154" y="136" width="8" height="8" fill="#D97757"/>
      <rect x="58" y="144" width="8" height="8" fill="#D97757"/>
      <rect x="66" y="144" width="8" height="8" fill="#D97757"/>
      <rect x="74" y="144" width="8" height="8" fill="#D97757"/>
      <rect x="82" y="144" width="8" height="8" fill="#D97757"/>
      <rect x="90" y="144" width="8" height="8" fill="#D97757"/>
      <rect x="98" y="144" width="8" height="8" fill="#D97757"/>
      <rect x="106" y="144" width="8" height="8" fill="#D97757"/>
      <rect x="114" y="144" width="8" height="8" fill="#D97757"/>
      <rect x="122" y="144" width="8" height="8" fill="#D97757"/>
      <rect x="130" y="144" width="8" height="8" fill="#D97757"/>
      <rect x="138" y="144" width="8" height="8" fill="#D97757"/>
      <rect x="146" y="144" width="8" height="8" fill="#D97757"/>
      <rect x="66" y="152" width="8" height="8" fill="#D97757"/>
      <rect x="74" y="152" width="8" height="8" fill="#D97757"/>
      <rect x="82" y="152" width="8" height="8" fill="#D97757"/>
      <rect x="122" y="152" width="8" height="8" fill="#D97757"/>
      <rect x="130" y="152" width="8" height="8" fill="#D97757"/>
      <rect x="138" y="152" width="8" height="8" fill="#D97757"/>
      <rect x="66" y="160" width="8" height="8" fill="#D97757"/>
      <rect x="74" y="160" width="8" height="8" fill="#D97757"/>
      <rect x="130" y="160" width="8" height="8" fill="#D97757"/>
      <rect x="138" y="160" width="8" height="8" fill="#D97757"/></g><circle cx="58" cy="55" r="1.7" fill="#D97757" opacity="0"><animate attributeName="opacity" values="0;0.7;0" dur="2.5s" begin="0.7s" repeatCount="indefinite"/></circle>
    <circle cx="169" cy="63" r="1.5" fill="#E8A87C" opacity="0"><animate attributeName="opacity" values="0;0.7;0" dur="2.1s" begin="0.5s" repeatCount="indefinite"/></circle>
    <circle cx="159" cy="129" r="0.8" fill="#C4703E" opacity="0"><animate attributeName="opacity" values="0;0.7;0" dur="2.4s" begin="3.2s" repeatCount="indefinite"/></circle>
    <circle cx="86" cy="109" r="1.5" fill="#E8A87C" opacity="0"><animate attributeName="opacity" values="0;0.7;0" dur="3.6s" begin="0.0s" repeatCount="indefinite"/></circle>
    <circle cx="138" cy="95" r="1.1" fill="#D97757" opacity="0"><animate attributeName="opacity" values="0;0.7;0" dur="2.4s" begin="3.8s" repeatCount="indefinite"/></circle>
    <circle cx="53" cy="100" r="0.9" fill="#D97757" opacity="0"><animate attributeName="opacity" values="0;0.7;0" dur="3.7s" begin="3.0s" repeatCount="indefinite"/></circle>
    <circle cx="147" cy="120" r="0.9" fill="#F5E6D3" opacity="0"><animate attributeName="opacity" values="0;0.7;0" dur="3.8s" begin="0.4s" repeatCount="indefinite"/></circle>
    <circle cx="122" cy="125" r="1.0" fill="#F5E6D3" opacity="0"><animate attributeName="opacity" values="0;0.7;0" dur="2.1s" begin="3.3s" repeatCount="indefinite"/></circle>
    <circle cx="50" cy="161" r="1.1" fill="#F5E6D3" opacity="0"><animate attributeName="opacity" values="0;0.7;0" dur="2.2s" begin="1.4s" repeatCount="indefinite"/></circle>
    <circle cx="71" cy="99" r="1.2" fill="#D97757" opacity="0"><animate attributeName="opacity" values="0;0.7;0" dur="3.3s" begin="3.5s" repeatCount="indefinite"/></circle><text x="106" y="184" font-family="-apple-system, 'SF Pro Display', 'Helvetica Neue', sans-serif" font-size="10" fill="#D97757" text-anchor="middle" font-weight="600">LV.8</text><text x="30" y="202" font-family="-apple-system, 'SF Pro Display', 'Helvetica Neue', sans-serif" font-size="8" fill="#D97757">HP</text><rect x="50" y="194" width="100" height="8" fill="#3d3028" rx="4"/><rect x="50" y="194" width="1" height="8" fill="url(#hpg)" rx="4"><animate attributeName="opacity" values="0.85;1;0.85" dur="3s" repeatCount="indefinite"/></rect><text x="30" y="216" font-family="-apple-system, 'SF Pro Display', 'Helvetica Neue', sans-serif" font-size="8" fill="#E8A87C">XP</text><rect x="50" y="208" width="100" height="8" fill="#3d3028" rx="4"/><rect x="50" y="208" width="13" height="8" fill="url(#xpg)" rx="4"/>
  <rect x="206" y="50" width="280" height="170" fill="#221c17" rx="10" stroke="#3d3028" stroke-width="0.5"/><text x="220" y="74" font-family="-apple-system, 'SF Pro Display', 'Helvetica Neue', sans-serif" font-size="11" fill="#9B8672" font-weight="600" letter-spacing="0.5">Overview</text><text x="220" y="104" font-family="-apple-system, 'SF Pro Display', 'Helvetica Neue', sans-serif" font-size="20" fill="#F5E6D3" font-weight="700" opacity="0"><animate attributeName="opacity" from="0" to="1" dur="0.5s" begin="0.2s" fill="freeze"/>15</text><text x="450" y="104" font-family="-apple-system, 'SF Pro Display', 'Helvetica Neue', sans-serif" font-size="11" fill="#9B8672" text-anchor="end">commits</text><rect x="220" y="112" width="230" height="3" fill="#3d3028" rx="1.5"/><rect x="220" y="112" width="1" height="3" fill="#D97757" rx="1.5" opacity="0"><animate attributeName="opacity" from="0" to="0.8" dur="0.8s" begin="0.4s" fill="freeze"/></rect><text x="220" y="128" font-family="-apple-system, 'SF Pro Display', 'Helvetica Neue', sans-serif" font-size="9" fill="#6b5c4d">★ 1  stars</text><text x="220" y="154" font-family="-apple-system, 'SF Pro Display', 'Helvetica Neue', sans-serif" font-size="20" fill="#F5E6D3" font-weight="700" opacity="0"><animate attributeName="opacity" from="0" to="1" dur="0.5s" begin="0.5s" fill="freeze"/>4d</text><text x="450" y="154" font-family="-apple-system, 'SF Pro Display', 'Helvetica Neue', sans-serif" font-size="11" fill="#9B8672" text-anchor="end">streak</text><rect x="220" y="162" width="230" height="3" fill="#3d3028" rx="1.5"/><rect x="220" y="162" width="29" height="3" fill="#E8A87C" rx="1.5" opacity="0"><animate attributeName="opacity" from="0" to="0.8" dur="0.8s" begin="0.7s" fill="freeze"/></rect><text x="220" y="178" font-family="-apple-system, 'SF Pro Display', 'Helvetica Neue', sans-serif" font-size="9" fill="#6b5c4d">10 repos</text><text x="220" y="204" font-family="-apple-system, 'SF Pro Display', 'Helvetica Neue', sans-serif" font-size="20" fill="#F5E6D3" font-weight="700" opacity="0"><animate attributeName="opacity" from="0" to="1" dur="0.5s" begin="0.8s" fill="freeze"/>15</text><text x="450" y="204" font-family="-apple-system, 'SF Pro Display', 'Helvetica Neue', sans-serif" font-size="11" fill="#9B8672" text-anchor="end">followers</text><rect x="220" y="212" width="230" height="3" fill="#3d3028" rx="1.5"/><rect x="220" y="212" width="33" height="3" fill="#F5E6D3" rx="1.5" opacity="0"><animate attributeName="opacity" from="0" to="0.8" dur="0.8s" begin="1.0s" fill="freeze"/></rect><text x="220" y="228" font-family="-apple-system, 'SF Pro Display', 'Helvetica Neue', sans-serif" font-size="9" fill="#6b5c4d">joined 8y ago</text>
  <rect x="496" y="50" width="338" height="170" fill="#221c17" rx="10" stroke="#3d3028" stroke-width="0.5"/><text x="510" y="74" font-family="-apple-system, 'SF Pro Display', 'Helvetica Neue', sans-serif" font-size="11" fill="#9B8672" font-weight="600" letter-spacing="0.5">Contributions</text><rect x="514" y="86" width="8" height="8" fill="#211A14" rx="2"/>
      <rect x="514" y="96" width="8" height="8" fill="#211A14" rx="2"/>
      <rect x="514" y="106" width="8" height="8" fill="#211A14" rx="2"/>
      <rect x="514" y="116" width="8" height="8" fill="#211A14" rx="2"/>
      <rect x="514" y="126" width="8" height="8" fill="#211A14" rx="2"/>
      <rect x="514" y="136" width="8" height="8" fill="#211A14" rx="2"/>
      <rect x="514" y="146" width="8" height="8" fill="#211A14" rx="2"/>
      <rect x="524" y="86" width="8" height="8" fill="#211A14" rx="2"/>
      <rect x="524" y="96" width="8" height="8" fill="#4A2C1A" rx="2"/>
      <rect x="524" y="106" width="8" height="8" fill="#4A2C1A" rx="2"/>
      <rect x="524" y="116" width="8" height="8" fill="#211A14" rx="2"/>
      <rect x="524" y="126" width="8" height="8" fill="#7A4528" rx="2"/>
      <rect x="524" y="136" width="8" height="8" fill="#7A4528" rx="2"/>
      <rect x="524" y="146" width="8" height="8" fill="#B85F35" rx="2"/>
      <rect x="534" y="86" width="8" height="8" fill="#211A14" rx="2"/>
      <rect x="534" y="96" width="8" height="8" fill="#B85F35" rx="2"/>
      <rect x="534" y="106" width="8" height="8" fill="#211A14" rx="2"/>
      <rect x="534" y="116" width="8" height="8" fill="#211A14" rx="2"/>
      <rect x="534" y="126" width="8" height="8" fill="#211A14" rx="2"/>
      <rect x="534" y="136" width="8" height="8" fill="#4A2C1A" rx="2"/>
      <rect x="534" y="146" width="8" height="8" fill="#B85F35" rx="2"/>
      <rect x="544" y="86" width="8" height="8" fill="#B85F35" rx="2"/>
      <rect x="544" y="96" width="8" height="8" fill="#211A14" rx="2"/>
      <rect x="544" y="106" width="8" height="8" fill="#D97757" rx="2"/>
      <rect x="544" y="116" width="8" height="8" fill="#D97757" rx="2"/>
      <rect x="544" y="126" width="8" height="8" fill="#4A2C1A" rx="2"/>
      <rect x="544" y="136" width="8" height="8" fill="#211A14" rx="2"/>
      <rect x="544" y="146" width="8" height="8" fill="#B85F35" rx="2"/>
      <rect x="554" y="86" width="8" height="8" fill="#211A14" rx="2"/>
      <rect x="554" y="96" width="8" height="8" fill="#D97757" rx="2"/>
      <rect x="554" y="106" width="8" height="8" fill="#211A14" rx="2"/>
      <rect x="554" y="116" width="8" height="8" fill="#211A14" rx="2"/>
      <rect x="554" y="126" width="8" height="8" fill="#211A14" rx="2"/>
      <rect x="554" y="136" width="8" height="8" fill="#211A14" rx="2"/>
      <rect x="554" y="146" width="8" height="8" fill="#211A14" rx="2"/>
      <rect x="564" y="86" width="8" height="8" fill="#211A14" rx="2"/>
      <rect x="564" y="96" width="8" height="8" fill="#7A4528" rx="2"/>
      <rect x="564" y="106" width="8" height="8" fill="#D97757" rx="2"/>
      <rect x="564" y="116" width="8" height="8" fill="#D97757" rx="2"/>
      <rect x="564" y="126" width="8" height="8" fill="#D97757" rx="2"/>
      <rect x="564" y="136" width="8" height="8" fill="#211A14" rx="2"/>
      <rect x="564" y="146" width="8" height="8" fill="#211A14" rx="2"/>
      <rect x="574" y="86" width="8" height="8" fill="#D97757" rx="2"/>
      <rect x="574" y="96" width="8" height="8" fill="#B85F35" rx="2"/>
      <rect x="574" y="106" width="8" height="8" fill="#4A2C1A" rx="2"/>
      <rect x="574" y="116" width="8" height="8" fill="#D97757" rx="2"/>
      <rect x="574" y="126" width="8" height="8" fill="#7A4528" rx="2"/>
      <rect x="574" y="136" width="8" height="8" fill="#4A2C1A" rx="2"/>
      <rect x="574" y="146" width="8" height="8" fill="#211A14" rx="2"/>
      <rect x="584" y="86" width="8" height="8" fill="#211A14" rx="2"/>
      <rect x="584" y="96" width="8" height="8" fill="#211A14" rx="2"/>
      <rect x="584" y="106" width="8" height="8" fill="#B85F35" rx="2"/>
      <rect x="584" y="116" width="8" height="8" fill="#4A2C1A" rx="2"/>
      <rect x="584" y="126" width="8" height="8" fill="#211A14" rx="2"/>
      <rect x="584" y="136" width="8" height="8" fill="#211A14" rx="2"/>
      <rect x="584" y="146" width="8" height="8" fill="#211A14" rx="2"/>
      <rect x="594" y="86" width="8" height="8" fill="#211A14" rx="2"/>
      <rect x="594" y="96" width="8" height="8" fill="#211A14" rx="2"/>
      <rect x="594" y="106" width="8" height="8" fill="#211A14" rx="2"/>
      <rect x="594" y="116" width="8" height="8" fill="#211A14" rx="2"/>
      <rect x="594" y="126" width="8" height="8" fill="#211A14" rx="2"/>
      <rect x="594" y="136" width="8" height="8" fill="#211A14" rx="2"/>
      <rect x="594" y="146" width="8" height="8" fill="#211A14" rx="2"/>
      <rect x="604" y="86" width="8" height="8" fill="#211A14" rx="2"/>
      <rect x="604" y="96" width="8" height="8" fill="#211A14" rx="2"/>
      <rect x="604" y="106" width="8" height="8" fill="#211A14" rx="2"/>
      <rect x="604" y="116" width="8" height="8" fill="#211A14" rx="2"/>
      <rect x="604" y="126" width="8" height="8" fill="#211A14" rx="2"/>
      <rect x="604" y="136" width="8" height="8" fill="#211A14" rx="2"/>
      <rect x="604" y="146" width="8" height="8" fill="#B85F35" rx="2"/>
      <rect x="614" y="86" width="8" height="8" fill="#211A14" rx="2"/>
      <rect x="614" y="96" width="8" height="8" fill="#211A14" rx="2"/>
      <rect x="614" y="106" width="8" height="8" fill="#211A14" rx="2"/>
      <rect x="614" y="116" width="8" height="8" fill="#4A2C1A" rx="2"/>
      <rect x="614" y="126" width="8" height="8" fill="#211A14" rx="2"/>
      <rect x="614" y="136" width="8" height="8" fill="#211A14" rx="2"/>
      <rect x="614" y="146" width="8" height="8" fill="#4A2C1A" rx="2"/>
      <rect x="624" y="86" width="8" height="8" fill="#7A4528" rx="2"/>
      <rect x="624" y="96" width="8" height="8" fill="#4A2C1A" rx="2"/>
      <rect x="624" y="106" width="8" height="8" fill="#7A4528" rx="2"/>
      <rect x="624" y="116" width="8" height="8" fill="#7A4528" rx="2"/>
      <rect x="624" y="126" width="8" height="8" fill="#7A4528" rx="2"/>
      <rect x="624" y="136" width="8" height="8" fill="#D97757" rx="2"/>
      <rect x="624" y="146" width="8" height="8" fill="#D97757" rx="2"/>
      <rect x="634" y="86" width="8" height="8" fill="#D97757" rx="2"/>
      <rect x="634" y="96" width="8" height="8" fill="#211A14" rx="2"/>
      <rect x="634" y="106" width="8" height="8" fill="#211A14" rx="2"/>
      <rect x="634" y="116" width="8" height="8" fill="#4A2C1A" rx="2"/>
      <rect x="634" y="126" width="8" height="8" fill="#211A14" rx="2"/>
      <rect x="634" y="136" width="8" height="8" fill="#211A14" rx="2"/>
      <rect x="634" y="146" width="8" height="8" fill="#211A14" rx="2"/>
      <rect x="644" y="86" width="8" height="8" fill="#211A14" rx="2"/>
      <rect x="644" y="96" width="8" height="8" fill="#211A14" rx="2"/>
      <rect x="644" y="106" width="8" height="8" fill="#B85F35" rx="2"/>
      <rect x="644" y="116" width="8" height="8" fill="#211A14" rx="2"/>
      <rect x="644" y="126" width="8" height="8" fill="#211A14" rx="2"/>
      <rect x="644" y="136" width="8" height="8" fill="#211A14" rx="2"/>
      <rect x="644" y="146" width="8" height="8" fill="#211A14" rx="2"/>
      <rect x="654" y="86" width="8" height="8" fill="#211A14" rx="2"/>
      <rect x="654" y="96" width="8" height="8" fill="#211A14" rx="2"/>
      <rect x="654" y="106" width="8" height="8" fill="#211A14" rx="2"/>
      <rect x="654" y="116" width="8" height="8" fill="#B85F35" rx="2"/>
      <rect x="654" y="126" width="8" height="8" fill="#7A4528" rx="2"/>
      <rect x="654" y="136" width="8" height="8" fill="#4A2C1A" rx="2"/>
      <rect x="654" y="146" width="8" height="8" fill="#211A14" rx="2"/>
      <rect x="664" y="86" width="8" height="8" fill="#4A2C1A" rx="2"/>
      <rect x="664" y="96" width="8" height="8" fill="#4A2C1A" rx="2"/>
      <rect x="664" y="106" width="8" height="8" fill="#211A14" rx="2"/>
      <rect x="664" y="116" width="8" height="8" fill="#211A14" rx="2"/>
      <rect x="664" y="126" width="8" height="8" fill="#211A14" rx="2"/>
      <rect x="664" y="136" width="8" height="8" fill="#4A2C1A" rx="2"/>
      <rect x="664" y="146" width="8" height="8" fill="#4A2C1A" rx="2"/>
      <rect x="674" y="86" width="8" height="8" fill="#211A14" rx="2"/>
      <rect x="674" y="96" width="8" height="8" fill="#D97757" rx="2"/>
      <rect x="674" y="106" width="8" height="8" fill="#211A14" rx="2"/>
      <rect x="674" y="116" width="8" height="8" fill="#211A14" rx="2"/>
      <rect x="674" y="126" width="8" height="8" fill="#4A2C1A" rx="2"/>
      <rect x="674" y="136" width="8" height="8" fill="#B85F35" rx="2"/>
      <rect x="674" y="146" width="8" height="8" fill="#211A14" rx="2"/>
      <rect x="684" y="86" width="8" height="8" fill="#7A4528" rx="2"/>
      <rect x="684" y="96" width="8" height="8" fill="#4A2C1A" rx="2"/>
      <rect x="684" y="106" width="8" height="8" fill="#B85F35" rx="2"/>
      <rect x="684" y="116" width="8" height="8" fill="#B85F35" rx="2"/><text x="514" y="170" font-family="-apple-system, 'SF Pro Display', 'Helvetica Neue', sans-serif" font-size="8" fill="#6b5c4d">less</text><rect x="540" y="162" width="8" height="8" fill="#211A14" rx="1.5"/><rect x="550" y="162" width="8" height="8" fill="#4A2C1A" rx="1.5"/><rect x="560" y="162" width="8" height="8" fill="#7A4528" rx="1.5"/><rect x="570" y="162" width="8" height="8" fill="#B85F35" rx="1.5"/><rect x="580" y="162" width="8" height="8" fill="#D97757" rx="1.5"/><text x="592" y="170" font-family="-apple-system, 'SF Pro Display', 'Helvetica Neue', sans-serif" font-size="8" fill="#6b5c4d">more</text>

  <!-- Row 2: AI Collaboration -->
  <rect x="16" y="230" width="818" height="76" fill="#221c17" rx="10" stroke="#3d3028" stroke-width="0.5"/>
    <text x="30" y="254" font-family="-apple-system, 'SF Pro Display', 'Helvetica Neue', sans-serif" font-size="11" fill="#9B8672" font-weight="600" letter-spacing="0.5">AI Collaboration</text>
    <rect x="30" y="264" width="790" height="14" fill="#3d3028" rx="7"/>
    <rect x="30" y="264" width="681" height="14" fill="#E8A87C" opacity="0.85" rx="0"><animate attributeName="width" from="0" to="681" dur="0.8s" begin="0.3s" fill="freeze" calcMode="spline" keySplines="0.4 0 0.2 1"/></rect>
    <rect x="711" y="264" width="109" height="14" fill="#D97757" opacity="0.85" rx="0"><animate attributeName="width" from="0" to="109" dur="0.8s" begin="0.3s" fill="freeze" calcMode="spline" keySplines="0.4 0 0.2 1"/></rect>
    <rect x="30" y="264" width="790" height="14" fill="none" stroke="#3d3028" stroke-width="0.5" rx="7"/>
    <text x="370" y="275" text-anchor="middle" font-family="-apple-system, 'SF Pro Display', 'Helvetica Neue', sans-serif" font-size="9" fill="#1A1410" font-weight="600">86%</text>
    <text x="765" y="275" text-anchor="middle" font-family="-apple-system, 'SF Pro Display', 'Helvetica Neue', sans-serif" font-size="9" fill="#1A1410" font-weight="600">14%</text>
    <circle cx="34" cy="289" r="4" fill="#E8A87C"/><text x="43" y="293" font-family="-apple-system, 'SF Pro Display', 'Helvetica Neue', sans-serif" font-size="10" fill="#F5E6D3">Human <tspan fill="#9B8672">86%</tspan></text>
    <circle cx="154" cy="289" r="4" fill="#D97757"/><text x="163" y="293" font-family="-apple-system, 'SF Pro Display', 'Helvetica Neue', sans-serif" font-size="10" fill="#F5E6D3">Claude <tspan fill="#9B8672">14%</tspan></text>

  <!-- Row 3: Recent Commits -->
  <rect x="16" y="316" width="818" height="190" fill="#221c17" rx="10" stroke="#3d3028" stroke-width="0.5"/><text x="30" y="340" font-family="-apple-system, 'SF Pro Display', 'Helvetica Neue', sans-serif" font-size="11" fill="#9B8672" font-weight="600" letter-spacing="0.5">Recent Commits</text><text x="30" y="368" font-family="-apple-system, 'SF Pro Display', 'Helvetica Neue', sans-serif" font-size="10" fill="#6b5c4d">No recent public commits</text>

  <!-- Row 4: Languages -->
  <rect x="16" y="516" width="818" height="104" fill="#221c17" rx="10" stroke="#3d3028" stroke-width="0.5"/><text x="30" y="540" font-family="-apple-system, 'SF Pro Display', 'Helvetica Neue', sans-serif" font-size="11" fill="#9B8672" font-weight="600" letter-spacing="0.5">Languages</text><circle cx="35" cy="559" r="4.5" fill="#427819"/><text x="46" y="563" font-family="-apple-system, 'SF Pro Display', 'Helvetica Neue', sans-serif" font-size="10" fill="#F5E6D3">Makefile</text><rect x="150" y="553" width="150" height="10" fill="#3d3028" rx="5"/><rect x="150" y="553" width="74" height="10" fill="#427819" rx="5"/><text x="308" y="563" font-family="-apple-system, 'SF Pro Display', 'Helvetica Neue', sans-serif" font-size="10" fill="#9B8672">46.7%</text>
      <circle cx="35" cy="583" r="4.5" fill="#dea584"/><text x="46" y="587" font-family="-apple-system, 'SF Pro Display', 'Helvetica Neue', sans-serif" font-size="10" fill="#F5E6D3">Rust</text><rect x="150" y="577" width="150" height="10" fill="#3d3028" rx="5"/><rect x="150" y="577" width="55" height="10" fill="#dea584" rx="5"/><text x="308" y="587" font-family="-apple-system, 'SF Pro Display', 'Helvetica Neue', sans-serif" font-size="10" fill="#9B8672">34.4%</text>
      <circle cx="35" cy="607" r="4.5" fill="#3178c6"/><text x="46" y="611" font-family="-apple-system, 'SF Pro Display', 'Helvetica Neue', sans-serif" font-size="10" fill="#F5E6D3">TypeScript</text><rect x="150" y="601" width="150" height="10" fill="#3d3028" rx="5"/><rect x="150" y="601" width="12" height="10" fill="#3178c6" rx="5"/><text x="308" y="611" font-family="-apple-system, 'SF Pro Display', 'Helvetica Neue', sans-serif" font-size="10" fill="#9B8672">7.7%</text>
      <circle cx="425" cy="559" r="4.5" fill="#f34b7d"/><text x="436" y="563" font-family="-apple-system, 'SF Pro Display', 'Helvetica Neue', sans-serif" font-size="10" fill="#F5E6D3">C++</text><rect x="540" y="553" width="150" height="10" fill="#3d3028" rx="5"/><rect x="540" y="553" width="6" height="10" fill="#f34b7d" rx="5"/><text x="698" y="563" font-family="-apple-system, 'SF Pro Display', 'Helvetica Neue', sans-serif" font-size="10" fill="#9B8672">3.9%</text>
      <circle cx="425" cy="583" r="4.5" fill="#663399"/><text x="436" y="587" font-family="-apple-system, 'SF Pro Display', 'Helvetica Neue', sans-serif" font-size="10" fill="#F5E6D3">CSS</text><rect x="540" y="577" width="150" height="10" fill="#3d3028" rx="5"/><rect x="540" y="577" width="3" height="10" fill="#663399" rx="5"/><text x="698" y="587" font-family="-apple-system, 'SF Pro Display', 'Helvetica Neue', sans-serif" font-size="10" fill="#9B8672">2.3%</text>
      <circle cx="425" cy="607" r="4.5" fill="#F05138"/><text x="436" y="611" font-family="-apple-system, 'SF Pro Display', 'Helvetica Neue', sans-serif" font-size="10" fill="#F5E6D3">Swift</text><rect x="540" y="601" width="150" height="10" fill="#3d3028" rx="5"/><rect x="540" y="601" width="3" height="10" fill="#F05138" rx="5"/><text x="698" y="611" font-family="-apple-system, 'SF Pro Display', 'Helvetica Neue', sans-serif" font-size="10" fill="#9B8672">1.7%</text>

  <!-- Footer -->
  <text x="830" y="668" font-family="-apple-system, 'SF Pro Display', 'Helvetica Neue', sans-serif" font-size="9" fill="#6b5c4d" text-anchor="end">Updated 2026-02-25 08:54 UTC</text>
</svg>